<svg preserveAspectRatio="none" overflow="visible" style="display: block;" width="66.1768" height="50.196" viewBox="0 0 66.1768 50.196" fill="none" xmlns="http://www.w3.org/2000/svg">
<g id="Room Icon">
<g id="Alcove Seating">
<path d="M32.9174 0.070657C32.4229 0.173497 32.1327 0.306584 32.0074 0.488066C31.8228 0.74819 30.0555 4.7166 30.0555 4.86783C30.0555 5.35179 31.4337 5.91438 32.8647 6.01722C33.1614 6.03537 33.4384 6.07166 33.478 6.08981C33.5373 6.12611 33.623 9.24155 33.5637 9.24155C33.5571 9.24155 33.3527 9.13266 33.1153 8.99353C32.4954 8.63056 32.3305 8.2555 32.5218 7.65056C32.6471 7.2513 32.6537 7.05167 32.5482 6.95488C32.3108 6.7371 31.8623 7.05772 31.6117 7.63846C31.4601 7.97723 31.4535 7.98328 31.3678 7.84414C31.315 7.75945 31.2688 7.39648 31.2425 6.97907C31.2029 6.18055 31.1435 6.06561 30.827 6.1987C30.3456 6.40438 30.1676 7.7171 30.5369 8.40673C30.7743 8.85439 31.2557 9.2476 31.9678 9.57427C32.6141 9.87069 32.6471 9.85254 31.4271 9.96143C31.071 9.99168 30.7545 10.0401 30.7149 10.0582C30.6292 10.1066 30.6292 10.3123 30.7149 10.3607C30.7545 10.3788 30.7809 10.4877 30.7809 10.6027C30.7809 10.7962 30.7677 10.8083 30.405 10.9051C30.194 10.9596 29.3367 11.2076 28.4992 11.4556C27.0814 11.873 26.8242 11.9396 26.8242 11.8791C26.8242 11.867 26.6462 11.0322 26.4286 10.0219C25.9801 7.91673 25.868 7.63846 25.3603 7.32994C24.8657 7.02142 24.6217 7.02142 23.316 7.30574C18.5483 8.35229 3.07124 11.867 2.69536 11.994C2.00295 12.2179 1.5875 12.7805 1.65345 13.3854C1.68642 13.6939 1.68642 13.7 1.4688 13.7968C1.16546 13.9298 1.14568 14.069 1.23141 15.5632C1.34351 17.4566 1.38308 17.251 0.86212 17.378C0.255437 17.5232 0.0576052 17.626 0.0114445 17.8075C-0.0544994 18.0313 0.182899 24.849 0.255437 25.0789C0.301598 25.212 0.413702 25.3209 0.604939 25.4237C0.888498 25.5749 0.888498 25.5749 0.954442 26.4219C0.994008 26.9663 1.05336 27.299 1.11271 27.3656C1.238 27.5047 2.2931 28.1459 2.48434 28.2064C2.66898 28.2609 4.04721 27.8011 4.21866 27.6257C4.32417 27.5168 4.37033 27.5349 5.63646 28.2548C6.35525 28.6662 7.15317 29.1199 7.41694 29.259C8.03681 29.5978 8.00384 29.5433 8.08957 30.4084C8.14892 30.965 8.19508 31.1948 8.28081 31.2795C8.44567 31.455 9.50736 32.0962 9.6986 32.1385C9.87005 32.1809 11.3472 31.6909 11.5121 31.5396C11.5648 31.4973 11.6571 31.1222 11.7297 30.7109C11.9869 29.2106 11.8747 29.3679 13.042 28.9505C13.6025 28.7448 15.1917 28.1762 16.57 27.6801C17.9482 27.178 19.9397 26.4642 20.9882 26.0891C22.6368 25.5023 26.0065 24.2925 29.495 23.0281C30.0423 22.8346 30.5039 22.6712 30.5303 22.6712C30.5501 22.6712 30.583 22.7862 30.6028 22.9192C30.6226 23.0584 30.6951 23.2217 30.7611 23.2762C30.893 23.3911 31.836 23.7601 31.9942 23.7601C32.1657 23.7601 32.3635 23.2641 32.291 22.9918C32.258 22.8648 32.2316 22.5926 32.2316 22.393C32.2316 22.0239 32.2316 22.0239 32.5284 21.9211C32.8251 21.8122 32.8251 21.8122 32.8251 21.5158C32.8251 21.3525 32.8053 21.2194 32.779 21.2194C32.7526 21.2194 31.6447 21.6126 30.3192 22.0965C28.9938 22.5744 26.5934 23.4455 24.9778 24.0263C16.8865 26.9361 11.756 28.7811 11.3802 28.9324C11.1296 29.0231 11.1296 29.0231 11.1296 28.6299C11.1296 28.4061 11.156 28.2367 11.1955 28.2367C11.2351 28.2367 12.3232 27.8677 13.6223 27.414C14.9148 26.9603 16.5831 26.3795 17.3283 26.1194C20.032 25.1757 23.8106 23.8569 26.0659 23.0644C29.1323 21.9876 31.6909 21.0923 32.2976 20.8867C32.6998 20.7536 32.8251 20.6749 32.9768 20.4813C33.0757 20.3543 33.2603 20.2031 33.3856 20.1486C33.656 20.0276 33.6494 20.1244 33.6164 17.5413C33.6098 16.6884 33.623 16.1984 33.6692 16.1984C33.7022 16.1984 33.8407 16.2407 33.9725 16.2891C34.2099 16.3798 34.2099 16.3798 34.2099 18.1886C34.2099 20.1365 34.1902 20.07 34.6781 20.07C34.7111 20.07 34.7375 19.2412 34.7375 18.231C34.7375 16.3919 34.7375 16.3919 35.0408 16.2952C35.3442 16.1984 35.3442 16.1984 35.331 17.4869C35.3178 18.1886 35.3112 19.6284 35.3178 20.6749C35.3244 22.5805 35.3244 22.5805 35.6607 23.0463C36.0893 23.6391 36.3795 23.7722 36.9334 23.621C37.1181 23.5665 37.4478 23.4939 37.6588 23.4576C38.0677 23.3851 38.1995 23.2701 38.2721 22.9253C38.2985 22.8164 38.338 22.7196 38.3644 22.7015C38.4303 22.6652 39.8481 23.2036 48.289 26.4823C53.5513 28.527 54.092 28.7388 54.1448 28.7811C54.1712 28.8053 54.2833 29.2772 54.3888 29.8277C54.4943 30.3842 54.613 30.8863 54.6459 30.9468C54.6789 31.0073 55.002 31.1706 55.3581 31.3098C56.499 31.7514 56.3341 31.7514 57.1188 31.3279C58.0223 30.8319 57.9893 30.8803 58.0816 30.0212C58.1278 29.622 58.1739 29.2772 58.1871 29.259C58.2069 29.2227 58.8004 28.9021 61.3788 27.5289C61.8602 27.2748 61.8734 27.2688 61.9723 27.3898C62.1438 27.5954 63.5286 28.0733 63.7528 28.0068C64.0166 27.9221 65.1112 27.2325 65.1574 27.1296C65.1772 27.0812 65.2167 26.688 65.2431 26.2585C65.2893 25.4781 65.2893 25.4781 65.5794 25.333C65.7377 25.2543 65.896 25.1454 65.9355 25.0849C65.9685 25.0244 66.041 23.3669 66.1004 21.4009C66.2323 17.2207 66.285 17.5958 65.4673 17.3659C65.2036 17.2933 64.9596 17.2086 64.9332 17.1844C64.9002 17.1542 64.9068 16.4827 64.9398 15.6842C65.0189 14.0327 65.0057 13.9359 64.7222 13.7786C64.5309 13.6697 64.5177 13.6395 64.5111 13.2765C64.4914 12.6716 64.1551 12.2421 63.522 12.0243C63.2648 11.9335 48.8165 8.16476 45.216 7.2513C44.3719 7.03352 43.8575 7.09401 43.3893 7.45698C43.02 7.7413 42.9277 8.01352 42.5057 9.98563C42.2815 11.0261 42.0902 11.8791 42.0836 11.8912C42.0441 11.9456 38.127 10.7237 38.0545 10.6329C38.0149 10.5785 37.6324 10.3304 37.217 10.0885C36.7949 9.84649 36.452 9.62871 36.452 9.60452C36.452 9.58637 36.5905 9.50772 36.7554 9.43513C37.5203 9.09032 38.0347 8.40068 38.0874 7.64451C38.1402 6.82784 37.7379 6.04142 37.3489 6.20475C37.1774 6.27129 37.1774 6.28339 37.1774 6.91253C37.1774 7.34204 37.1444 7.62031 37.0785 7.7655C36.9862 7.97723 36.8477 7.99537 36.8477 7.80179C36.8477 7.74735 36.762 7.56587 36.663 7.40253C36.2212 6.67056 35.5354 6.7371 35.8256 7.48117C35.9772 7.88044 35.9575 8.33414 35.7728 8.58217C35.6409 8.76365 35.0474 9.18106 34.9221 9.18106C34.8892 9.18106 34.8694 8.49143 34.8694 7.64451V6.10796L35.3178 6.06561C36.9334 5.93253 38.2061 5.49697 38.4238 5.01302C38.5029 4.84969 38.4765 4.76499 38.1402 4.02697C36.307 0.0041135 36.485 0.312633 35.8783 0.1372C35.3574 -0.00798521 33.4977 -0.050331 32.9174 0.070657ZM35.6541 0.590906C35.9509 0.693745 35.8388 0.74819 35.1002 0.838931C34.1638 0.95387 32.3965 0.802635 32.7196 0.639301C33.0625 0.463868 35.1859 0.427572 35.6541 0.590906ZM33.2406 1.31683C33.8802 1.41362 35.298 1.36523 35.7596 1.23214C36.2212 1.09906 36.2146 1.09301 36.4125 1.54066C36.5114 1.77054 36.8939 2.60536 37.2565 3.39783C38.0083 5.04327 38.0083 4.92228 37.25 5.18845C35.575 5.77524 32.5679 5.7329 31.071 5.10376C30.6292 4.91623 30.5962 4.84364 30.7809 4.44438C31.0051 3.94832 32.1723 1.35918 32.2382 1.21399C32.291 1.08696 32.3042 1.08696 32.5086 1.15955C32.6273 1.20794 32.957 1.28054 33.2406 1.31683ZM34.4276 6.18055C34.4803 6.30154 34.4869 9.44723 34.4341 9.62871C34.3814 9.82229 34.2033 9.88279 34.0978 9.7497C34.0319 9.66501 34.0121 9.2113 34.0121 7.86834C34.0121 6.09586 34.0121 6.09586 34.2033 6.09586C34.3089 6.09586 34.4078 6.13216 34.4276 6.18055ZM30.8666 6.93068C30.794 7.50537 31.1238 8.2918 31.5326 8.52167C31.8162 8.67896 31.836 8.67291 31.836 8.37649C31.836 8.03772 31.9942 7.55982 32.1723 7.36624C32.2844 7.24525 32.2976 7.2392 32.258 7.33599C31.9415 8.11636 32.1129 8.7334 32.7592 9.15686C33.3131 9.51982 33.6164 9.80415 33.6758 9.99168C33.7417 10.2276 33.7154 10.2699 33.4846 10.2699C33.3329 10.2699 33.2735 10.2216 33.1482 9.98563C33.0032 9.7255 32.9306 9.67106 32.2646 9.34439C31.104 8.77575 30.7083 8.31599 30.7083 7.51747C30.7083 7.17266 30.8138 6.64031 30.8798 6.64031C30.893 6.64031 30.893 6.77339 30.8666 6.93068ZM37.7247 7.39648C37.7511 8.2676 37.3357 8.7818 36.1223 9.36254C35.4892 9.67106 35.4167 9.71945 35.2716 9.98563C35.1463 10.2216 35.087 10.2699 34.9353 10.2699C34.4605 10.2699 34.7309 9.7255 35.3837 9.33229C36.2476 8.82414 36.5048 8.2797 36.2212 7.54772C36.1685 7.40253 36.1355 7.2755 36.1487 7.25735C36.2278 7.1908 36.5246 7.88648 36.5641 8.21315C36.6103 8.65476 36.6367 8.67291 36.9202 8.49747C37.2631 8.28575 37.5071 7.78969 37.5533 7.215C37.5995 6.65846 37.705 6.77339 37.7247 7.39648ZM25.1163 7.88648C25.3603 8.10426 25.4328 8.32809 25.7955 10.0219C26.5341 13.4398 26.6989 14.4561 26.5473 14.5953C26.5077 14.6376 25.967 14.7889 21.6806 16.0108C18.1988 16.9969 15.6072 17.7349 12.9101 18.5032C11.5121 18.9024 9.90303 19.3683 9.32931 19.5316C8.7556 19.6949 8.22805 19.828 8.15551 19.828C8.08957 19.828 7.43672 19.5558 6.71134 19.2231C5.42544 18.6302 5.39906 18.6181 5.33312 18.3943C5.2276 18.0313 5.08912 17.4566 4.59454 15.3817C4.0604 13.1192 4.01424 12.968 3.7109 12.6474C3.48669 12.4054 3.48669 12.3993 3.63176 12.363C4.10656 12.2421 10.8196 10.7116 15.4489 9.67106C18.423 8.99958 21.6278 8.2797 22.5708 8.06192C24.5228 7.62031 24.7932 7.60216 25.1163 7.88648ZM45.915 8.02562C46.5678 8.195 48.8363 8.7818 50.9597 9.33229C53.0831 9.88884 55.5296 10.524 56.4001 10.7479C63.0736 12.484 62.7834 12.3993 62.5658 12.5566C62.1767 12.8349 62.0514 13.2463 61.1414 17.1663C60.7919 18.6726 60.9832 18.4487 59.4928 19.1021L58.2069 19.6707L57.2046 19.3501C55.279 18.7331 49.7199 16.9727 47.3657 16.2286C41.7407 14.4622 42.354 14.686 42.3342 14.4138C42.3013 14.1053 42.3672 13.7302 42.9211 11.0564C43.4619 8.41278 43.5278 8.17686 43.7586 7.94698C44.1213 7.59611 44.2466 7.60216 45.915 8.02562ZM36.7554 10.2639C37.3621 10.6208 37.5335 10.5664 35.1661 10.7902C34.2627 10.8749 33.3131 10.9656 33.0625 10.9959C32.6075 11.0443 32.6075 11.0443 32.0536 10.7055C31.4205 10.3183 31.4205 10.3123 32.2646 10.2458C32.7987 10.2034 32.7987 10.2034 32.8911 10.403C33.1087 10.8507 34.144 10.6813 34.144 10.1974C34.144 10.0219 34.2561 10.0703 34.2957 10.2699C34.4144 10.7962 35.4365 10.7902 35.5618 10.2579C35.6541 9.87674 36.0959 9.87674 36.7554 10.2639ZM31.9547 11.1048C32.3503 11.3588 32.3635 11.3709 32.3635 11.6311C32.3635 11.9033 32.3635 11.9033 31.737 11.5282C31.348 11.2862 31.1238 11.1169 31.1435 11.0685C31.1633 11.0201 31.1765 10.9051 31.1765 10.8083C31.1765 10.6087 31.1501 10.5966 31.9547 11.1048ZM37.7709 11.2076C37.7709 11.377 37.7379 11.4919 37.6918 11.5101C37.6456 11.5282 36.6433 11.6311 35.4629 11.7521C34.2825 11.867 33.2076 11.9819 33.0757 12.0001C32.8251 12.0364 32.8251 12.0364 32.8251 11.7279C32.8251 11.3588 32.5547 11.4254 35.331 11.1532C38.0545 10.887 37.7709 10.8809 37.7709 11.2076ZM40.0723 11.8428C40.989 12.115 41.7275 12.3449 41.7144 12.363C41.6946 12.3751 41.1934 12.5506 40.5999 12.7563C36.8081 14.0387 35.4958 14.4743 35.0145 14.6316C34.388 14.8251 34.876 14.9522 30.3192 13.3975C29.1059 12.9861 27.9255 12.5808 27.6947 12.5082C27.4705 12.4296 27.2924 12.363 27.3056 12.3509C27.332 12.3267 30.1544 11.4798 30.2137 11.4798C30.2797 11.4798 30.2599 11.9517 30.1874 11.994C29.9763 12.115 30.1412 12.3146 30.9589 12.9196C31.6645 13.4398 31.8294 13.5366 32.0272 13.5366C32.7921 13.5366 38.2787 13.089 38.4106 13.0164C38.7601 12.8167 38.7733 12.0545 38.4238 11.6976C38.2259 11.4859 38.16 11.2621 38.3182 11.3165C38.3644 11.3346 39.1557 11.5706 40.0723 11.8428ZM31.5524 12.3025C31.77 12.4901 31.836 12.5929 31.836 12.7381C31.836 13.0285 31.77 13.0103 31.1897 12.5929C30.6556 12.1997 30.649 12.1937 30.649 11.9275C30.649 11.6553 30.649 11.6553 30.9589 11.8549C31.1304 11.9638 31.3941 12.1634 31.5524 12.3025ZM38.1929 12.1211C38.2523 12.2542 38.2391 12.5264 38.1732 12.6171C38.1402 12.6716 37.8566 12.72 37.3357 12.7563C36.9004 12.7926 35.6739 12.8833 34.599 12.9619C31.981 13.1616 32.2316 13.1797 32.2316 12.7926C32.2316 12.4235 31.8228 12.4961 35.8256 12.1755C38.0017 12.0001 38.1402 12.0001 38.1929 12.1211ZM3.13718 12.8288C3.21632 12.8651 3.3482 12.9801 3.41415 13.089C3.51966 13.2402 4.21207 15.9564 4.71324 18.1523C4.75281 18.3278 4.75281 18.3278 4.02083 17.989C3.29545 17.6563 3.29545 17.6563 3.09102 16.8759C2.65579 15.1942 2.2931 13.5729 2.2931 13.3188C2.2931 12.7684 2.60304 12.5929 3.13718 12.8288ZM63.799 12.9135C63.8781 13.0224 63.8913 13.1495 63.8649 13.4338C63.8385 13.7242 63.2186 16.3496 62.9219 17.4324C62.8889 17.5655 62.7504 17.6563 62.1635 17.9285C61.7679 18.11 61.4448 18.237 61.4448 18.2128C61.4448 18.0132 62.612 13.337 62.6977 13.1676C62.9549 12.7018 63.5484 12.5627 63.799 12.9135ZM29.0333 13.464C30.0159 13.7968 31.5722 14.3291 32.4954 14.6437C34.177 15.2123 34.177 15.2123 34.1967 15.5208C34.2165 15.8294 34.2165 15.8294 33.8011 15.6842C33.5703 15.6055 31.981 15.055 30.2665 14.4622C27.5496 13.5245 27.1473 13.3672 27.121 13.2463C27.1012 13.1737 27.0748 13.0406 27.0484 12.9559C27.0089 12.7563 26.811 12.7079 29.0333 13.464ZM41.8528 13.095C41.8199 13.2463 41.7869 13.3854 41.7737 13.3914C41.7473 13.4156 37.0126 15.0611 35.12 15.7023C34.7375 15.8354 34.7375 15.8354 34.7375 15.539C34.7375 15.2063 34.3154 15.3877 38.3644 14.0145C39.7822 13.5366 41.8858 12.8167 41.899 12.8167C41.9056 12.8107 41.8792 12.9377 41.8528 13.095ZM29.007 14.5711C29.9632 14.9038 31.2688 15.3575 31.9019 15.5692C32.535 15.787 33.0823 15.9866 33.1087 16.0108C33.1351 16.0411 33.1548 16.2407 33.1416 16.4645C33.1219 16.8638 33.1219 16.8638 32.8911 16.7126C32.5811 16.5069 28.73 15.0671 27.5694 14.7223C27.2199 14.6134 27.2199 14.6134 27.2199 14.2868C27.2199 14.1053 27.2265 13.9601 27.2397 13.9601C27.2529 13.9601 28.0442 14.2323 29.007 14.5711ZM41.7012 14.3351C41.6946 14.6255 41.6814 14.6497 41.4967 14.7042C40.435 15.0127 36.4718 16.4948 36.1091 16.7126C35.9706 16.7973 35.8453 16.8638 35.8256 16.8638C35.753 16.8638 35.7926 16.0895 35.8783 16.029C35.9179 15.9927 37.0389 15.5934 38.3644 15.1397C39.6899 14.686 40.9494 14.2505 41.167 14.1718C41.7078 13.9722 41.7078 13.9722 41.7012 14.3351ZM2.19419 15.7931C2.39202 16.5855 2.55688 17.251 2.55688 17.2812C2.55688 17.3115 2.44477 17.2812 2.31289 17.2207C2.1744 17.1602 2.02933 17.1058 1.98976 17.1058C1.93701 17.1058 1.89744 16.7973 1.87106 16.0592C1.84468 15.4906 1.81171 14.8554 1.79193 14.6558C1.72599 14.0508 1.81171 14.2928 2.19419 15.7931ZM64.3661 14.7889C64.3595 15.049 64.3265 15.66 64.3067 16.1439C64.2672 17.0271 64.2672 17.0271 63.944 17.1542C63.766 17.2207 63.6209 17.257 63.6209 17.2328C63.6209 17.1844 64.0298 15.545 64.1748 14.9885C64.2276 14.807 64.2869 14.5832 64.3067 14.4864C64.3727 14.2142 64.3924 14.2989 64.3661 14.7889ZM28.3739 15.6116C31.3216 16.6339 32.7064 17.1844 32.5811 17.2873C32.535 17.3236 31.0446 17.8257 26.1978 19.4408C25.4724 19.6768 23.4413 20.3604 21.6806 20.9471C19.9199 21.5339 18.0801 22.151 17.5921 22.3083C17.1041 22.4716 15.7061 22.9313 14.4927 23.3367C11.3406 24.3893 11.1955 24.4316 11.123 24.3953C11.09 24.3711 11.0636 23.8085 11.0636 23.0765C11.057 21.1831 11.0966 21.2496 9.8107 20.6689C9.3425 20.4571 8.95343 20.2696 8.95343 20.2515C8.95343 20.2333 9.56671 20.0458 10.3251 19.8341C11.0768 19.6223 12.8177 19.1263 14.196 18.727C15.5742 18.3338 18.2911 17.5595 20.2298 17.0029C22.1686 16.4524 24.3975 15.8173 25.1756 15.5874C26.91 15.0853 26.8572 15.0853 28.3739 15.6116ZM46.4755 16.5311C48.744 17.2449 51.5466 18.1281 52.7072 18.4971C53.8678 18.8662 55.3911 19.3501 56.0901 19.5739C56.7825 19.7978 57.3562 19.9913 57.3562 20.0095C57.3562 20.0276 56.9012 20.2454 56.3539 20.4934C55.0416 21.0802 55.1141 20.9592 55.1141 22.6531C55.1141 23.7843 55.101 23.9416 55.0086 23.9416C54.9559 23.9416 54.2898 23.7238 53.5447 23.4516C52.0478 22.9132 51.6719 22.7801 41.2989 19.0718C40.0658 18.6302 38.5095 18.0737 37.8369 17.8378C36.1223 17.2268 36.2674 17.2933 36.4059 17.1965C36.4718 17.1542 37.2434 16.8517 38.1204 16.5311C41.0681 15.4422 41.9386 15.1579 42.1891 15.2063C42.2815 15.2244 44.207 15.8173 46.4755 16.5311ZM65.0915 17.8559C65.0783 17.874 63.2846 18.7149 61.1084 19.7191C57.1386 21.54 57.1386 21.54 56.6902 21.4069C56.4396 21.3343 56.2352 21.2496 56.2352 21.2254C56.2352 21.1952 58.0486 20.3725 60.2644 19.3864C64.2935 17.6018 64.2935 17.6018 64.7024 17.7107C64.92 17.7652 65.098 17.8317 65.0915 17.8559ZM5.3463 19.2291C7.23889 20.1002 9.06554 20.9471 9.40845 21.1165L10.0217 21.419L9.60628 21.5642C9.07213 21.7517 9.05235 21.7457 7.86536 21.171C7.00809 20.7596 5.0034 19.8038 1.86447 18.3096C1.36329 18.0676 1.04676 17.8861 1.10611 17.868C1.18525 17.8438 1.81831 17.6684 1.88425 17.6563C1.89085 17.6502 3.45371 18.364 5.3463 19.2291ZM32.99 18.358C32.99 19.1202 32.9768 19.1384 32.0404 19.4711C30.5764 19.9913 13.2925 25.9379 12.1121 26.3251C11.8286 26.4219 11.5187 26.4823 11.3868 26.4702C11.1691 26.4521 11.1626 26.44 11.1098 26.1194C11.0834 25.9379 11.0702 25.581 11.0768 25.333C11.0966 24.8793 11.0966 24.8793 11.3604 24.843C11.5055 24.8248 12.0858 24.6554 12.6463 24.4679C14.9148 23.7238 32.1525 17.9587 32.4624 17.8438C32.9834 17.6502 32.99 17.6563 32.99 18.358ZM39.7756 19.0355C41.8067 19.7675 44.7082 20.802 46.2117 21.3404C47.7152 21.8788 50.0497 22.7136 51.3883 23.1975C54.3822 24.2743 54.824 24.4256 54.9954 24.4256C55.1207 24.4256 55.1273 24.4497 55.0812 25.1938C55.0548 25.6233 55.0218 25.9802 55.0086 25.9923C54.8965 26.1012 54.1909 25.8774 51.6455 24.9398C50.0563 24.3469 47.0624 23.2399 44.9918 22.4776C37.9885 19.8885 36.2212 19.217 36.0893 19.096C35.8981 18.9266 35.8519 17.7107 36.0366 17.7107C36.0564 17.7107 37.7379 18.3096 39.7756 19.0355ZM65.5794 18.7149C65.5662 18.9327 65.5399 19.1142 65.5267 19.1263C65.5135 19.1384 64.8343 19.465 64.0166 19.8583C62.3614 20.6568 62.0383 20.8322 62.0383 20.9169C62.0383 21.056 62.3482 20.9411 63.9045 20.2273C65.5333 19.4771 65.5333 19.4771 65.5333 19.8341C65.5333 20.1849 65.5333 20.1849 64.5639 20.6507C64.0232 20.9048 62.9483 21.425 62.1701 21.7941C60.0204 22.8285 57.4222 24.0626 57.4024 24.0626C57.3958 24.0626 57.3958 23.8569 57.409 23.6089C57.4354 23.1491 57.4354 23.1491 57.9695 22.9072C58.774 22.5381 59.4005 22.1933 59.4005 22.1147C59.4005 22.0118 59.0972 22.1086 58.2267 22.4897L57.4156 22.8467L57.4354 22.4413C57.4552 22.036 57.4552 22.036 61.4777 20.1789C63.6934 19.1565 65.5267 18.3217 65.5597 18.3217C65.5926 18.3157 65.5992 18.4971 65.5794 18.7149ZM2.84703 19.3985C4.00764 19.9611 5.74856 20.7959 6.71134 21.2496C8.97322 22.3264 8.7556 22.1812 8.7556 22.6531C8.7556 23.0463 8.7556 23.0463 8.58415 22.9495C7.77963 22.4595 6.03871 21.8001 6.57945 22.1873C6.67178 22.2478 7.19933 22.5442 7.75326 22.8346C8.7556 23.3609 8.7556 23.3609 8.7556 23.8388C8.7556 24.3167 8.7556 24.3167 8.47864 24.1654C7.9379 23.8811 1.46221 20.6265 0.987414 20.4087C0.644506 20.2515 0.644506 20.2515 0.644506 19.8825V19.5195L1.38967 19.8885C2.67558 20.5297 4.19888 21.2194 4.31758 21.2194C4.59454 21.2133 3.41415 20.5358 1.41605 19.5558C1.02039 19.3682 0.690666 19.1807 0.677478 19.1384C0.604939 18.9145 0.585156 18.3761 0.6511 18.3761C0.690666 18.3761 1.67982 18.8359 2.84703 19.3985ZM42.4859 22.157C46.9173 23.7904 49.0473 24.5828 50.8278 25.2483C51.6059 25.5386 52.8721 25.9984 53.6304 26.2767C55.0152 26.7788 55.0152 26.7788 55.035 27.1175C55.0482 27.3051 55.0284 27.4442 54.9954 27.4261C54.9493 27.4019 51.3092 26.0286 46.7063 24.3046C44.4774 23.4697 42.9145 22.8769 41.3319 22.278C40.4812 21.9513 39.0238 21.4069 38.1006 21.056C37.1774 20.7112 36.307 20.3846 36.1751 20.3301C35.9377 20.2454 35.9245 20.2212 35.9245 19.9792C35.9245 19.7191 35.9245 19.7191 37.461 20.2938C38.2985 20.6084 40.5669 21.4432 42.4859 22.157ZM33.0229 19.9006C33.0164 20.3241 33.2538 20.2091 30.3522 21.2194C29.5213 21.5097 27.1276 22.3446 25.0437 23.0826C21.3509 24.3772 18.845 25.2543 16.9656 25.9077C15.5478 26.4037 11.3736 27.8556 11.2483 27.904C11.1428 27.9403 11.1296 27.904 11.1296 27.5894C11.1296 27.2325 11.1296 27.2325 11.4329 27.1599C11.6769 27.0994 19.9001 24.2925 21.3179 23.7843C21.5355 23.7057 24.0876 22.8285 26.9891 21.8304C29.8906 20.8383 32.4163 19.9671 32.5943 19.9006C33.0164 19.7433 33.0229 19.7433 33.0229 19.9006ZM36.3663 20.7415C36.5378 20.8141 37.395 21.1347 38.2655 21.4613C39.1359 21.788 40.7977 22.4111 41.9583 22.8527C43.119 23.2883 44.6027 23.8448 45.2555 24.0868C45.9084 24.3348 47.5438 24.9458 48.8825 25.454C50.2277 25.9561 52.1599 26.688 53.1886 27.0752C55.0482 27.7769 55.0482 27.7769 55.0482 28.1278C55.0482 28.4666 55.0416 28.4726 54.9031 28.4242C54.8174 28.394 54.0525 28.0975 53.2018 27.7648C49.687 26.3977 36.7817 21.4009 36.208 21.1891C35.9443 21.0923 35.9245 21.0681 35.9245 20.8504C35.9245 20.5781 35.9377 20.5721 36.3663 20.7415ZM1.31713 20.9834C1.65345 21.1589 2.59644 21.6307 3.41415 22.036C6.25633 23.4516 8.32697 24.4981 8.57755 24.6433C8.82155 24.7885 8.82155 24.7885 8.82155 25.3027C8.82155 25.587 8.80836 25.8169 8.78857 25.8169C8.76879 25.8169 8.34016 25.6052 7.84558 25.339C5.43863 24.0747 4.27142 23.5363 4.27142 23.6875C4.27142 23.7722 5.02977 24.2017 7.06084 25.2725C8.82155 26.2041 8.82155 26.2041 8.82155 26.5852C8.82155 26.9663 8.82155 26.9723 8.67647 26.8998C8.59074 26.8574 7.14657 26.0891 5.45841 25.1938C3.77025 24.2925 2.02273 23.3609 1.56772 23.1189L0.743422 22.6833L0.71045 21.6791C0.690666 21.1286 0.684072 20.6749 0.690666 20.6749C0.703855 20.6749 0.987414 20.8141 1.31713 20.9834ZM65.4673 21.6065C65.4673 22.7015 65.6124 22.52 64.2144 23.2157C63.7264 23.4576 62.9417 23.8569 62.4669 24.0928C61.9987 24.3348 60.6732 25.0002 59.5324 25.5749C58.3916 26.1496 57.4354 26.6336 57.409 26.6457C57.376 26.6578 57.3562 26.4944 57.3562 26.2767C57.3562 25.8895 57.3562 25.8895 58.2992 25.4237C60.4556 24.353 61.3722 23.8509 61.2931 23.7843C61.2074 23.7057 59.0444 24.6615 57.6332 25.3995C57.5145 25.46 57.4024 25.5144 57.3826 25.5144C57.3694 25.5144 57.3562 25.2846 57.3562 25.0123C57.3562 24.5042 57.3562 24.5042 60.2116 23.1491C61.7745 22.4051 63.5813 21.546 64.2144 21.2375C64.8475 20.929 65.3882 20.681 65.4212 20.6749C65.4476 20.6749 65.4673 21.0923 65.4673 21.6065ZM36.3399 21.8546C36.7092 21.9997 36.7092 21.9997 36.6696 22.5623C36.6499 22.8709 36.6235 23.137 36.6103 23.1491C36.5839 23.1794 36.0696 22.9797 35.9443 22.8951C35.8453 22.8285 35.819 21.7033 35.9179 21.7033C35.9509 21.7033 36.1421 21.7699 36.3399 21.8546ZM56.3407 21.8727C56.7957 22.0481 56.7957 22.0481 56.7693 23.373C56.6902 27.8556 56.6572 29.017 56.6177 29.0533C56.5979 29.0715 56.3737 29.017 56.1231 28.9203L55.6747 28.7448L55.6945 25.4237C55.7142 22.1933 55.734 21.7033 55.8395 21.7033C55.8659 21.7033 56.0901 21.782 56.3407 21.8727ZM10.4767 26.1799L10.5031 29.2288L10.0415 29.3921C9.79092 29.4829 9.56012 29.5433 9.54033 29.5191C9.48758 29.4647 9.33591 22.3022 9.38866 22.2538C9.40845 22.2357 9.63925 22.1449 9.89643 22.0602C10.3712 21.8969 10.3712 21.8969 10.4108 22.5139C10.4306 22.8467 10.4635 24.4981 10.4767 26.1799ZM31.7041 22.6712C31.7041 23.137 31.6975 23.1431 31.3941 22.9737C30.9919 22.7499 31.1567 22.3022 31.6579 22.2538C31.6843 22.2478 31.7041 22.4353 31.7041 22.6712ZM37.5731 22.3385C37.883 22.4897 37.8171 22.8709 37.461 23.0039C37.3291 23.0523 37.217 23.0947 37.2038 23.0947C37.1642 23.0947 37.1774 22.7257 37.217 22.4716C37.2631 22.2236 37.2961 22.2054 37.5731 22.3385ZM65.4014 23.4455C65.4014 23.8569 65.4014 23.8569 65.1574 23.9658C64.8079 24.117 64.0166 24.607 64.0166 24.6675C64.0166 24.7462 64.3265 24.6494 64.8541 24.4014C65.1178 24.2804 65.3486 24.1836 65.3684 24.1836C65.441 24.1836 65.3948 24.7159 65.3223 24.7764C65.2299 24.843 64.5903 25.1757 60.4556 27.3595C58.9851 28.1338 57.6728 28.8235 57.5409 28.9021C57.2903 29.0352 57.2903 29.0352 57.2903 28.6178C57.2969 28.2064 57.2969 28.2064 59.1103 27.2688C60.9502 26.313 61.3129 26.1012 61.2337 26.0286C61.1612 25.9621 59.262 26.8332 57.7981 27.6075C57.3167 27.8677 57.2903 27.8616 57.2903 27.5833C57.2903 27.1417 57.3167 27.1236 58.3388 26.6094C58.8664 26.3372 60.6666 25.4298 62.335 24.5828C64.0034 23.7359 65.375 23.0402 65.3882 23.0402C65.3948 23.0342 65.4014 23.2217 65.4014 23.4455ZM2.47115 24.0263C4.49563 25.097 8.78198 27.3958 8.80836 27.42C8.85452 27.4624 8.90727 28.1762 8.86111 28.1762C8.84133 28.1762 8.70944 28.1096 8.57096 28.037C8.03022 27.7225 5.9332 26.6336 5.60349 26.4944C5.26058 26.3553 5.13528 26.3493 5.22101 26.4763C5.27377 26.5489 7.07403 27.5833 8.18189 28.1701C8.88749 28.5512 8.88749 28.5512 8.88749 28.9687C8.88749 29.38 8.88749 29.3861 8.74241 29.3195C8.61053 29.253 6.44097 28.037 3.54604 26.4037C2.84044 26.0044 1.9436 25.5023 1.56113 25.2906C0.855526 24.9035 0.855526 24.9035 0.81596 24.5949C0.789582 24.4256 0.782988 24.2804 0.796177 24.2622C0.81596 24.2501 1.13249 24.4014 1.50837 24.5949C2.22056 24.97 2.49093 25.0789 2.49093 24.9821C2.49093 24.9035 1.8249 24.4618 1.26438 24.1715C0.776394 23.9174 0.776393 23.9174 0.776393 23.5363C0.776393 23.3246 0.789582 23.1552 0.802771 23.1552C0.822554 23.1552 1.56772 23.5484 2.47115 24.0263ZM64.6364 26.313C64.5903 26.8635 64.5441 26.9361 64.1485 27.1417C63.8781 27.2809 63.8781 27.2809 63.8979 26.7485C63.9177 26.2162 63.9177 26.2162 64.2803 26.0226C64.4782 25.9137 64.6496 25.823 64.6628 25.8169C64.676 25.8169 64.6628 26.0407 64.6364 26.313ZM1.95679 26.192C2.28651 26.3916 2.28651 26.3916 2.30629 26.924C2.31948 27.2143 2.31948 27.4503 2.30629 27.4503C2.2931 27.4503 1.80512 27.1659 1.67982 27.0812C1.60069 27.0328 1.51496 25.9984 1.58091 25.9984C1.61388 25.9984 1.77874 26.0891 1.95679 26.192ZM63.2714 27.3111C63.2516 27.3232 63.067 27.2627 62.856 27.178L62.4735 27.0207L62.8626 26.7848C63.2582 26.5428 63.2582 26.5428 63.278 26.9119C63.2912 27.1175 63.2846 27.293 63.2714 27.3111ZM3.65814 27.2264C3.64495 27.2748 3.05146 27.5107 2.93935 27.5107C2.90638 27.5107 2.8866 27.3353 2.8866 27.1175C2.8866 26.7304 2.8866 26.7304 3.28226 26.9482C3.50647 27.0691 3.67133 27.1901 3.65814 27.2264ZM55.5955 29.3377C56.1033 29.5312 56.1033 29.5312 56.1033 30.2511C56.1033 31.0678 56.1561 31.0254 55.4768 30.7472C55.1471 30.6141 55.1471 30.6141 55.0218 29.9245C54.9559 29.5433 54.8833 29.1985 54.8636 29.1501C54.824 29.0533 54.8042 29.0473 55.5955 29.3377ZM11.1823 30.3661C11.0504 31.1283 11.0504 31.1283 10.5625 31.3158L10.0745 31.4973V30.7532C10.0745 30.0091 10.0745 30.0092 10.6878 29.7974C11.0175 29.6825 11.301 29.5857 11.301 29.5917C11.3076 29.5917 11.2549 29.9426 11.1823 30.3661ZM57.4881 29.7611C57.4881 30.3661 57.4222 30.5113 57.0595 30.7048C56.8683 30.8137 56.6902 30.8984 56.6704 30.8984C56.6506 30.8984 56.6309 30.6383 56.6309 30.3237C56.6309 29.749 56.6309 29.749 56.9144 29.749C57.0661 29.749 57.2375 29.7188 57.2903 29.6885C57.442 29.5978 57.4881 29.6159 57.4881 29.7611ZM9.03257 30.1483C9.14467 30.2027 9.28315 30.233 9.3491 30.2148C9.47439 30.1846 9.54693 30.4992 9.54693 31.092C9.54693 31.4368 9.56671 31.4368 9.12489 31.1646C8.78857 30.965 8.76879 30.9347 8.72922 30.6383C8.65009 30.0031 8.66988 29.9729 9.03257 30.1483Z" fill="#4E332D"/>
<path d="M15.073 10.7357C13.8597 11.02 13.3717 11.1531 13.3717 11.2136C13.3717 11.262 13.5497 11.4012 13.7607 11.5282C13.9784 11.6492 14.2092 11.7823 14.2751 11.8246C14.4202 11.9093 14.4532 11.8972 13.3915 12.1513C12.8639 12.2723 12.5803 12.3691 12.5803 12.4235C12.5803 12.4658 12.798 12.6171 13.0617 12.7562C13.3189 12.8954 13.5497 13.0224 13.5629 13.0284C13.6289 13.0829 13.4772 13.1313 12.8639 13.2704C12.5078 13.3551 12.1056 13.4519 11.9737 13.4821C11.6044 13.5668 11.6637 13.6757 12.2243 13.9601C12.5012 14.0992 12.7122 14.2262 12.6925 14.2383C12.6793 14.2504 12.066 14.4138 11.334 14.6013L9.99535 14.934L9.26997 14.5226C8.69625 14.2081 8.5248 14.1355 8.43907 14.1839C8.25443 14.2867 7.37078 15.7265 7.39057 15.8898C7.40375 16.0592 8.8743 16.9182 9.15127 16.9243C9.28975 16.9243 9.37548 16.8275 9.73157 16.2588C9.96238 15.8959 10.18 15.5813 10.2064 15.5631C10.2921 15.5147 12.8639 14.8614 12.8837 14.8856C12.8969 14.8917 12.765 15.0973 12.6001 15.3454C12.1913 15.9443 12.2308 15.9624 13.3123 15.6962C13.7937 15.5752 14.2026 15.4905 14.2158 15.5026C14.2355 15.5208 14.1102 15.7386 13.9388 15.9927C13.7476 16.277 13.6486 16.4766 13.6882 16.5129C13.7278 16.5492 14.0773 16.4887 14.5982 16.3556C15.0664 16.2407 15.4555 16.156 15.4687 16.1681C15.4819 16.1741 15.3566 16.3859 15.1917 16.6278C14.8686 17.0997 14.829 17.2267 14.9873 17.2267C15.1192 17.2267 18.113 16.4464 18.2713 16.3677C18.4362 16.2891 18.3438 16.1983 17.8163 15.914C17.5855 15.793 17.414 15.672 17.447 15.6539C17.4734 15.6297 17.8229 15.5389 18.2185 15.4422C18.8978 15.2849 19.1088 15.2062 19.1088 15.1155C19.1088 15.0973 18.8978 14.9582 18.6406 14.813C18.3834 14.6678 18.1988 14.5287 18.2317 14.5045C18.2581 14.4803 18.5944 14.3896 18.9769 14.2928C20.0716 14.0326 20.0914 14.0084 19.4649 13.6515C19.1681 13.4761 19.056 13.3854 19.1154 13.3551C19.2011 13.3128 21.0739 12.8288 21.3904 12.7683C21.4828 12.7502 21.7268 12.8712 22.1422 13.1434C22.4851 13.3612 22.8016 13.5305 22.861 13.5245C22.9533 13.5063 23.7051 12.4235 23.8633 12.0726C23.9755 11.8186 23.9227 11.7641 23.0984 11.256C22.1884 10.7055 22.2411 10.6934 21.7795 11.4677C21.5949 11.7762 21.4102 12.0545 21.3707 12.0908C21.3113 12.1452 18.8978 12.7562 18.8648 12.726C18.8582 12.7199 18.9835 12.5142 19.1418 12.2662C19.3132 12 19.4121 11.7944 19.3726 11.7581C19.3396 11.7278 18.9769 11.7823 18.4889 11.8972C18.0273 12.0061 17.6316 12.0847 17.5921 12.0726C17.5591 12.0605 17.658 11.8609 17.8229 11.631C18.2779 10.9716 18.2713 10.9656 17.1634 11.2378C16.2073 11.4737 16.2336 11.4858 16.57 10.9716C16.8469 10.5603 16.9392 10.3244 16.8205 10.3365C16.7876 10.3365 16.0028 10.5179 15.073 10.7357ZM22.6698 11.6431C23.2962 12.0242 23.283 11.9879 23.0193 12.3872C22.7225 12.847 22.7555 12.8349 22.373 12.6171C21.885 12.3449 21.8916 12.3691 22.1488 11.9335C22.3928 11.51 22.4258 11.4919 22.6698 11.6431ZM16.8535 12.5263C17.8031 13.0284 18.1196 13.2281 18.0998 13.3007C18.0735 13.3914 16.7084 15.418 16.4974 15.6841C16.3985 15.8051 16.3919 15.7991 15.9896 15.6115C14.9609 15.1155 13.6684 14.3896 13.675 14.3049C13.6816 14.2262 14.862 12.4477 15.2379 11.9456C15.3962 11.7339 15.2972 11.6976 16.8535 12.5263ZM9.11829 15.1155C9.35569 15.2486 9.54693 15.3756 9.54693 15.3938C9.54693 15.424 9.09851 16.1923 9.04576 16.2528C9.03257 16.2709 8.5248 15.9987 8.1753 15.787C8.09616 15.7386 8.56437 14.8675 8.66328 14.8675C8.68306 14.8675 8.88749 14.9764 9.11829 15.1155Z" fill="#4E332D"/>
<path d="M15.3302 12.9438C14.6774 13.8875 14.5521 14.0811 14.585 14.1355C14.6906 14.2867 16.1479 14.9945 16.2336 14.934C16.326 14.8614 17.0975 13.7483 17.1634 13.5911C17.1898 13.5185 17.1371 13.4398 16.9854 13.337C16.715 13.1495 15.7061 12.6292 15.6204 12.6292C15.5808 12.6292 15.4555 12.7744 15.3302 12.9438ZM16.1809 13.4217C16.6029 13.6395 16.5897 13.5911 16.3326 13.9964C16.049 14.4561 16.0754 14.4501 15.4687 14.0992C15.2181 13.9601 15.2181 13.9601 15.4687 13.5971C15.7523 13.1737 15.7259 13.1797 16.1809 13.4217Z" fill="#4E332D"/>
<path d="M50.6959 10.3425C50.6959 10.3848 50.8278 10.6268 50.9926 10.8748C51.1509 11.1229 51.2762 11.3346 51.263 11.3467C51.2498 11.3527 50.8937 11.2681 50.4717 11.1471C50.0431 11.0321 49.6738 10.9353 49.6342 10.9353C49.5089 10.9353 49.5815 11.135 49.8452 11.5463C49.9969 11.7762 50.109 11.9819 50.0892 11.994C50.076 12.0061 49.7001 11.9214 49.2583 11.8004C48.8165 11.6794 48.434 11.6008 48.4076 11.625C48.3813 11.6492 48.4736 11.8669 48.6055 12.115C48.8759 12.6231 48.8693 12.6292 48.2824 12.4537C48.0713 12.3872 47.5899 12.2541 47.2207 12.1513C46.548 11.9637 46.548 11.9637 46.1787 11.3285C45.9282 10.899 45.7699 10.6934 45.6908 10.6934C45.5589 10.6934 44.2993 11.4919 44.2136 11.631C44.1741 11.6976 44.2136 11.8306 44.3521 12.0726C44.7939 12.8409 45.0775 13.2644 45.1764 13.2825C45.2358 13.2946 45.5457 13.1373 45.8622 12.9316L46.4425 12.5626L47.5833 12.8832C48.2032 13.0587 48.7176 13.222 48.7176 13.2402C48.7176 13.2583 48.5395 13.3793 48.3219 13.5003C48.1043 13.6273 47.9263 13.7604 47.9263 13.8088C47.9263 13.8572 48.2098 13.9721 48.6714 14.1113C49.0737 14.2383 49.4364 14.3593 49.4628 14.3835C49.4891 14.4077 49.3177 14.5408 49.0803 14.6799C48.8363 14.8191 48.6516 14.9642 48.6648 15.0066C48.678 15.0429 49.0407 15.182 49.4628 15.3091C49.8914 15.4361 50.2211 15.5631 50.2013 15.5934C50.1815 15.6176 49.9969 15.7325 49.7859 15.8354C49.4034 16.035 49.2979 16.1257 49.3506 16.2044C49.3836 16.2588 52.3709 17.1662 52.516 17.1662C52.6478 17.1662 52.6017 17.0271 52.2786 16.5129C52.1401 16.2891 52.0478 16.1015 52.0741 16.0894C52.1005 16.0834 52.4236 16.1741 52.8061 16.2891C53.4721 16.4947 53.7953 16.5492 53.7953 16.4524C53.7953 16.4282 53.6634 16.1923 53.4985 15.9321C53.3337 15.672 53.2084 15.4482 53.2216 15.4361C53.2281 15.424 53.6238 15.5268 54.092 15.6539C54.613 15.7991 54.9691 15.8716 55.0086 15.8354C55.0416 15.8051 54.9625 15.6176 54.791 15.3514C54.6328 15.1155 54.5206 14.9037 54.5404 14.8916C54.5734 14.8614 56.7166 15.4482 56.9078 15.5389C56.9672 15.5692 57.1716 15.8475 57.3562 16.162C57.8772 17.0513 57.864 17.0392 58.2531 16.8335C59.0444 16.41 59.6643 16.0108 59.6643 15.9261C59.6643 15.8354 58.8663 14.4319 58.7279 14.2746C58.6026 14.1355 58.3916 14.202 57.7783 14.565L57.165 14.9279L55.9121 14.5831C55.2197 14.3895 54.6525 14.2202 54.6525 14.202C54.6525 14.1839 54.8636 14.0629 55.1141 13.9298C55.7472 13.6092 55.7142 13.5608 54.7515 13.2886C54.3162 13.1736 53.9206 13.0587 53.8678 13.0466C53.8085 13.0284 53.9799 12.9074 54.2767 12.7441C54.5932 12.5808 54.7778 12.4416 54.7646 12.3872C54.758 12.3327 54.4613 12.2178 53.9337 12.0726C53.4853 11.9516 53.1095 11.8427 53.0963 11.8306C53.0831 11.8186 53.2941 11.6855 53.5711 11.5403C53.8744 11.3709 54.0524 11.2378 54.0459 11.1773C54.0327 11.1168 53.5381 10.9595 52.4764 10.6813C50.841 10.2518 50.6959 10.2276 50.6959 10.3425ZM45.8161 11.7218C46.0732 12.1815 46.0732 12.1634 45.671 12.4174C45.2753 12.6594 45.2819 12.6655 44.9786 12.121C44.8203 11.8306 44.8203 11.8306 44.9654 11.7278C45.0511 11.6734 45.2094 11.5705 45.3215 11.4979C45.5918 11.3164 45.5918 11.3164 45.8161 11.7218ZM52.971 12.9679C53.4062 13.6515 53.7689 14.2323 53.7821 14.2625C53.8019 14.3109 52.5555 15.0126 51.6059 15.4966C51.1641 15.7204 51.1641 15.7204 50.7421 15.0671C49.9837 13.8874 49.5617 13.1797 49.588 13.1131C49.6144 13.0466 52.0148 11.7218 52.1137 11.7218C52.1533 11.7218 52.5357 12.2844 52.971 12.9679ZM58.6949 15.3212C58.9389 15.7749 58.9389 15.7749 58.5762 15.9866C58.3784 16.1076 58.1739 16.2165 58.1278 16.2286C58.0618 16.2528 57.6662 15.6599 57.6068 15.43C57.587 15.3635 58.3058 14.8674 58.4113 14.8674C58.4311 14.8674 58.5564 15.0731 58.6949 15.3212Z" fill="#4E332D"/>
<path d="M51.1773 12.9135C50.7685 13.1373 50.4321 13.3491 50.4321 13.3854C50.4321 13.4942 51.2498 14.7646 51.362 14.8251C51.4872 14.8977 52.8721 14.1657 52.8721 14.0326C52.8721 13.9359 52.1862 12.8107 52.0214 12.6231C51.9159 12.5082 51.8961 12.5203 51.1773 12.9135ZM52.0412 13.47C52.3313 13.8996 52.3247 13.8633 52.061 14.0084C51.9357 14.075 51.7642 14.1718 51.6719 14.2262C51.5004 14.3291 51.5004 14.3291 51.2564 13.9177C51.118 13.6939 51.0322 13.5063 51.0652 13.4942C51.0982 13.4821 51.2762 13.3914 51.4543 13.2946C51.6389 13.1978 51.784 13.1131 51.7906 13.1131C51.7972 13.1131 51.9093 13.2765 52.0412 13.47Z" fill="#4E332D"/>
<path d="M24.9844 16.6157C24.9382 16.6399 24.8657 16.8093 24.8129 16.9908C24.7602 17.1723 24.6942 17.3235 24.6679 17.3356C24.2326 17.4929 22.4983 18.0494 22.4785 18.0373C22.4653 18.0252 22.4917 17.9345 22.5379 17.8317C22.6632 17.5473 22.5906 17.5473 21.7927 17.7893C20.9091 18.0615 20.9486 18.0555 21.0409 17.8317C21.1596 17.5534 21.0607 17.5473 20.2892 17.7954C19.8869 17.9224 19.5506 18.0131 19.5374 18.001C19.5176 17.9889 19.544 17.8922 19.5836 17.7833C19.6297 17.6804 19.6429 17.5776 19.6166 17.5534C19.577 17.511 16.8205 18.3519 16.7084 18.4366C16.6821 18.4669 16.8865 18.5031 17.17 18.5273C17.869 18.5818 17.8756 18.5818 17.4602 18.7088C16.2732 19.0657 16.1677 19.1625 16.9722 19.1625C17.5327 19.1625 17.5591 19.223 17.0447 19.3803C15.8841 19.7251 15.7852 19.828 16.6029 19.828C17.17 19.828 17.0909 19.8703 15.7984 20.2696C14.6971 20.6144 14.6971 20.6144 13.8333 20.5418C12.8309 20.4632 12.8771 20.445 12.6199 21.0318C12.4155 21.4916 12.4089 21.5641 12.5672 21.6065C12.7716 21.6609 14.5455 21.7819 14.651 21.7456C14.7037 21.7275 14.8092 21.546 14.895 21.3464C14.9741 21.1467 15.073 20.9532 15.1126 20.9229C15.2115 20.8564 17.4734 20.1244 17.5064 20.1546C17.5195 20.1667 17.48 20.2756 17.4206 20.3966C17.3547 20.5115 17.3217 20.6325 17.3481 20.6507C17.3745 20.6749 17.7438 20.5781 18.1658 20.439C19.0956 20.1425 19.0692 20.1425 18.9439 20.3724C18.8384 20.5599 18.812 20.7354 18.8978 20.7354C18.9241 20.7354 19.2802 20.6204 19.6891 20.4874C20.0979 20.3482 20.4409 20.2454 20.4606 20.2635C20.4804 20.2817 20.4475 20.3966 20.3947 20.5236C20.2562 20.814 20.3024 20.8443 20.6783 20.7172C22.4521 20.1304 23.2962 19.834 23.3094 19.7856C23.3226 19.7493 23.0918 19.7009 22.7555 19.6707L22.1752 19.6162L22.8874 19.3803C23.2764 19.2533 23.593 19.1262 23.593 19.102C23.593 19.0778 23.349 19.0355 23.0522 19.0113L22.5049 18.969L23.0984 18.7633C23.4281 18.6483 23.7315 18.5455 23.7776 18.5273C23.9689 18.4669 23.8304 18.3761 23.5468 18.3761C22.8214 18.3761 22.8742 18.3156 23.9029 17.9648C24.8789 17.632 24.8789 17.632 25.8812 17.6441C26.8836 17.6562 26.8836 17.6562 26.9297 17.4868C26.9495 17.3961 26.9957 17.2207 27.0287 17.1057C27.1342 16.7186 27.121 16.6944 26.7451 16.6581C26.0857 16.5976 25.0635 16.5734 24.9844 16.6157ZM26.4747 16.9485C26.4813 16.9545 26.4681 17.0392 26.4352 17.142C26.389 17.3054 26.3692 17.3175 25.9999 17.3356C25.3471 17.3659 25.2086 17.2691 25.413 16.9182C25.4328 16.888 26.4352 16.9182 26.4747 16.9485ZM21.918 18.4487C21.9378 18.4669 21.8125 18.7814 21.6344 19.1383C21.3179 19.7977 21.3179 19.7977 20.5596 19.8159C20.1441 19.8219 19.3989 19.8098 18.9044 19.7856L18.0075 19.7372L18.3768 19.0476L18.7395 18.358L20.309 18.3882C21.1728 18.4003 21.8916 18.4306 21.918 18.4487ZM14.407 20.935C14.4136 20.9471 14.3872 21.056 14.3476 21.177C14.2751 21.3948 14.2619 21.4008 13.9718 21.3948C13.8069 21.3948 13.5431 21.3706 13.3981 21.3524C13.1211 21.3101 13.1211 21.3101 13.2266 21.0741C13.3255 20.8382 13.3255 20.8382 13.8597 20.8806C14.1498 20.9048 14.3938 20.929 14.407 20.935Z" fill="#4E332D"/>
<path d="M19.056 19.0053C18.9373 19.2291 18.845 19.4348 18.845 19.465C18.845 19.5013 19.1747 19.5316 19.6034 19.5376C20.0188 19.5437 20.4409 19.5497 20.5464 19.5497C20.7046 19.5558 20.7508 19.5074 20.9486 19.1444C21.0739 18.9206 21.1596 18.727 21.1465 18.7149C21.1333 18.6968 20.7046 18.6665 20.1903 18.6484C19.2671 18.6 19.2671 18.6 19.056 19.0053ZM20.4606 19.1021C20.3683 19.2714 20.3288 19.2835 20.0056 19.2835C19.5045 19.2835 19.4253 19.2472 19.5176 19.0658C19.5836 18.9327 19.6297 18.9206 20.0782 18.9206C20.5662 18.9206 20.5662 18.9206 20.4606 19.1021Z" fill="#4E332D"/>
<path d="M42.5848 16.6823C42.1694 16.7065 41.8133 16.7307 41.8001 16.7367C41.7605 16.7488 41.8462 17.5958 41.8924 17.6381C41.9122 17.6562 42.3078 17.6683 42.7629 17.6562C43.6003 17.6381 43.6003 17.6381 44.4972 17.9648C45.3874 18.2854 45.3874 18.2854 45.0577 18.3035C44.273 18.3398 44.273 18.4003 45.0643 18.6786C45.6974 18.9024 45.6842 18.969 45.0115 18.975C44.8005 18.9811 44.6291 19.0053 44.6291 19.0355C44.6291 19.0658 44.9192 19.1928 45.2687 19.3259L45.915 19.5558L45.4072 19.586C44.9456 19.6163 44.761 19.6646 44.8335 19.7312C44.8863 19.7796 47.3657 20.6749 47.4449 20.6749C47.5504 20.6749 47.557 20.56 47.4647 20.3361C47.3657 20.1063 47.3723 20.1063 48.0911 20.3724C48.9682 20.6991 49.0077 20.693 48.8165 20.2756C48.7242 20.07 48.7242 20.0579 48.8363 20.0942C48.8956 20.1184 49.2254 20.2333 49.5551 20.3543C50.2343 20.5963 50.2871 20.5902 50.1881 20.2817C50.0958 20.0216 50.0167 20.0095 51.1839 20.4027C51.7246 20.5842 52.1796 20.7354 52.1928 20.7354C52.1994 20.7354 52.2588 20.8927 52.3181 21.0802C52.4764 21.6005 52.4632 21.5944 53.3403 21.5218C53.7557 21.4916 54.1646 21.4613 54.2569 21.4613C54.5998 21.4553 54.6196 21.3948 54.4217 20.8624C54.2239 20.3059 54.2701 20.324 53.1029 20.4269C52.5753 20.4753 52.5753 20.4753 51.6191 20.1486C51.0916 19.9671 50.6497 19.8098 50.6432 19.7977C50.63 19.7856 50.8278 19.7554 51.085 19.7312C51.3422 19.713 51.5532 19.6707 51.5532 19.6465C51.5532 19.6223 51.3224 19.5255 51.0454 19.4348C50.2211 19.1625 50.1947 19.1384 50.7157 19.1021C50.9597 19.0839 51.1641 19.0476 51.1641 19.0113C51.1707 18.9811 50.9069 18.854 50.5838 18.7391L50.0035 18.5274L50.5113 18.4971C51.1311 18.4548 51.1839 18.4185 50.8146 18.2914C49.2188 17.747 48.5461 17.5292 48.4736 17.5292C48.4077 17.5292 48.3945 17.5897 48.4274 17.7712C48.4538 17.9043 48.4604 18.0132 48.4406 18.0132C48.4274 18.0132 48.1571 17.9164 47.8405 17.8014C47.524 17.6865 47.2207 17.5897 47.1613 17.5897C47.0756 17.5897 47.0624 17.632 47.0954 17.8014C47.1218 17.9164 47.1218 18.0132 47.0954 18.0132C47.069 18.0132 46.7854 17.9164 46.4689 17.8014C46.1458 17.6865 45.8424 17.5897 45.7897 17.5897C45.7171 17.5897 45.7106 17.6381 45.7501 17.8014C45.8161 18.0616 45.8886 18.0737 44.8269 17.6925C43.9367 17.378 43.9367 17.378 43.8377 17.015C43.719 16.5916 43.8048 16.6158 42.5848 16.6823ZM43.297 17.1541C43.3168 17.3538 43.3168 17.3538 42.8354 17.3356C42.3672 17.3175 42.354 17.3114 42.3342 17.1541C42.3144 17.009 42.3342 16.9908 42.565 16.9666C43.1585 16.9061 43.2772 16.9364 43.297 17.1541ZM49.443 18.9811C49.6012 19.3501 49.7133 19.6586 49.7002 19.6707C49.687 19.6828 49.0012 19.707 48.1769 19.7312L46.6865 19.7675L46.4491 19.1142C46.3172 18.7572 46.2117 18.4487 46.2117 18.4245C46.2117 18.4003 46.7854 18.3701 47.4844 18.358C48.1769 18.3519 48.8429 18.3398 48.955 18.3277C49.1594 18.3156 49.1594 18.3217 49.443 18.9811ZM53.9008 20.929C53.9799 21.1528 53.9799 21.1528 53.5711 21.1891C53.0171 21.2435 52.9248 21.2193 52.8655 21.0137C52.7929 20.7838 52.8061 20.7717 53.2545 20.7293C53.7887 20.6749 53.8085 20.6809 53.9008 20.929Z" fill="#4E332D"/>
<path d="M47.6163 18.6C46.8448 18.6242 46.8646 18.6121 47.0624 19.1324C47.1811 19.4349 47.1811 19.4348 48.0516 19.453C49.0605 19.4711 49.0539 19.4772 48.8297 18.9509C48.6582 18.5395 48.7572 18.5637 47.6163 18.6ZM48.3747 19.0053C48.4604 19.1868 48.3879 19.2231 47.9197 19.2231C47.6097 19.2231 47.4647 19.1142 47.4647 18.8844C47.4647 18.8723 47.6559 18.8602 47.8801 18.8602C48.2626 18.8602 48.3087 18.8723 48.3747 19.0053Z" fill="#4E332D"/>
<path d="M33.7681 20.5963C33.478 20.6508 33.4186 20.8202 33.4648 21.5219C33.5307 22.5987 33.4648 22.9193 33.0955 23.3065C32.6273 23.7965 32.6273 23.8025 32.6273 26.4461C32.6273 28.7872 32.6273 28.7872 32.7856 28.9324C33.3065 29.4103 35.1727 29.3438 35.4695 28.8356C35.5288 28.7267 35.5486 28.0976 35.5552 26.3614C35.5618 23.7178 35.575 23.7904 34.9947 23.1915C34.7111 22.8951 34.7111 22.8951 34.6979 21.8304C34.6913 21.2436 34.6847 20.7476 34.6781 20.7234C34.6584 20.6145 34.1044 20.5358 33.7681 20.5963ZM35.0013 26.2223C35.0013 27.4745 35.0474 27.4201 34.0451 27.414C33.1614 27.414 33.2208 27.4927 33.2208 26.2223V25.1213H35.0013V26.2223Z" fill="#4E332D"/>
<path d="M36.9136 24.2622C36.5312 24.4437 36.3333 26.0105 36.6367 26.5308C36.7883 26.7969 37.217 27.1236 37.4873 27.1841C37.639 27.2204 37.6456 27.2446 37.6258 27.7043C37.606 28.1822 37.606 28.1822 37.2565 28.2911C36.729 28.4545 36.5443 28.7267 36.7817 28.9929C37.0983 29.3437 38.6018 29.3437 39.0304 28.9868C39.3074 28.7569 38.9975 28.3456 38.4765 28.2548C38.1995 28.2004 38.1995 28.2004 38.1798 27.7346C38.16 27.2627 38.16 27.2627 38.3908 27.178C39.0634 26.9179 39.3931 26.3614 39.3338 25.6052C39.2744 24.8974 39.0964 24.359 38.892 24.2622C38.6677 24.1594 37.1378 24.1594 36.9136 24.2622ZM38.7271 24.7401C38.9183 25.4903 38.9645 25.454 37.8962 25.454C37.1444 25.454 36.9268 25.4358 36.9466 25.3753C36.9598 25.339 37.006 25.1454 37.0455 24.9519C37.1181 24.607 37.1181 24.607 37.9094 24.607C38.6677 24.607 38.6941 24.6131 38.7271 24.7401ZM38.4765 28.6662C38.6216 28.7146 38.6348 28.7388 38.5622 28.7811C38.4435 28.8537 37.461 28.8537 37.2763 28.7811C36.9136 28.6481 38.0874 28.5271 38.4765 28.6662Z" fill="#4E332D"/>
<path d="M31.0248 24.7946C28.6707 25.3693 27.121 26.3735 26.7319 27.5713C26.6594 27.7951 26.6264 28.14 26.6264 28.6904C26.6264 29.9064 26.8176 30.4145 27.5364 31.0618C27.8925 31.3824 27.8925 31.3824 27.6485 32.8222C27.51 33.6086 27.365 34.4434 27.3188 34.6794C27.2199 35.1452 27.2726 35.3629 27.543 35.5807C27.8398 35.8287 28.7696 35.7562 28.9608 35.4779C29.007 35.4053 29.2378 34.6854 29.462 33.8748C29.8049 32.671 29.8972 32.4048 29.9829 32.429C30.0423 32.4471 30.3588 32.5318 30.6819 32.6165C31.5194 32.8464 32.3503 33.0037 33.1548 33.0823C34.3484 33.1912 34.2627 33.167 34.3023 33.4574C34.322 33.5965 34.3748 34.7036 34.4144 35.9195C34.4671 37.5286 34.5133 38.1699 34.5792 38.2848C34.8298 38.7385 35.9706 38.7627 36.2806 38.3211C36.3729 38.2001 36.4059 37.7585 36.485 35.6836C36.5312 34.3103 36.5839 33.1791 36.5971 33.167C36.6103 33.161 36.9268 33.1247 37.3093 33.0823C38.1864 32.9855 39.0172 32.8282 39.8349 32.5863C40.191 32.4834 40.4878 32.4048 40.501 32.4169C40.5142 32.429 40.679 32.9855 40.8637 33.651C41.4176 35.5989 41.3714 35.49 41.6814 35.6231C42.2485 35.8529 42.9211 35.7017 43.0728 35.3024C43.119 35.1815 43.053 34.6552 42.8156 33.2638L42.4925 31.3885L42.9013 30.9892C43.6003 30.3056 43.7718 29.8398 43.7718 28.6239C43.7718 27.7588 43.6267 27.2991 43.1915 26.7728C42.6903 26.1557 41.6946 25.5448 40.5405 25.1334C39.7888 24.8672 39.8152 24.8672 39.8613 25.1334C39.9207 25.4903 39.9734 25.5387 40.4548 25.7262C43.4816 26.8938 43.9432 28.6602 41.5693 30.0213C38.549 31.7454 32.7328 31.8785 29.3433 30.2996C27.9848 29.6644 27.2001 28.7751 27.299 27.9766C27.4309 26.918 29.0333 25.8472 31.2754 25.333C32.0008 25.1636 32.0008 25.1636 32.0206 24.8854C32.047 24.5406 32.0338 24.5406 31.0248 24.7946ZM27.5892 29.8761C28.1101 30.3843 29.2971 30.9892 30.4907 31.3522C34.6122 32.6044 40.3955 31.939 42.7299 29.9427C43.0992 29.6281 43.1255 29.7249 42.8024 30.1907C41.2725 32.4108 34.8496 33.3303 30.4973 31.9511C28.9476 31.455 27.8727 30.7593 27.4243 29.9427C27.2594 29.6402 27.3188 29.616 27.5892 29.8761ZM29.2576 32.1991C29.2576 32.2293 29.0729 32.9008 28.8421 33.6812C28.4333 35.1028 28.4333 35.1028 28.1893 35.121C27.8793 35.1452 27.8793 35.2601 28.209 33.3727C28.3541 32.5379 28.4728 31.8301 28.4728 31.7998C28.4728 31.7696 28.6509 31.8361 28.8685 31.945C29.0861 32.0479 29.2641 32.1628 29.2576 32.1991ZM42.2485 33.784C42.5057 35.242 42.5123 35.1452 42.2089 35.121C41.9583 35.1028 41.9583 35.1028 41.5495 33.6812C41.3187 32.9008 41.134 32.2293 41.134 32.1991C41.134 32.1628 41.3055 32.0479 41.5165 31.945C41.8924 31.7514 41.8924 31.7514 41.9715 32.187C42.0111 32.429 42.1364 33.1428 42.2485 33.784ZM35.9047 34.147C35.8783 34.6733 35.8453 35.6715 35.8256 36.3732C35.7728 38.1094 35.7926 38.0368 35.4299 38.0368C35.1661 38.0368 35.1331 38.0186 35.1331 37.8976C35.1331 37.6617 35.0079 34.6431 34.9683 33.905C34.9287 33.1973 34.9287 33.1973 35.4365 33.1973H35.9443L35.9047 34.147Z" fill="#4E332D"/>
<path d="M25.2086 27.0328C23.9754 27.5168 21.7993 28.3637 18.5483 29.628C15.5544 30.7895 13.9586 31.4126 13.5695 31.5638C13.3321 31.6546 11.9605 32.1869 10.5163 32.7435C7.86536 33.7719 7.56861 33.905 7.56861 34.0985C7.56861 34.3103 7.12019 34.0139 13.7014 38.1274C14.8818 38.8655 16.9854 40.1842 18.3834 41.0614C19.7814 41.9386 21.7663 43.1847 22.8016 43.832C26.9363 46.4272 31.1238 49.0648 32.0008 49.6153C32.6009 49.9964 32.9768 50.196 33.0955 50.196C33.2142 50.196 33.7879 49.8814 34.8628 49.21C36.6762 48.0908 41.4572 45.1266 46.1458 42.2108C49.3111 40.2447 52.905 38.0186 57.1254 35.4173C59.1631 34.159 59.3016 34.0622 59.3214 33.8808C59.3477 33.6206 59.539 33.7114 55.5362 32.0417C53.6172 31.2372 51.5466 30.3721 50.9267 30.112C43.752 27.1054 44.2004 27.2809 44.2598 27.4624C44.2862 27.541 44.3323 27.9826 44.3653 28.4484C44.3983 28.9142 44.4708 29.5131 44.5236 29.7793C44.6291 30.3358 44.6357 30.3237 44.4049 30.2269C44.3125 30.1846 44.2268 30.1664 44.2136 30.1785C44.207 30.1906 44.1477 30.3056 44.0817 30.4326C43.9696 30.6564 43.9696 30.6564 45.4732 31.34C46.2975 31.7211 47.6163 32.3079 48.4077 32.6527C49.1924 32.9976 49.8386 33.3 49.8386 33.3242C49.8386 33.3484 49.6078 33.4876 49.3309 33.6388L48.8297 33.911L46.0798 32.6527C43.1387 31.3037 43.1783 31.3158 43.1783 31.7574C43.1783 31.9813 43.1783 31.9813 45.6578 33.1246C47.524 33.9836 48.1109 34.28 48.045 34.3284C47.9988 34.3587 47.2207 34.7942 46.3106 35.2842C45.4072 35.7742 43.7256 36.6877 42.5848 37.3108C37.5005 40.0814 34.6781 41.6059 34.6386 41.6059C34.6122 41.6059 34.144 41.3397 33.5901 41.007C33.0427 40.6803 31.9151 40.0088 31.0776 39.5188C30.2467 39.0288 28.9081 38.2363 28.1101 37.7645C27.3122 37.2926 25.8614 36.4336 24.8789 35.8589C21.5553 33.911 21.0212 33.5904 21.0212 33.5541C21.0212 33.536 21.3839 33.3726 21.8323 33.1851C23.8172 32.3624 26.6923 31.1101 26.6923 31.0678C26.6923 31.0375 26.6264 30.9287 26.5473 30.8137C26.3824 30.5838 26.3494 30.5959 24.681 31.3219C23.8699 31.6727 22.8082 32.1083 22.7687 32.1083C22.7489 32.1083 22.7357 31.824 22.7357 31.4731C22.7357 30.8379 22.7357 30.8379 23.0984 30.6746C23.2962 30.5838 23.4611 30.4871 23.4611 30.4629C23.4611 30.3903 22.9863 30.2935 22.5313 30.2814C22.1092 30.2632 22.1092 30.2632 22.0763 31.334C22.0565 31.9208 22.0235 32.4168 22.0037 32.435C21.9839 32.4531 20.9882 32.8766 19.7946 33.3726C18.6076 33.8687 17.6185 34.2982 17.6119 34.3284C17.5987 34.3587 18.1724 34.7398 18.8912 35.1693C19.9331 35.7924 20.1639 35.9557 20.032 35.9678C19.7748 35.992 14.8554 36.2703 14.8422 36.2582C14.8356 36.2521 14.9543 35.8831 15.1126 35.4355C15.4027 34.6188 15.4027 34.6188 15.4489 33.3787C15.4687 32.6951 15.4951 32.1325 15.5017 32.1264C15.5083 32.1204 16.7018 32.1809 18.146 32.2595C19.8671 32.3563 20.8167 32.3866 20.8959 32.3503C21.0541 32.2656 21.0739 32.1869 21.1201 31.2916C21.2058 29.5494 21.1465 29.6704 21.8718 29.7127C22.2213 29.7309 23.039 29.7793 23.6919 29.8095C24.3447 29.8398 25.1493 29.8882 25.4856 29.9063C26.0857 29.9487 26.0857 29.9487 26.0527 29.6825C26.0329 29.5373 25.9867 29.3982 25.9538 29.38C25.9274 29.3619 25.0174 29.3014 23.9359 29.2409C21.6015 29.1138 21.5685 29.1078 22.2016 28.8719C22.6764 28.6964 22.6764 28.6964 24.0612 28.7872C24.9316 28.8416 25.4724 28.8477 25.5053 28.8174C25.5449 28.7811 25.5515 28.5149 25.5317 28.1762C25.4856 27.6015 25.4856 27.6015 25.7955 27.4805C26.0659 27.3716 26.1384 27.3051 26.3626 26.9179C26.5077 26.682 26.6132 26.4823 26.6066 26.4823C26.6 26.4884 25.9735 26.7304 25.2086 27.0328ZM45.5523 28.527C46.0469 28.7509 46.0469 28.7509 46.093 29.2046C46.1722 29.8882 46.0535 29.8337 47.3328 29.7914C48.4472 29.749 48.4472 29.749 48.9616 29.9547C49.5617 30.1906 50.2343 30.481 50.2343 30.4931C50.2343 30.5113 45.394 30.4689 45.3742 30.4508C45.3611 30.4387 44.9588 28.3879 44.9588 28.3274C44.9588 28.2669 45.0577 28.3032 45.5523 28.527ZM20.4672 30.3358C20.3815 31.8663 20.3947 31.824 20.0056 31.7816C19.821 31.7635 18.8516 31.703 17.8559 31.6546C15.2247 31.5215 15.3302 31.5396 16.0556 31.2614C16.6491 31.0375 16.6491 31.0375 17.9482 31.1222C18.667 31.1706 19.2934 31.1948 19.3462 31.1767C19.4121 31.1525 19.4385 31.0375 19.4451 30.7956C19.4517 30.0092 19.4847 29.9426 19.9661 29.749C20.2035 29.6522 20.4211 29.5675 20.454 29.5675C20.487 29.5675 20.4936 29.9003 20.4672 30.3358ZM51.8961 31.709L51.9884 32.2595L53.3337 32.2898C54.6855 32.32 54.6855 32.32 55.3779 32.6346C56.0703 32.9431 56.0703 32.9431 55.6087 32.9492C55.3581 32.9552 54.5866 32.925 53.8942 32.8947C53.2084 32.8584 52.5753 32.8463 52.4962 32.8645C52.1928 32.931 52.206 33.0399 52.6413 34.6067C53.0501 36.0767 53.0567 36.1009 52.9116 36.1009C52.8325 36.1009 51.5664 36.0344 50.1024 35.9497C47.4515 35.7984 47.4383 35.7984 47.3064 35.9134C47.1811 36.0344 47.1811 36.0404 47.524 37.6132C47.7152 38.4844 47.8603 39.2042 47.8471 39.2103C47.8405 39.2224 47.6229 39.2103 47.3657 39.1861C45.2621 38.9683 41.899 38.6961 41.7605 38.7263C41.5033 38.7868 41.5033 38.9441 41.7869 40.4565C41.9386 41.2308 42.0441 41.8841 42.0243 41.8962C42.0111 41.9144 41.6154 41.8781 41.1538 41.8297C38.9777 41.5756 36.8477 41.3699 36.7488 41.4002C36.5707 41.4667 36.5641 41.6966 36.7026 43.4388C36.7752 44.3765 36.8213 45.1508 36.8147 45.1629C36.8015 45.175 36.3201 45.0903 35.7464 44.9693C31.7634 44.1527 31.5986 44.1285 31.4733 44.3644C31.4337 44.443 31.4073 45.2294 31.4073 46.4333C31.4073 47.504 31.3875 48.3812 31.3612 48.3812C31.3348 48.3812 31.0314 48.1997 30.6885 47.9819L30.0621 47.5827L30.1016 46.276C30.1412 44.9754 30.1412 44.9754 29.95 45.0056C29.8445 45.0298 29.0597 45.1327 28.2025 45.2355L26.6462 45.4351L25.1163 44.4733C23.8172 43.6627 23.593 43.4993 23.6194 43.3904C23.7644 42.8883 24.1931 40.8618 24.1601 40.8315C24.1337 40.8134 23.1182 40.8557 21.8916 40.9283L19.6693 41.0554L18.9241 40.6017C18.3768 40.2629 18.1922 40.1177 18.212 40.0451C18.5351 39.0651 18.9769 37.6435 18.9769 37.577C18.9769 37.4741 19.155 37.4681 16.5765 37.6374L14.4004 37.7826L13.6223 37.2926C13.0683 36.9478 12.8507 36.7784 12.8771 36.7119C12.9167 36.5848 13.1738 35.5625 13.1738 35.5202C13.1738 35.502 12.6265 35.496 11.9605 35.502C10.7537 35.5141 10.7537 35.5141 10.114 35.1027C9.76454 34.8789 9.48758 34.6853 9.50736 34.6672C9.52055 34.649 10.4965 34.7095 11.6703 34.7942C14.3345 34.9939 14.4927 35.006 14.4927 35.0725C14.4927 35.1027 14.374 35.4355 14.2289 35.8105C13.9388 36.5607 13.919 36.7119 14.0641 36.8268C14.1762 36.9115 14.684 36.8994 18.2713 36.6877C19.4913 36.6151 20.4936 36.5727 20.4936 36.5909C20.4936 36.6151 20.3156 37.3047 20.098 38.1214C19.6561 39.7971 19.6429 39.8757 19.8474 39.9786C19.9858 40.0451 21.8784 40.033 24.8393 39.9302C25.9867 39.8939 25.9867 39.8939 25.9472 40.0996C25.9274 40.2145 25.7296 41.1642 25.5053 42.2108C25.0833 44.2252 25.0701 44.3644 25.3537 44.4249C25.5317 44.4672 31.0842 44.1164 31.2688 44.0498C31.5128 43.9651 31.4667 43.5659 31.2029 43.5054C31.1106 43.4812 29.917 43.5417 28.5388 43.6324C27.1671 43.7231 26.0131 43.7897 25.9867 43.7776C25.901 43.7413 26.7055 39.906 26.7913 39.9362C26.8308 39.9483 27.8661 40.5654 29.0993 41.3155C32.5416 43.3965 32.5811 43.4207 32.8119 43.4207C32.924 43.4207 33.5835 43.5417 34.2891 43.6929C34.9881 43.8381 35.575 43.9409 35.6014 43.9167C35.6211 43.8925 35.6145 43.6264 35.5882 43.3299C35.4563 41.8236 35.4035 41.9265 36.6169 41.2731C37.217 40.9525 37.7643 40.6742 37.8303 40.6561C37.9028 40.638 38.582 40.7287 39.347 40.8557C40.1119 40.9767 40.7516 41.0735 40.7648 41.0554C40.778 41.0433 40.7186 40.6379 40.6329 40.154C40.5471 39.67 40.4878 39.2466 40.501 39.2103C40.5142 39.174 40.8373 38.9804 41.2132 38.7747C41.5825 38.5751 42.6969 37.9702 43.6729 37.4378C45.4534 36.4639 45.4534 36.4639 45.5325 36.7784C45.7501 37.6253 45.7501 37.6253 45.2555 37.9097C45.0115 38.0488 44.8269 38.1819 44.8533 38.2C44.8994 38.2424 46.5283 38.4481 46.5678 38.4178C46.581 38.4057 46.4755 37.8855 46.3304 37.2624C46.126 36.361 46.093 36.119 46.159 36.0827C47.7152 35.2177 50.6695 33.6327 50.6893 33.6509C50.7025 33.669 50.7816 33.9413 50.8608 34.2558C51.0124 34.8366 51.0124 34.8366 50.6893 35.0241C50.5113 35.1209 50.3662 35.2237 50.3662 35.2479C50.3662 35.2782 50.6498 35.3145 50.9993 35.3387C51.3488 35.3629 51.6719 35.3992 51.7246 35.4173C51.8631 35.4657 51.8433 35.3145 51.5598 34.2498C51.4147 33.7235 51.2235 32.7979 51.1311 32.199C51.0322 31.6001 50.9399 31.0375 50.9201 30.9468C50.8871 30.7774 50.8871 30.7774 51.3422 30.965C51.8038 31.1525 51.8038 31.1525 51.8961 31.709ZM50.2145 31.1041C50.2541 31.1343 50.5179 32.8403 50.4849 32.8645C50.4585 32.8947 46.3766 31.1283 46.2909 31.0557C46.2711 31.0375 50.1881 31.0859 50.2145 31.1041ZM14.7367 33.0883C14.6906 33.9413 14.6444 34.4071 14.5982 34.4071C14.4663 34.4071 9.77773 34.0441 9.41504 34.0078C9.05235 33.9715 9.05235 33.9715 9.63925 33.7537C10.2262 33.542 10.2262 33.542 11.6835 33.6146C12.488 33.6569 13.2662 33.7053 13.4244 33.7235C13.7014 33.7537 13.7014 33.7537 13.7014 32.9734C13.7014 32.1869 13.7014 32.1869 14.2421 31.9752C14.5455 31.8542 14.7961 31.7574 14.7961 31.7635C14.8027 31.7695 14.7763 32.3684 14.7367 33.0883ZM56.4066 33.6206C57.4354 33.669 57.8047 33.7053 58.0157 33.79C58.2992 33.8989 58.2992 33.8989 57.9761 34.0864C57.653 34.28 57.653 34.28 56.0044 34.1953C55.101 34.1469 54.336 34.1288 54.3096 34.153C54.2833 34.1772 54.3756 34.5946 54.5207 35.0725C54.6657 35.5565 54.7844 35.9799 54.7844 36.0223C54.7844 36.0586 54.3096 36.3852 53.7293 36.7421L52.6676 37.3955L51.0388 37.2926C50.142 37.2382 49.3902 37.214 49.3638 37.2382C49.3441 37.2624 49.4232 37.6616 49.5485 38.1274C49.6672 38.5933 49.7727 39.0228 49.7727 39.0772C49.7727 39.2345 47.5636 40.5775 47.2998 40.5775C47.1943 40.5775 46.3634 40.5049 45.4666 40.4202C44.5697 40.3294 43.8114 40.275 43.7916 40.2992C43.752 40.3355 44.1345 42.3499 44.2136 42.5435C44.2268 42.5798 43.8641 42.8399 43.4025 43.1182L42.5716 43.6324L40.6527 43.4086C39.5976 43.2876 38.7271 43.1908 38.7205 43.1968C38.7073 43.2029 38.7601 43.8078 38.8326 44.5398C38.8986 45.2657 38.9381 45.8828 38.9051 45.907C38.8788 45.9251 38.4172 46.2155 37.8698 46.5482L36.8807 47.1471L35.2321 46.8023C34.3286 46.6087 33.5307 46.4514 33.4582 46.4454C33.3461 46.4454 33.3395 46.5059 33.3856 47.7883C33.412 48.5324 33.4384 49.1616 33.445 49.1858C33.445 49.216 33.3725 49.2946 33.2735 49.3672C33.0955 49.4882 33.0955 49.4882 32.6273 49.21L32.1657 48.9256V44.8846L32.713 44.9996C35.9377 45.665 37.3225 45.9191 37.428 45.8586C37.5665 45.7799 37.5599 44.6669 37.4148 43.0577C37.3687 42.5072 37.3291 42.0535 37.3357 42.0475C37.3423 42.0354 38.5293 42.1684 39.98 42.3318C41.8396 42.5435 42.6376 42.6101 42.7233 42.5677C42.9013 42.483 42.8882 42.3076 42.5848 40.7589C42.4397 40.0149 42.3342 39.3978 42.3474 39.3797C42.3672 39.3676 43.6069 39.4644 45.1039 39.6035C48.6516 39.9302 48.6517 39.9302 48.6517 39.5793C48.6517 39.4039 48.1175 36.8631 48.0186 36.5607C47.979 36.4518 48.0054 36.4457 48.5593 36.482C48.8825 36.5062 49.9507 36.5667 50.9267 36.6151C51.9093 36.6635 52.905 36.7179 53.1424 36.73C53.6304 36.7603 53.8612 36.6695 53.8612 36.4518C53.8612 36.3489 53.2347 34.0199 53.0963 33.5964C53.0501 33.4694 52.7731 33.4634 56.4066 33.6206ZM23.1182 35.5504C24.7074 36.476 27.2199 37.9581 28.7036 38.8352C30.194 39.7184 31.9283 40.7408 32.5613 41.1159C34.1572 42.0596 34.0846 41.9386 33.3263 42.3499C32.9834 42.5435 32.68 42.6947 32.6537 42.6947C32.6273 42.6947 31.3282 41.9204 29.7653 40.9767C26.4615 38.9865 20.731 35.5383 19.6495 34.8971C19.2407 34.649 18.9307 34.4313 18.9571 34.401C19.0033 34.3587 20.1573 33.8687 20.2166 33.8626C20.2298 33.8626 21.5355 34.6188 23.1182 35.5504ZM21.7663 36.8994C22.0367 37.0688 22.1422 37.1656 22.1158 37.2382C21.9774 37.704 21.7465 38.7203 21.7729 38.7445C21.7927 38.7626 22.3994 38.7142 23.1248 38.6416C24.4437 38.5025 24.4437 38.5025 25.1031 38.9018L25.7691 39.295L25.024 39.3313C24.6217 39.3494 23.4281 39.3797 22.3862 39.3978C20.5727 39.4341 20.487 39.4281 20.52 39.3252C20.5662 39.1982 21.219 36.6453 21.219 36.603C21.219 36.5728 21.2915 36.609 21.7663 36.8994Z" fill="#4E332D"/>
<path d="M27.7145 41.9204C27.6485 42.1019 27.4111 43.0093 27.4309 43.0214C27.4771 43.0516 29.1323 42.852 29.1323 42.8157C29.1323 42.7794 28.0574 42.0172 27.8332 41.8901C27.7804 41.8599 27.7342 41.872 27.7145 41.9204Z" fill="#4E332D"/>
<path d="M16.3589 35.0241C16.2468 35.3024 16.1611 35.5322 16.1677 35.5383C16.1941 35.5685 17.7833 35.3992 17.8229 35.3689C17.8625 35.3326 16.7216 34.528 16.6293 34.528C16.5963 34.528 16.471 34.7519 16.3589 35.0241Z" fill="#4E332D"/>
</g>
</g>
</svg>
