<?xml version="1.0" standalone="no"?>
<!DOCTYPE svg PUBLIC "-//W3C//DTD SVG 20010904//EN"
 "http://www.w3.org/TR/2001/REC-SVG-20010904/DTD/svg10.dtd">
<svg version="1.0" xmlns="http://www.w3.org/2000/svg"
 width="918.000000pt" height="871.000000pt" viewBox="0 0 918.000000 871.000000"
 preserveAspectRatio="xMidYMid meet"><g transform="translate(0.000000,871.000000) scale(0.100000,-0.100000)"
fill="#000000" stroke="none">
<path d="M935 8590 c-16 -4 -145 -33 -285 -64 -140 -32 -260 -62 -267 -68 -10
-8 -13 -254 -13 -1209 l0 -1199 23 -14 c25 -16 566 -166 599 -166 20 0 491 63
1427 191 162 22 301 45 308 51 10 8 13 70 13 274 0 145 1 264 3 264 1 0 55 -9
120 -19 l117 -19 248 18 c136 11 257 20 270 20 l22 0 0 -142 c0 -79 4 -149 9
-157 13 -20 456 -104 556 -104 44 -1 92 2 108 6 l27 7 0 -325 0 -325 -22 -5
c-129 -29 -504 -102 -510 -99 -5 3 -8 20 -8 38 0 54 -39 188 -61 212 -12 12
-32 25 -47 29 -14 3 -108 -8 -211 -26 -132 -23 -186 -29 -189 -20 -17 51 -54
100 -97 126 -38 23 -62 30 -115 33 -81 5 -129 -9 -176 -51 -66 -58 -89 -139
-64 -227 9 -31 6 -42 -24 -100 -31 -59 -51 -134 -58 -215 l-3 -29 -105 -23
c-58 -12 -110 -23 -115 -23 -6 0 -16 43 -23 95 -7 53 -19 112 -27 132 -8 20
-13 38 -10 41 3 3 76 18 162 33 85 15 160 32 165 37 5 5 5 20 -1 35 -7 19 -18
27 -34 27 -12 0 -110 -15 -217 -34 -153 -28 -198 -39 -214 -56 l-21 -21 -3
-162 -3 -163 -82 -17 c-45 -10 -92 -20 -103 -23 l-21 -6 -7 84 c-9 108 -22
155 -53 197 -31 40 -111 79 -238 116 -78 23 -102 26 -180 21 -110 -6 -403 -65
-467 -94 -58 -25 -103 -85 -117 -155 -6 -29 -14 -126 -18 -217 l-8 -164 -335
-74 c-236 -51 -339 -78 -347 -89 -9 -11 -13 -53 -13 -120 0 -120 0 -120 101
-162 l64 -27 5 -939 5 -940 65 -35 c36 -19 66 -42 68 -50 1 -9 -38 -250 -88
-535 -55 -312 -89 -533 -85 -551 7 -41 48 -82 90 -90 41 -7 98 16 120 50 9 13
29 94 44 178 15 84 32 152 37 151 5 -1 99 -49 209 -105 l200 -103 5 -238 5
-239 33 -29 c24 -22 42 -29 73 -29 22 0 54 7 70 16 53 27 59 59 59 301 l0 218
205 104 c113 58 207 102 209 100 3 -3 17 -70 32 -149 14 -80 32 -157 40 -171
13 -26 68 -59 98 -59 35 0 85 30 100 59 21 39 20 75 -4 201 -11 58 -20 115
-20 128 l0 22 38 -19 c20 -11 43 -24 50 -29 9 -6 -1 -85 -48 -363 -34 -195
-72 -415 -85 -490 -14 -76 -25 -147 -25 -158 0 -34 59 -91 101 -97 48 -8 102
18 123 59 9 18 27 99 42 182 14 82 26 151 28 152 2 2 389 -203 429 -227 l17
-10 0 -231 c0 -258 5 -279 65 -305 44 -18 79 -18 115 1 56 29 60 50 60 309 l0
236 68 34 c37 18 130 68 206 110 76 42 142 76 147 76 8 0 10 -8 40 -180 12
-69 28 -138 36 -153 18 -36 75 -61 122 -53 41 6 87 48 94 84 3 15 -1 65 -9
111 -8 46 -13 85 -11 87 2 2 117 -57 256 -131 138 -74 256 -135 262 -135 6 0
230 114 497 254 268 139 573 297 677 351 105 54 198 105 208 113 l17 15 0
1069 0 1068 23 10 c45 19 575 220 580 220 3 0 7 -34 9 -75 l3 -74 37 -38 37
-38 -55 -195 c-116 -414 -184 -667 -184 -684 0 -10 13 -31 29 -47 34 -34 87
-39 120 -11 14 11 38 72 73 185 28 92 56 167 60 167 12 0 531 -219 540 -228 4
-4 12 -94 18 -201 13 -221 19 -244 78 -262 32 -9 44 -8 70 5 17 9 37 26 43 38
11 21 8 288 -7 640 l-7 138 49 21 49 21 153 -48 c84 -26 156 -52 161 -58 8
-11 32 -101 51 -190 6 -26 8 -56 5 -66 l-5 -17 -102 28 c-117 33 -147 35 -194
13 -57 -27 -83 -104 -47 -136 10 -9 61 -34 113 -58 52 -23 98 -45 102 -49 4
-3 -22 -27 -59 -51 -88 -60 -138 -119 -153 -180 -14 -60 -4 -84 44 -100 l34
-11 71 35 c39 20 72 36 74 36 3 0 -4 -37 -15 -82 -22 -98 -15 -128 38 -153 40
-19 84 -13 107 13 8 9 34 82 57 162 22 80 43 153 46 163 3 10 20 25 38 33 l32
16 99 -45 c55 -25 152 -70 216 -101 l116 -55 6 -107 c4 -59 7 -150 8 -203 1
-147 11 -200 43 -228 45 -38 122 -26 145 24 7 16 11 149 11 411 l0 387 100 43
100 42 128 -64 128 -64 59 -203 c67 -228 85 -259 148 -259 40 0 82 29 91 64 6
25 -3 61 -148 616 l-75 285 23 25 c39 41 47 67 49 150 2 67 -1 83 -20 109 -13
16 -23 33 -23 37 0 4 36 123 80 265 103 327 129 432 136 544 14 198 -52 343
-182 404 -50 24 -142 28 -233 10 l-56 -10 -320 88 -320 89 -1 59 c0 33 -6 71
-13 84 l-13 23 45 47 c55 57 98 132 132 234 30 92 24 117 -28 117 -41 0 -137
-25 -195 -50 l-44 -20 7 23 c3 12 9 67 12 123 4 74 1 123 -11 184 -21 101 -30
120 -58 120 -56 0 -170 -114 -221 -221 l-31 -65 -57 58 c-59 60 -143 108 -191
108 -36 0 -44 -29 -28 -107 9 -45 54 -154 87 -214 2 -3 -30 -4 -71 -1 -85 5
-121 -1 -130 -23 -11 -30 80 -179 162 -267 l44 -47 -16 -23 c-9 -12 -16 -34
-16 -48 0 -23 -7 -28 -57 -44 -32 -10 -121 -40 -197 -67 -77 -27 -145 -49
-151 -49 -8 0 -14 30 -19 86 -15 193 -73 346 -173 454 -64 70 -119 105 -201
129 l-57 17 -2 915 c-1 503 -2 927 -3 942 0 17 -11 40 -28 57 -22 21 -44 30
-97 39 -39 6 -236 36 -440 67 l-370 57 -280 -27 c-154 -15 -299 -29 -322 -33
l-43 -5 0 424 0 425 -18 15 c-12 10 -140 30 -432 67 -883 110 -2730 345 -3151
401 -124 17 -230 30 -235 29 -5 -1 -22 -4 -39 -9z m500 -135 c198 -25 378 -48
400 -53 l40 -7 0 -1160 0 -1160 -80 -12 c-77 -12 -629 -88 -727 -100 l-48 -6
0 1276 0 1277 28 -5 c15 -3 189 -25 387 -50z m-495 -1220 c0 -1005 -3 -1265
-12 -1265 -7 0 -116 29 -243 64 l-230 63 0 1149 0 1149 225 51 c124 29 233 52
243 53 l17 1 0 -1265z m1392 1105 c174 -22 320 -40 323 -40 3 0 5 -477 5
-1059 l0 -1060 -17 -5 c-10 -2 -137 -21 -283 -40 -393 -53 -404 -54 -412 -49
-5 2 -8 522 -8 1154 l0 1151 38 -6 c20 -3 180 -24 354 -46z m748 -96 c157 -19
290 -37 297 -39 8 -3 11 -139 10 -542 l-2 -538 -120 -7 c-66 -3 -211 -8 -322
-11 l-203 -5 0 594 0 594 28 -5 c15 -3 155 -21 312 -41z m673 -85 l267 -32 0
-493 0 -492 -92 -6 c-51 -3 -180 -8 -285 -11 l-193 -6 0 541 0 541 18 -5 c9
-2 137 -19 285 -37z m680 -86 l297 -37 0 -813 c0 -447 -3 -813 -7 -813 -5 0
-141 -18 -303 -40 -162 -22 -301 -40 -307 -40 -10 0 -13 42 -13 179 0 196 -1
191 61 191 l29 0 0 -129 c0 -109 2 -130 16 -135 16 -6 420 41 436 50 4 3 8
334 8 735 0 575 -3 731 -12 734 -20 7 -363 45 -408 45 l-40 0 0 -497 0 -497
-45 44 -45 44 0 508 0 508 18 0 c9 0 151 -16 315 -37z m-11 -138 c79 -9 153
-18 166 -21 l22 -4 -2 -693 -3 -692 -180 -21 c-99 -12 -181 -21 -181 -20 -1 0
-5 49 -9 108 l-7 107 26 7 c37 9 46 32 46 115 l0 73 -30 31 -30 31 -4 497 -5
497 25 0 c13 0 88 -7 166 -15z m1320 -757 c153 -23 276 -43 274 -45 -7 -7
-682 -83 -734 -82 -31 0 -149 13 -262 27 l-205 27 -3 28 c-2 15 0 27 5 28 4 0
130 13 278 28 149 16 293 29 320 30 28 1 175 -18 327 -41z m562 -97 c3 -5 6
-208 6 -452 l1 -444 -93 -18 c-114 -22 -769 -137 -820 -144 l-38 -6 0 466 0
465 18 20 c15 19 52 25 332 57 173 20 362 42 420 50 132 16 167 17 174 6z
m-2213 -88 c38 -36 66 -69 63 -72 -6 -7 -960 -59 -1088 -60 l-78 -1 -89 80
c-49 44 -88 81 -87 81 2 1 260 9 573 19 314 9 585 18 603 19 29 1 44 -9 103
-66z m913 17 c82 -11 149 -21 150 -22 5 -14 -6 -1588 -12 -1588 -4 1 -194 47
-422 104 l-415 102 -3 331 -2 330 102 16 c57 9 162 24 233 33 72 9 140 23 153
30 l22 14 0 335 0 335 23 0 c12 0 89 -9 171 -20z m-2054 -258 c0 -46 -2 -53
-17 -48 -10 2 -57 10 -105 16 l-88 12 0 130 0 129 105 -93 105 -93 0 -53z
m2346 -252 l1 -480 -18 0 c-10 0 -29 4 -43 10 l-25 9 2 458 c1 252 6 464 10
471 5 6 23 12 40 12 l32 0 1 -480z m-1078 322 c2 -20 -2 -34 -10 -36 -7 -3
-249 -21 -538 -40 -289 -20 -553 -38 -587 -42 l-63 -6 0 51 0 51 63 1 c34 0
274 13 532 29 259 15 499 27 535 26 l65 -1 3 -33z m-198 -313 l0 -181 -22 5
c-13 3 -99 20 -193 37 -93 17 -178 33 -187 36 -16 5 -18 20 -18 128 l0 123
188 15 c103 8 197 16 210 16 l22 2 0 -181z m2290 -823 c0 -233 2 -431 5 -438
4 -11 -9 -18 -52 -27 -222 -48 -362 -216 -394 -472 -12 -95 -1 -210 31 -332
11 -42 63 -197 114 -345 52 -147 91 -270 88 -274 -4 -3 -106 -43 -227 -88
-121 -45 -259 -97 -307 -116 -48 -19 -92 -34 -98 -34 -7 0 -10 19 -8 51 l3 51
84 33 c46 19 88 39 92 47 14 21 11 232 -3 251 -7 10 -66 33 -133 54 -66 19
-126 40 -132 46 -10 7 -13 205 -13 928 l0 919 23 5 c12 3 150 28 307 56 157
28 353 63 435 79 83 15 158 28 168 29 l17 1 0 -424z m-1027 255 c4 -4 10 -415
13 -914 l7 -907 -16 0 c-9 0 -27 4 -41 10 l-26 10 0 910 0 910 28 -6 c15 -4
30 -10 35 -13z m-2253 -126 c47 -24 64 -52 68 -115 2 -33 3 -60 1 -60 -2 0
-26 11 -53 25 -33 17 -54 35 -62 55 -10 22 -20 30 -38 30 -26 0 -56 -23 -56
-44 0 -8 -23 -25 -52 -39 -39 -19 -54 -23 -60 -14 -22 34 5 113 49 145 58 41
141 48 203 17z m556 -162 c10 -32 18 -85 18 -117 l1 -60 -35 -7 c-19 -4 -97
-21 -173 -37 l-138 -30 7 22 c3 11 21 53 40 93 19 39 34 76 34 82 0 7 -12 16
-27 22 -58 22 -77 21 -117 -6 -21 -14 -40 -24 -43 -21 -3 2 1 20 8 39 l12 35
36 -4 c20 -2 92 7 161 20 69 13 142 24 162 25 l37 1 17 -57z m-587 -34 c48
-17 21 -29 -66 -29 -77 0 -100 12 -56 28 38 14 84 14 122 1z m261 -56 c-1 -5
-12 -28 -25 -53 l-23 -45 -11 28 c-14 37 -15 36 12 58 22 19 47 25 47 12z
m-116 -103 c30 -67 52 -206 35 -226 -25 -31 -112 -49 -234 -49 -129 0 -217 20
-234 53 -4 10 -5 52 0 95 7 75 35 151 74 201 l14 18 67 -12 c65 -11 145 -7
189 10 28 11 57 -19 89 -90z m1386 20 c135 -34 303 -74 373 -91 71 -17 126
-33 124 -35 -4 -5 -175 -47 -364 -89 l-122 -28 -381 104 c-210 57 -376 105
-370 107 47 16 459 99 475 96 11 -3 130 -31 265 -64z m-3130 -20 c-190 -40
-230 -52 -230 -70 0 -27 64 -21 285 23 231 48 280 54 289 39 3 -5 -70 -23
-161 -41 -229 -46 -254 -54 -296 -100 -48 -53 -57 -106 -57 -331 0 -156 -2
-190 -14 -190 -20 0 -219 70 -233 82 -16 13 -16 118 -3 302 11 153 31 204 87
231 19 9 110 32 202 50 216 43 208 42 266 43 35 0 -4 -11 -135 -38z m909 -43
c10 -34 21 -94 22 -132 l4 -70 -32 -3 -33 -3 0 135 c0 80 4 136 10 136 5 0 18
-28 29 -63z m5398 6 c4 -21 8 -90 8 -153 l0 -115 -27 -55 c-15 -30 -41 -71
-57 -90 l-30 -35 -1 28 c0 16 12 79 26 140 14 62 28 122 31 135 8 32 -23 29
-41 -5 -16 -33 -51 -176 -62 -253 l-7 -55 -14 40 c-10 27 -13 69 -11 131 3 74
9 100 32 148 29 59 119 176 136 176 5 0 13 -17 17 -37z m-5833 -56 c20 -30 24
-65 36 -261 8 -135 8 -172 -2 -182 -20 -18 -556 -144 -614 -144 l-27 0 7 212
c7 238 18 283 75 312 24 13 349 84 451 98 32 5 56 -7 74 -35z m1934 -1 c87
-25 252 -70 367 -100 116 -31 217 -59 225 -62 16 -6 -1077 -283 -1119 -284
-13 0 -182 49 -375 109 -193 60 -373 116 -401 124 -56 17 -58 15 69 41 56 12
72 12 80 2 23 -27 74 -55 130 -71 47 -14 85 -16 185 -12 135 5 194 20 246 61
27 22 31 31 35 92 l5 68 170 37 c94 21 183 38 198 38 16 1 99 -19 185 -43z
m3511 -56 c61 -44 117 -136 126 -206 3 -30 4 -58 1 -62 -10 -9 -75 58 -112
114 -27 42 -74 156 -74 179 0 12 19 3 59 -25z m-2191 -32 l-3 -32 -255 -63
c-140 -34 -265 -65 -277 -68 -21 -5 -23 -2 -23 29 l0 35 43 12 c97 26 483 117
500 118 15 1 18 -5 15 -31z m-8 -237 l0 -130 -52 -15 c-112 -32 -473 -126
-485 -126 -10 0 -13 32 -13 134 l0 134 263 65 c144 36 268 66 275 66 9 1 12
-31 12 -128z m-633 -138 c-3 -2 -78 -24 -168 -48 -712 -190 -776 -206 -809
-202 -19 3 -74 17 -122 32 l-88 27 0 69 0 69 28 7 c15 3 281 70 592 148 l565
141 3 -119 c1 -66 1 -122 -1 -124z m-2103 217 c36 -12 66 -25 66 -30 0 -6 -5
-10 -10 -10 -6 0 -33 -21 -60 -46 -75 -70 -92 -123 -99 -319 l-6 -160 -41 0
c-22 0 -56 -8 -75 -17 -19 -10 -60 -24 -91 -33 -63 -17 -84 -40 -74 -81 4 -14
18 -29 34 -36 15 -6 71 -31 125 -56 l97 -45 0 -32 c0 -18 9 -44 21 -58 42 -55
160 -58 212 -6 l27 28 108 -39 c59 -21 189 -68 290 -104 141 -51 195 -66 237
-66 43 0 133 26 418 119 200 65 373 123 385 130 12 6 25 23 28 37 14 54 -7 62
-551 230 -302 93 -532 159 -565 162 -41 3 -93 -6 -200 -33 -80 -20 -153 -38
-164 -41 l-18 -6 3 115 c4 98 7 120 25 144 30 40 59 41 83 3 10 -17 21 -49 25
-70 4 -26 14 -43 28 -51 28 -15 110 -6 144 16 l27 17 -6 58 c-3 33 -16 80 -31
109 -14 28 -21 51 -16 51 10 0 362 -109 367 -114 2 -2 -36 -13 -84 -25 -141
-35 -162 -48 -148 -92 7 -22 48 -36 710 -234 1086 -327 1436 -432 1555 -470
41 -13 129 -40 195 -60 l120 -37 -160 -60 c-87 -32 -166 -57 -175 -55 -8 3
-149 48 -313 101 -354 115 -500 156 -541 155 l-31 0 40 -19 c22 -11 144 -51
270 -91 445 -138 525 -164 525 -169 0 -3 -48 -23 -106 -45 l-106 -38 -141 48
c-224 76 -352 129 -547 225 -182 89 -276 127 -287 116 -4 -3 -4 -8 -2 -10 2
-2 114 -57 249 -124 233 -114 381 -176 570 -237 47 -15 88 -31 93 -34 4 -4
-54 -30 -130 -58 l-137 -51 -185 65 c-592 208 -745 252 -906 261 -75 4 -93 2
-104 -12 -11 -13 -11 -20 3 -41 27 -42 93 -84 241 -155 140 -67 388 -168 520
-210 39 -12 74 -26 78 -30 7 -6 -284 -123 -308 -123 -6 0 -69 23 -140 51 -72
28 -269 105 -440 172 -553 218 -867 341 -995 390 -69 26 -431 168 -805 315
-374 146 -774 302 -890 347 -116 44 -213 83 -218 87 -4 4 28 14 72 22 l79 15
87 -38 c126 -55 743 -285 789 -293 26 -5 37 -4 33 3 -8 11 -150 69 -462 187
-388 148 -390 148 -369 157 10 4 75 19 143 33 l123 27 28 -27 c20 -19 77 -42
194 -81 92 -30 181 -54 197 -54 17 0 43 7 57 15 43 24 421 108 477 106 l50 -2
48 44 47 44 0 71 c0 40 3 72 7 72 4 0 62 -19 129 -42 113 -40 145 -44 130 -20
-3 5 -61 29 -128 53 l-123 43 130 32 c72 18 142 32 156 33 15 1 57 -8 93 -19z
m3960 -57 c18 -212 57 -612 61 -641 l6 -33 -35 -14 c-54 -23 -63 -20 -68 23
-3 20 -29 187 -58 370 -36 230 -49 337 -42 344 12 12 64 25 103 27 l26 1 7
-77z m142 38 l62 -29 6 -279 c4 -153 9 -294 11 -314 l5 -36 -46 -18 c-25 -9
-47 -16 -48 -14 -2 2 -18 155 -35 339 -17 184 -33 345 -35 358 -2 12 2 22 8
22 6 0 39 -13 72 -29z m1478 -33 c-29 -94 -96 -198 -159 -248 -47 -37 -115
-74 -122 -66 -11 10 50 91 120 160 45 44 66 71 59 78 -26 26 -144 -78 -214
-187 l-38 -60 6 35 c17 95 88 198 170 246 48 28 140 63 167 64 14 0 17 -5 11
-22z m-1824 -29 c0 -11 25 -174 55 -362 31 -188 51 -345 47 -349 -5 -5 -22
-10 -38 -11 l-29 -2 -78 315 c-86 350 -85 326 -16 401 38 42 59 44 59 8z
m-3525 -18 c23 -10 53 -33 68 -50 28 -34 63 -134 52 -151 -3 -5 -17 -10 -29
-10 -20 0 -26 8 -35 46 -7 26 -25 59 -40 75 -52 52 -112 50 -166 -4 -49 -49
-59 -113 -50 -332 4 -99 8 -220 8 -270 l2 -90 -50 0 -50 0 -3 94 c-2 67 1 99
11 115 10 15 16 77 21 220 5 168 10 206 27 246 25 58 64 97 115 115 52 19 71
18 119 -4z m4655 8 c60 -14 138 -54 177 -91 35 -34 68 -103 78 -163 l6 -40
-20 39 c-56 107 -166 208 -209 191 -12 -4 1 -22 55 -73 61 -59 111 -127 101
-137 -10 -11 -96 41 -144 87 -47 45 -144 173 -144 192 0 9 49 7 100 -5z m-565
-204 c15 -43 31 -126 39 -196 l13 -121 -34 -15 c-19 -7 -47 -16 -62 -19 l-28
-6 -6 198 c-4 108 -7 227 -7 263 l0 66 30 -48 c17 -26 42 -81 55 -122z m-1585
-315 c0 -240 -3 -340 -11 -340 -6 0 -128 36 -270 80 -143 44 -262 80 -264 80
-3 0 -4 84 -3 187 l3 186 265 72 c146 40 268 73 273 74 4 0 7 -152 7 -339z
m-1890 275 c0 -29 -4 -45 -12 -45 -7 0 -47 10 -88 23 l-75 23 80 21 c44 12 83
21 88 22 4 1 7 -19 7 -44z m1260 -190 c0 -256 3 -245 -59 -224 l-31 11 0 149
0 149 -19 19 -20 20 -108 -29 c-59 -16 -187 -51 -283 -76 l-174 -47 -66 17
c-64 18 -77 23 -69 29 7 6 793 215 812 216 l17 1 0 -235z m1555 -36 c39 -160
63 -278 59 -288 -4 -9 -10 -47 -13 -86 l-6 -70 -53 162 c-74 226 -85 285 -79
419 4 98 10 134 22 134 2 0 33 -122 70 -271z m-5180 -95 c264 -102 604 -235
755 -294 151 -59 460 -180 685 -268 457 -179 965 -378 1305 -512 l225 -88 3
-70 3 -71 -58 23 c-32 13 -335 135 -673 271 -338 136 -1103 443 -1700 682
-597 239 -1093 439 -1102 444 -14 7 -18 22 -18 59 l0 49 48 -19 c26 -11 263
-103 527 -206z m6670 169 c87 -4 140 -1 194 11 41 9 76 15 77 13 1 -1 0 -14
-3 -30 -5 -23 -14 -30 -62 -44 -70 -20 -254 -23 -331 -4 -59 14 -80 32 -80 67
l0 23 43 -16 c25 -9 90 -17 162 -20z m-3195 -109 c0 -97 -3 -125 -12 -121 -7
2 -98 30 -203 62 -104 31 -196 60 -203 64 -10 6 365 117 406 120 9 1 12 -30
12 -125z m-1183 7 c550 -170 688 -214 696 -220 7 -7 -386 -141 -411 -141 -6 0
-131 41 -278 90 -180 61 -282 90 -312 90 -25 0 -99 -14 -164 -31 -79 -21 -130
-29 -152 -25 l-34 6 -6 88 c-3 48 -7 101 -8 117 l-3 30 165 42 c91 23 177 42
192 43 15 0 157 -40 315 -89z m4142 -103 c16 -87 35 -167 41 -179 20 -35 95
-62 195 -67 104 -5 189 10 237 41 l33 23 28 139 c15 77 29 140 30 142 2 1 25
-4 52 -12 28 -7 77 -21 110 -30 l59 -17 -84 -43 c-89 -47 -127 -75 -99 -75 8
0 66 23 129 51 118 53 136 55 209 28 l26 -10 -170 -85 c-93 -46 -177 -92 -185
-100 l-15 -16 30 7 c16 3 112 46 212 95 l183 88 51 -13 c28 -8 53 -16 55 -18
3 -2 -14 -16 -36 -31 -64 -42 -155 -140 -205 -221 -25 -40 -51 -75 -58 -78 -7
-3 -130 -55 -275 -116 l-263 -111 -86 26 c-66 20 -83 28 -70 35 9 6 95 43 191
83 240 102 526 233 556 256 14 10 22 21 19 25 -8 8 -62 -14 -314 -128 -115
-52 -279 -125 -364 -162 l-154 -68 -99 32 c-55 18 -98 34 -96 36 2 1 94 37
205 80 111 43 200 82 197 87 -9 15 -56 1 -266 -79 l-197 -75 -216 67 c-118 38
-215 71 -215 75 0 11 234 114 314 139 133 41 140 21 19 -53 -45 -27 -87 -60
-94 -74 -12 -21 -11 -26 6 -38 23 -17 66 -18 120 -3 70 19 295 131 295 147 0
19 -8 16 -157 -52 -129 -58 -220 -89 -234 -80 -15 9 -2 21 87 75 95 57 122 91
89 115 -47 34 -168 2 -379 -100 l-129 -63 -86 28 -86 27 25 10 c72 29 387 148
545 206 226 84 225 83 225 96 0 15 -19 12 -91 -11 -88 -29 -575 -214 -671
-255 l-79 -33 -82 25 -82 26 225 78 c124 43 353 123 510 178 157 55 288 97
291 94 4 -4 21 -78 38 -164z m271 82 c47 0 113 6 148 14 l62 13 -1 -21 c-1
-12 -11 -68 -23 -126 l-21 -105 -40 -14 c-53 -18 -199 -17 -250 1 l-40 15 -22
104 c-12 57 -22 113 -23 125 l0 21 63 -13 c34 -8 100 -14 147 -14z m-5323 -42
c5 -7 8 -34 5 -60 l-4 -47 -29 15 c-22 11 -29 22 -29 43 0 16 3 36 6 45 7 19
38 21 51 4z m-130 -35 c-4 -3 -10 -3 -14 0 -3 4 0 7 7 7 7 0 10 -3 7 -7z
m-1615 -21 l37 -17 3 -377 c2 -285 6 -380 16 -390 9 -10 12 64 12 370 0 210 2
382 4 382 2 0 25 -9 50 -20 l46 -19 0 -118 c0 -65 -5 -185 -10 -268 -10 -148
-5 -232 10 -204 11 18 30 291 33 450 l2 127 103 -41 102 -40 0 -186 c0 -102 4
-192 9 -199 14 -22 21 50 21 216 0 84 4 152 9 152 5 0 39 -13 75 -30 l66 -29
0 -230 0 -230 -47 -6 c-27 -3 -80 -11 -119 -18 l-71 -13 -6 103 c-7 126 -34
276 -54 300 l-14 18 6 -50 c3 -27 12 -97 20 -155 8 -58 15 -132 15 -165 l0
-61 -57 -19 c-70 -24 -159 -80 -195 -124 -38 -44 -48 -89 -48 -209 0 -115 13
-158 62 -209 l30 -31 -41 -233 c-22 -127 -43 -234 -45 -236 -2 -3 -18 3 -35
12 l-31 16 0 328 c0 180 -3 585 -7 899 -4 344 -3 572 3 571 5 0 26 -8 46 -17z
m8154 -89 c-4 -21 -12 -96 -20 -168 -30 -287 -90 -820 -93 -824 -2 -3 -19 3
-39 12 l-35 17 5 88 c4 48 13 218 21 377 8 160 17 336 21 392 l6 102 51 20
c29 11 60 20 70 20 16 1 18 -4 13 -36z m142 17 c17 -11 32 -28 32 -37 0 -10
-18 -124 -40 -253 -22 -129 -58 -347 -81 -485 -22 -137 -43 -260 -46 -272 l-5
-22 -22 14 -22 15 13 117 c45 424 94 864 99 901 7 48 21 53 72 22z m-5712
-101 c115 -39 224 -75 243 -81 18 -5 29 -13 25 -17 -21 -18 -197 -63 -227 -58
-27 4 -486 164 -495 172 -5 5 185 53 214 54 17 1 125 -31 240 -70z m5360 -51
c-4 -46 -15 -242 -26 -437 -11 -195 -22 -356 -24 -359 -3 -3 -26 3 -51 12
l-45 18 0 358 0 359 66 65 c36 37 70 66 75 66 7 0 9 -28 5 -82z m463 -118 c1
-64 -6 -123 -19 -180 -24 -100 -112 -391 -117 -387 -3 3 100 620 114 682 l6
30 8 -25 c4 -14 7 -68 8 -120z m-2632 79 l93 -31 0 -43 0 -43 -89 28 c-48 15
-93 30 -100 34 -12 8 -16 86 -4 86 5 0 50 -14 100 -31z m-5037 -34 c52 -21
101 -42 108 -48 9 -7 12 -57 12 -190 l0 -180 -77 7 c-42 3 -96 6 -120 6 l-43
0 0 226 c0 177 3 225 13 221 6 -3 55 -22 107 -42z m5268 -39 l82 -28 0 -45 c0
-32 -4 -44 -12 -41 -7 3 -50 17 -95 32 l-83 28 0 45 c0 32 4 44 13 41 6 -3 49
-17 95 -32z m-5021 -61 l58 -23 0 -41 c-1 -23 -2 -99 -3 -170 l-2 -128 -81 20
c-72 19 -80 23 -75 41 3 12 6 92 6 179 l0 158 20 -6 c11 -3 46 -17 77 -30z
m5241 -9 l67 -23 3 -41 c2 -30 -1 -42 -10 -42 -7 0 -48 12 -90 26 l-78 26 0
44 0 45 21 -6 c11 -4 51 -17 87 -29z m-568 4 c12 -7 24 -34 35 -82 9 -40 18
-81 21 -90 3 -12 0 -18 -9 -18 -17 0 -18 3 -57 118 -28 81 -27 92 10 72z
m2072 -279 l-3 -289 -32 9 c-17 5 -47 9 -65 9 l-34 0 7 88 c9 126 31 248 59
328 26 77 57 144 65 144 3 0 5 -130 3 -289z m-6485 109 c64 -380 83 -602 83
-970 1 -163 4 -220 11 -207 17 28 23 421 10 607 -11 167 -51 466 -75 573 l-13
58 21 -7 c11 -3 36 -12 54 -20 l32 -13 0 -93 c0 -86 13 -211 72 -688 20 -157
22 -220 21 -605 -1 -236 3 -420 7 -409 14 35 30 334 30 539 0 227 -9 338 -56
720 -19 160 -38 343 -41 408 l-6 118 34 -14 34 -13 2 -80 c3 -196 50 -525 78
-553 13 -13 18 -12 41 10 14 13 35 42 46 64 31 60 78 259 85 363 3 51 9 91 12
90 3 -2 28 -12 54 -22 l48 -19 -7 -264 c-5 -174 -4 -263 3 -263 13 0 21 90 30
323 5 166 8 187 22 182 9 -3 35 -13 58 -23 l43 -17 0 -287 0 -287 -42 -11
c-178 -45 -300 -119 -339 -205 -15 -32 -19 -66 -19 -168 0 -139 8 -170 57
-228 l29 -34 -54 -310 c-29 -170 -55 -312 -58 -314 -2 -2 -34 12 -71 32 l-68
35 -17 104 c-10 57 -58 334 -108 617 l-89 515 29 30 c51 52 63 101 58 234 -3
79 -10 127 -21 148 -22 42 -86 98 -148 130 l-52 26 7 81 c3 45 6 121 6 169 l0
87 78 -32 77 -33 12 -74z m4547 129 c22 -10 36 -43 36 -85 0 -14 -38 -39 -47
-30 -10 10 -30 126 -22 126 4 0 19 -5 33 -11z m676 -37 l115 -38 3 -48 c2 -37
0 -47 -10 -44 -7 3 -66 23 -130 44 l-118 38 0 43 c0 28 4 43 13 42 6 0 64 -17
127 -37z m-541 -6 l24 -13 -21 -12 c-32 -17 -42 -13 -42 14 0 28 5 30 39 11z
m1645 -33 c-8 -26 -18 -50 -22 -54 -6 -5 -348 -153 -407 -175 -14 -6 -16 1
-13 42 l3 48 220 93 c121 51 223 93 227 93 3 0 0 -21 -8 -47z m-4501 6 c149
-30 282 -70 557 -169 135 -48 272 -96 305 -106 l60 -17 -39 -18 c-22 -9 -76
-30 -121 -45 l-81 -27 -185 66 c-102 36 -237 88 -300 115 -211 91 -389 188
-389 212 0 16 85 11 193 -11z m1997 -48 c0 -47 -4 -60 -17 -66 -120 -47 -353
-135 -358 -135 -3 0 -5 28 -3 61 l3 62 175 67 c96 37 181 68 188 69 8 1 12
-17 12 -58z m1678 -7 l92 -29 0 -48 c0 -35 -4 -48 -12 -45 -7 3 -57 20 -110
37 l-98 33 0 45 c0 38 3 45 18 40 9 -2 59 -17 110 -33z m-308 -79 c179 -58
330 -107 335 -109 12 -4 -97 -56 -270 -128 -98 -41 -134 -51 -196 -55 l-77 -5
-167 56 c-231 79 -326 116 -330 130 -2 6 -6 28 -9 49 l-5 38 47 21 c68 30 303
107 327 108 11 0 166 -47 345 -105z m-4845 7 l90 -38 -1 -85 c-3 -130 -81
-429 -113 -429 -10 0 -14 14 -35 140 -27 159 -52 450 -39 450 5 -1 49 -18 98
-38z m5374 3 c44 -14 83 -30 86 -36 4 -5 4 -27 0 -48 l-6 -39 -89 30 -88 29
-4 45 c-2 30 1 44 9 44 7 0 48 -11 92 -25z m-2321 -140 c-11 -11 -217 -95
-232 -95 -3 0 -6 29 -6 64 l0 64 123 45 122 45 3 -56 c2 -36 -1 -59 -10 -67z
m2882 63 c-5 -24 -11 -89 -15 -144 l-7 -101 -152 -52 c-83 -28 -155 -51 -159
-51 -4 0 -7 55 -7 123 l0 124 163 70 c89 39 167 71 173 72 8 1 9 -12 4 -41z
m-3152 -110 l-3 -63 -90 -36 c-49 -20 -116 -46 -148 -57 l-58 -22 3 67 3 68
135 52 c74 29 141 52 148 53 10 0 12 -16 10 -62z m498 -2215 c-4 -10 -76 -53
-89 -53 -2 0 -7 132 -10 293 -7 381 -17 445 -136 872 -53 190 -71 306 -71 449
0 67 -4 127 -9 134 -25 39 -29 -219 -6 -354 9 -49 44 -197 80 -329 96 -359
115 -498 115 -872 l0 -213 -50 -25 c-27 -14 -53 -25 -57 -25 -4 0 -8 143 -8
318 -1 356 -6 404 -74 683 -62 255 -73 327 -78 529 -4 147 -1 224 16 375 12
105 21 222 21 262 l0 72 53 19 c28 11 59 23 67 26 13 5 15 -15 11 -160 -4
-199 12 -442 39 -591 23 -129 136 -579 151 -602 23 -35 -2 111 -56 329 -31
124 -62 266 -70 316 -20 120 -36 402 -34 582 l2 144 21 7 c12 5 30 11 41 15
l20 6 -3 -218 c-2 -127 1 -256 8 -311 13 -106 43 -228 59 -244 15 -15 14 -10
-10 123 -17 93 -22 168 -26 388 l-5 272 43 20 44 19 3 -1122 c1 -617 0 -1127
-2 -1134z m2004 2210 c-12 -21 -59 -47 -195 -111 -228 -106 -304 -132 -390
-132 -85 0 -138 14 -359 95 -220 80 -271 107 -286 148 -5 17 -9 32 -7 34 2 2
30 -9 63 -23 92 -41 378 -142 468 -166 145 -37 229 -17 575 142 131 60 159 62
131 13z m-6030 27 c153 -25 295 -91 333 -157 l18 -32 -16 -35 c-28 -59 -135
-118 -275 -151 -110 -26 -340 -31 -459 -11 -158 28 -293 93 -327 158 l-16 31
15 33 c30 62 144 122 297 154 98 21 325 26 430 10z m1385 -96 l215 -86 0 -157
c0 -86 3 -174 7 -195 l6 -39 -29 6 c-58 13 -281 19 -351 10 l-73 -9 0 278 c0
153 2 278 5 278 3 0 102 -39 220 -86z m4833 54 l53 -13 -3 -119 -3 -119 -67
-28 c-36 -15 -69 -25 -72 -21 -3 3 -6 77 -6 165 l0 159 23 -6 c12 -3 46 -11
75 -18z m-3025 -169 c-3 -7 -253 -103 -256 -98 -1 2 -1 34 1 70 l4 66 121 45
122 44 5 -60 c3 -34 4 -64 3 -67z m2854 69 c-3 -8 -6 -5 -6 6 -1 11 2 17 5 13
3 -3 4 -12 1 -19z m-2423 -240 c-23 -204 -26 -259 -21 -443 5 -229 14 -292 78
-548 66 -271 74 -342 74 -695 l0 -313 -74 -41 -74 -41 6 99 c3 54 11 177 18
272 8 129 8 208 -1 315 -11 142 -24 217 -38 217 -46 -2 -132 -323 -150 -560
-8 -107 -2 -303 10 -315 2 -3 8 72 11 167 8 193 16 265 52 418 40 174 61 244
68 227 3 -9 11 -80 17 -159 8 -104 8 -187 1 -303 -6 -88 -14 -212 -18 -275
l-6 -115 -98 -52 -98 -52 -7 22 c-4 12 -7 112 -7 222 0 222 11 316 67 550 67
279 71 314 71 705 0 350 -10 742 -22 830 l-6 45 -9 -30 c-6 -18 -6 -127 -1
-275 4 -135 8 -391 8 -570 0 -363 -8 -435 -71 -691 -66 -270 -86 -492 -62
-702 l14 -119 -39 -19 c-21 -11 -42 -17 -45 -14 -4 4 -7 133 -6 288 0 325 8
396 84 753 74 346 82 408 82 594 0 172 -31 463 -51 483 -16 16 -13 -95 4 -223
19 -139 19 -367 -1 -499 -8 -58 -37 -209 -64 -336 -81 -383 -83 -409 -85 -769
l-1 -318 -34 -19 c-19 -10 -37 -18 -40 -19 -3 0 -5 24 -5 53 2 148 -16 452
-30 527 -20 105 -35 155 -92 295 -64 159 -84 253 -84 399 0 137 8 196 56 417
41 184 58 352 53 519 l-3 120 29 10 c16 6 32 7 35 4 12 -12 13 -210 1 -303 -6
-53 -29 -187 -51 -299 -46 -238 -60 -381 -49 -483 19 -162 79 -289 136 -289
30 0 68 47 94 116 54 145 100 387 100 527 0 41 -11 156 -24 254 -28 204 -46
388 -46 484 l0 66 183 71 c100 39 183 67 185 62 2 -4 -9 -113 -24 -242z m2390
110 c22 -80 26 -108 20 -163 -4 -36 -10 -62 -14 -58 -9 9 -93 314 -88 317 2 2
12 8 23 14 25 13 26 12 59 -110z m-1095 76 c4 -4 -25 -104 -143 -479 -97 -313
-110 -348 -123 -353 -8 -2 -13 5 -13 18 0 17 105 411 202 753 l22 78 25 -6
c14 -4 28 -9 30 -11z m-2009 -59 l0 -64 -27 -15 c-26 -13 -291 -116 -300 -116
-2 0 -3 32 -1 71 l3 71 155 59 c85 32 158 58 163 58 4 1 7 -28 7 -64z m-1147
9 c62 -25 144 -59 183 -75 l71 -30 7 -117 c10 -178 36 -454 46 -482 14 -42 12
140 -5 366 -9 114 -14 209 -11 212 3 2 31 -6 62 -18 l57 -23 -6 -361 c-3 -199
-11 -394 -17 -434 -6 -40 -10 -87 -8 -105 l4 -32 13 44 c28 96 32 158 38 509
3 199 8 362 11 362 4 0 33 -10 65 -22 l59 -23 -5 -350 c-4 -303 -8 -376 -31
-545 -23 -173 -34 -341 -22 -329 11 11 60 371 76 549 6 69 10 245 10 393 0
147 1 267 3 267 1 0 35 -14 76 -30 86 -35 113 -37 175 -10 l46 19 0 -1195 0
-1195 -59 33 c-46 26 -61 39 -65 62 -3 16 -6 128 -6 250 0 214 11 347 46 580
13 89 13 118 -1 105 -12 -13 -37 -139 -55 -284 -15 -115 -21 -217 -21 -362 0
-111 3 -226 7 -254 l7 -52 -69 38 c-38 20 -76 44 -84 52 -13 12 -15 64 -14
356 0 381 6 439 84 823 62 308 70 376 70 631 0 126 -3 233 -7 237 -5 4 -13
-115 -19 -266 l-12 -273 -45 -225 c-58 -283 -73 -373 -92 -535 -19 -156 -21
-500 -4 -633 6 -51 10 -95 7 -97 -3 -4 -158 73 -158 78 0 7 -206 1201 -228
1323 l-18 101 29 34 c49 57 57 88 57 216 0 65 -5 135 -11 156 -22 81 -116 152
-268 203 l-96 32 -3 186 c-2 126 1 186 8 186 6 0 61 -21 123 -46z m4151 -147
c26 -93 46 -170 44 -173 -3 -2 -87 24 -187 58 -198 66 -201 69 -201 142 l0 33
46 18 c26 10 90 37 143 61 53 24 99 40 102 36 3 -4 27 -83 53 -175z m-771 118
l137 -49 -5 -106 c-3 -58 -8 -137 -11 -176 l-5 -70 -86 -37 -85 -36 -102 41
c-55 23 -106 45 -113 50 -13 10 -16 0 64 256 31 100 59 181 63 180 3 -2 68
-25 143 -53z m1693 44 l44 -11 -2 -222 -3 -221 -74 -3 -74 -3 7 193 c4 106 9
212 12 236 7 47 14 50 90 31z m-182 -71 c-2 -35 -7 -133 -10 -220 l-6 -156
-67 23 c-165 56 -443 174 -454 192 -18 28 86 73 488 211 52 18 53 17 49 -50z
m351 18 l35 -15 0 -69 c0 -38 -3 -117 -6 -175 l-7 -106 -30 -11 c-16 -5 -34
-10 -38 -10 -5 0 -9 90 -9 200 0 131 4 200 10 200 6 0 26 -7 45 -14z m-3751
-153 c3 -82 18 -229 31 -328 14 -99 28 -216 31 -260 11 -142 -38 -420 -102
-579 -42 -106 -66 -111 -108 -22 -71 150 -73 321 -8 656 54 276 66 378 60 525
l-5 123 36 15 c20 8 41 15 47 16 7 1 13 -49 18 -146z m3906 92 c25 -13 28 -19
24 -47 -3 -18 -8 -71 -12 -118 l-7 -84 -27 -15 c-15 -9 -29 -13 -32 -10 -9 9
6 289 16 289 5 0 22 -7 38 -15z m-7845 -30 c118 -71 276 -105 486 -105 209 0
391 40 497 109 l47 31 3 -21 c10 -62 -38 -114 -145 -159 -100 -42 -197 -61
-343 -67 -245 -11 -455 39 -558 131 -31 29 -41 45 -44 76 -2 22 -3 40 -2 40 1
0 27 -16 59 -35z m6054 -157 c1 -54 -1 -98 -3 -98 -2 0 -11 -3 -20 -6 -12 -5
-14 1 -11 28 3 18 8 87 12 153 6 105 8 114 14 70 4 -27 8 -94 8 -147z m151
-432 c11 -385 9 -420 -24 -386 -11 12 -18 89 -30 325 -8 171 -18 378 -21 460
-3 83 -8 164 -11 182 l-5 32 33 3 33 3 7 -120 c3 -66 11 -291 18 -499z m-2493
402 c-8 -205 -13 -247 -62 -468 -45 -203 -59 -323 -51 -441 7 -120 31 -210 96
-373 84 -211 102 -320 115 -688 l7 -177 -51 -25 c-28 -14 -52 -26 -54 -26 -2
0 -7 91 -10 203 -7 233 -22 319 -91 533 -53 167 -82 304 -92 431 -4 57 -11 90
-17 86 -6 -4 -8 -51 -4 -127 6 -126 32 -253 82 -396 68 -196 98 -400 93 -624
l-3 -129 -45 -23 -45 -23 -6 162 c-6 167 -9 195 -36 332 -16 84 -49 175 -64
175 -12 0 -11 -9 6 -66 31 -101 56 -281 62 -449 l6 -170 -50 -28 c-28 -15 -53
-27 -57 -27 -3 0 -5 545 -4 1211 l3 1211 59 24 c47 19 62 21 68 12 10 -15 2
-232 -13 -328 -5 -36 -26 -132 -45 -214 -19 -81 -33 -151 -30 -153 3 -3 9 3
12 13 4 10 16 41 26 69 55 143 95 402 84 547 l-7 88 43 20 c24 10 52 19 62 19
l19 1 -6 -182z m4254 161 c17 -9 19 -17 13 -62 -9 -70 -20 -97 -40 -97 -14 0
-16 8 -10 53 3 28 6 67 6 85 0 35 2 37 31 21z m-1122 -154 c65 -32 381 -158
451 -179 30 -9 96 -19 145 -22 155 -10 350 41 549 143 l96 50 0 -22 c0 -28
-52 -76 -118 -109 -83 -42 -244 -98 -337 -117 -178 -37 -275 -23 -524 77 -179
72 -276 117 -303 142 -16 14 -26 62 -13 62 3 0 28 -11 54 -25z m-6784 -47 c14
-6 25 -14 25 -18 0 -10 -147 -872 -163 -958 -12 -60 -20 -79 -45 -102 -17 -15
-34 -40 -38 -54 -8 -34 2 -85 21 -106 13 -14 11 -36 -14 -179 -16 -89 -33
-167 -39 -173 -18 -18 -47 -4 -50 23 -3 25 44 309 147 894 27 154 64 366 81
470 33 199 36 215 44 215 3 0 17 -5 31 -12z m942 -225 c23 -131 85 -487 138
-792 52 -305 93 -561 91 -568 -8 -19 -53 -16 -61 5 -4 9 -19 85 -34 168 l-27
152 18 22 c20 25 24 90 7 123 -6 12 -22 31 -35 42 l-24 20 -90 519 c-50 285
-90 520 -90 522 0 6 41 22 56 23 6 1 28 -99 51 -236z m1272 171 c188 -34 331
-118 331 -196 0 -54 -73 -119 -178 -158 -110 -41 -199 -54 -367 -55 -179 0
-260 12 -379 57 -99 38 -176 106 -176 156 0 95 200 191 440 211 114 9 215 5
329 -15z m-2016 0 l17 -5 0 -170 c0 -94 4 -169 9 -169 15 0 23 116 16 232 l-7
111 17 -6 c9 -4 28 -7 41 -7 l24 0 0 -306 c0 -168 -3 -304 -7 -302 -5 2 -38
19 -75 38 l-68 34 -1 96 c0 52 -4 115 -7 140 -11 69 -24 25 -30 -102 l-5 -107
-48 25 c-27 13 -49 26 -49 29 0 2 18 108 40 234 22 126 40 235 40 241 0 12 42
9 93 -6z m561 -11 c3 -16 26 -147 51 -293 26 -146 59 -339 76 -429 16 -90 29
-165 29 -167 0 -2 -62 27 -138 65 l-139 70 0 268 c0 164 -4 278 -10 293 l-11
25 -7 -39 c-4 -22 -5 -151 -3 -288 3 -136 4 -248 2 -248 -1 0 -15 5 -29 12
l-25 11 0 357 0 357 83 15 c116 22 115 22 121 -9z m-284 -939 c0 -619 -3 -932
-10 -945 -12 -21 -40 -25 -58 -7 -9 9 -12 233 -12 945 l0 933 40 0 40 0 0
-926z m5532 816 c2 -44 -1 -80 -5 -80 -4 0 -36 12 -70 26 -34 15 -78 33 -97
41 l-34 15 89 39 c50 21 95 38 102 39 8 0 13 -27 15 -80z m858 44 c0 -7 -209
-734 -226 -786 -10 -30 -21 -48 -31 -48 -12 0 -14 7 -8 38 7 40 192 789 200
809 3 9 12 10 35 2 16 -6 30 -13 30 -15z m1128 -131 c77 -289 172 -657 178
-687 6 -37 -7 -54 -25 -32 -6 7 -32 83 -57 167 -25 85 -72 246 -105 359 -34
113 -66 222 -72 244 -10 34 -9 40 8 52 10 8 24 14 30 14 7 0 26 -53 43 -117z
m-917 48 c52 -21 114 -45 139 -52 47 -13 67 -25 58 -34 -3 -3 -18 1 -34 10
-41 21 -92 19 -181 -10 -43 -14 -81 -25 -85 -25 -5 0 -8 34 -8 75 0 41 4 75 9
75 5 0 51 -18 102 -39z m779 -61 c11 -38 29 -102 41 -141 11 -39 19 -73 16
-75 -5 -5 -407 188 -407 196 0 3 33 12 73 19 39 7 108 25 152 41 44 15 85 28
92 29 7 1 21 -30 33 -69z m-435 -312 c3 -161 5 -394 3 -518 -3 -200 -5 -225
-20 -228 -9 -2 -19 5 -22 15 -4 16 -11 175 -32 826 l-6 197 35 0 35 0 7 -292z
m-402 39 c64 -32 117 -62 117 -67 0 -4 -17 -14 -37 -23 l-37 -14 -110 49 c-61
27 -114 52 -118 56 -4 4 8 58 25 120 l32 113 5 -88 5 -88 118 -58z m-468 183
c44 -12 84 -26 89 -30 7 -7 -10 -80 -20 -80 -2 0 -56 23 -119 51 -63 28 -112
56 -109 61 9 14 46 27 64 23 8 -2 51 -13 95 -25z m661 6 l19 -14 -98 -48 c-85
-41 -101 -46 -130 -38 -21 7 -33 17 -35 31 -3 18 8 25 85 51 100 35 131 38
159 18z m-5578 -126 c286 -89 683 -59 871 66 23 15 44 24 47 21 4 -3 3 -22 0
-42 -16 -81 -127 -146 -318 -186 -89 -18 -125 -20 -268 -16 -91 3 -194 12
-230 20 -191 44 -300 120 -300 210 l0 26 68 -40 c37 -22 95 -48 130 -59z
m5923 76 l53 -23 -48 -22 c-27 -11 -52 -21 -57 -21 -5 0 -9 20 -9 45 0 25 2
45 4 45 2 0 27 -11 57 -24z m-281 -91 l0 -65 -25 -10 c-20 -8 -35 -3 -80 23
-30 18 -55 34 -55 37 0 6 140 78 153 79 4 1 7 -28 7 -64z m-680 -134 c-6 -27
-19 -56 -29 -65 -21 -19 -151 -79 -158 -72 -3 2 3 21 13 41 11 24 43 55 98 94
44 32 83 57 85 55 2 -2 -2 -25 -9 -53z m-6434 -48 c79 -42 144 -80 144 -83 0
-7 -344 -170 -349 -165 -5 5 51 325 57 325 2 0 69 -35 148 -77z m1399 25 c14
-6 25 -14 25 -19 0 -4 -7 -42 -15 -85 -13 -73 -51 -287 -140 -807 l-34 -199
-36 -39 c-28 -31 -35 -47 -35 -79 0 -21 7 -55 16 -74 l17 -34 -27 -153 c-14
-85 -26 -157 -26 -161 0 -9 -30 -38 -40 -38 -5 0 -15 7 -23 15 -11 11 -13 24
-6 60 7 37 235 1348 271 1563 6 34 15 62 19 62 4 0 20 -5 34 -12z m915 4 c0
-4 11 -70 25 -147 141 -806 255 -1481 255 -1510 0 -26 -31 -39 -54 -21 -9 7
-24 71 -41 173 l-28 161 23 47 c20 41 21 51 11 85 -6 22 -24 49 -40 62 l-29
23 -91 530 c-51 292 -94 542 -97 556 -4 20 0 28 18 37 28 13 48 15 48 4z
m4810 -52 l0 -60 -65 32 c-36 18 -65 35 -65 38 0 6 99 48 118 49 8 1 12 -17
12 -59z m-5487 -12 l87 -12 0 -383 0 -382 -20 -6 c-12 -4 -36 4 -65 20 l-45
27 0 261 c0 144 -3 273 -7 286 l-6 25 -8 -20 c-4 -10 -8 -135 -8 -276 -1 -142
-4 -258 -7 -258 -18 0 -164 86 -164 96 0 12 46 279 91 527 l21 119 22 -6 c11
-3 60 -12 109 -18z m532 -10 c3 -18 16 -94 30 -168 31 -172 135 -776 135 -784
0 -3 -34 11 -75 31 l-75 37 0 250 c0 197 -3 247 -12 238 -9 -9 -14 -79 -16
-242 l-4 -229 -94 47 -94 47 0 387 0 388 33 1 c17 0 57 7 87 14 79 18 79 18
85 -17z m-285 -998 l0 -989 -19 -11 c-25 -13 -27 -13 -45 6 -14 14 -16 118
-16 1000 l0 984 40 0 40 0 0 -990z m-1730 842 l0 -29 -160 -76 c-89 -42 -171
-79 -184 -83 -29 -7 -53 18 -33 35 12 9 366 181 374 181 2 0 3 -13 3 -28z
m598 -150 c28 -18 28 -30 -2 -38 -17 -4 -69 17 -190 74 l-166 81 0 30 0 30
168 -81 c92 -45 177 -88 190 -96z m-598 -98 c0 -69 -3 -124 -8 -122 -47 20
-242 124 -242 129 0 6 227 117 243 118 4 1 7 -56 7 -125z m482 8 c4 -4 -49
-36 -117 -70 l-125 -62 0 125 0 124 118 -55 c64 -30 120 -58 124 -62z m-696
-113 l214 -110 0 -30 c0 -21 -4 -29 -13 -27 -32 7 -440 224 -444 235 -7 18 4
43 18 43 6 0 108 -50 225 -111z m903 93 c5 -10 7 -23 3 -29 -7 -11 -432 -233
-446 -233 -4 0 -6 14 -4 32 l3 31 210 108 c116 60 213 109 217 109 4 0 12 -8
17 -18z m641 -352 c55 -28 100 -54 100 -58 0 -7 -241 -124 -246 -119 -2 2 6
52 16 112 11 59 20 110 20 112 0 7 15 1 110 -47z m240 -118 l0 -28 -186 -89
c-146 -70 -189 -87 -202 -78 -10 5 -17 16 -17 23 0 7 88 55 195 106 107 51
198 93 203 93 4 1 7 -12 7 -27z m440 -75 c101 -51 186 -98 188 -105 2 -6 -7
-16 -20 -21 -19 -7 -55 8 -195 78 l-173 86 0 27 c0 16 3 28 8 27 4 0 90 -42
192 -92z m-440 -182 c0 -74 -3 -135 -6 -135 -13 0 -263 136 -261 142 3 9 238
126 255 127 9 1 12 -32 12 -134z m372 68 c65 -31 117 -60 116 -65 -2 -5 -58
-38 -126 -73 l-122 -65 0 130 c0 72 3 130 7 130 3 0 60 -26 125 -57z m-596
-180 l224 -118 0 -32 c0 -18 -4 -33 -8 -33 -12 0 -455 240 -471 255 -17 17 -8
45 15 45 10 0 118 -53 240 -117z m929 88 c0 -21 -29 -39 -230 -147 l-230 -123
-3 31 c-2 17 0 34 5 39 19 19 429 228 443 226 8 -1 15 -13 15 -26z"/>
<path d="M1163 8339 c-10 -10 -13 -245 -13 -1105 0 -980 2 -1094 16 -1108 8
-9 17 -16 19 -16 1 0 125 16 275 35 150 19 279 40 286 46 12 10 14 180 14
1039 l0 1027 -17 15 c-13 11 -92 23 -268 42 -137 16 -261 30 -275 33 -14 2
-31 -1 -37 -8z m287 -94 c118 -14 221 -25 228 -25 10 0 12 -63 10 -297 l-3
-298 -45 2 c-25 1 -129 5 -232 9 l-188 6 0 314 c0 173 4 314 8 314 4 0 105
-11 222 -25z m198 -691 l42 -5 0 -350 c0 -313 -2 -349 -16 -349 -28 0 -357
-20 -406 -25 l-48 -4 0 375 0 375 193 -6 c105 -3 211 -8 235 -11z m40 -1041
l-3 -268 -210 -27 c-115 -14 -220 -27 -232 -27 l-23 -1 0 280 c0 154 3 280 8
281 25 3 385 26 420 28 l42 1 -2 -267z"/>
<path d="M1801 6476 c-8 -9 -11 -61 -9 -161 3 -130 5 -149 21 -159 15 -9 21
-7 33 9 22 29 16 301 -6 315 -20 13 -26 12 -39 -4z"/>
<path d="M2070 8221 c-7 -13 -10 -342 -10 -995 0 -873 2 -976 16 -990 8 -9 18
-16 21 -16 35 0 424 53 441 60 l22 10 0 939 c0 739 -3 941 -12 949 -11 8 -402
62 -453 62 -8 0 -19 -9 -25 -19z m275 -79 l140 -17 3 -263 2 -262 -112 0 c-62
0 -143 3 -180 7 l-68 6 0 273 0 274 38 -1 c20 0 100 -8 177 -17z m33 -612
l112 0 0 -320 0 -320 -52 0 c-29 0 -110 -3 -180 -7 l-128 -6 0 333 0 333 68
-6 c37 -4 118 -7 180 -7z m112 -945 l0 -245 -22 -4 c-32 -7 -290 -36 -316 -36
l-22 0 0 250 c0 192 3 252 13 255 6 2 84 8 172 13 88 5 163 10 168 10 4 1 7
-108 7 -243z"/>
<path d="M1992 6498 c-14 -14 -17 -285 -3 -306 4 -8 19 -12 32 -10 l24 3 3
143 c3 141 -4 182 -31 182 -7 0 -18 -5 -25 -12z"/>
<path d="M3282 7478 c-8 -8 -12 -55 -12 -144 0 -113 2 -133 16 -138 36 -14 44
11 44 143 0 118 -7 151 -30 151 -3 0 -11 -5 -18 -12z"/>
<path d="M3533 7483 c-10 -4 -13 -42 -13 -144 l0 -140 28 3 27 3 3 115 c1 63
0 125 -3 136 -5 23 -22 34 -42 27z"/>
<path d="M5435 6710 c-3 -5 1 -56 9 -113 9 -57 19 -175 22 -263 l7 -159 -27
-13 c-20 -9 -27 -18 -24 -35 2 -17 10 -23 39 -25 65 -5 69 7 69 194 0 170 -13
335 -31 392 -8 24 -16 32 -34 32 -13 0 -27 -4 -30 -10z"/>
<path d="M5420 5855 c0 -15 7 -28 18 -32 9 -4 20 -11 24 -17 18 -26 1 -399
-23 -514 -8 -40 -8 -56 1 -67 19 -22 49 -18 59 8 19 49 31 210 31 409 0 233
-1 238 -71 238 l-39 0 0 -25z"/>
<path d="M1087 5273 c-4 -3 -7 -14 -7 -24 0 -13 -9 -19 -32 -21 -25 -2 -34 -8
-36 -25 -2 -16 5 -28 28 -42 l32 -19 1 -118 2 -119 20 0 20 0 3 118 3 117 19
0 c10 0 22 9 26 22 5 17 0 27 -20 43 -16 13 -26 31 -26 48 0 25 -18 36 -33 20z"/>
<path d="M3485 5370 c-56 -14 -86 -31 -95 -55 -21 -55 45 -88 180 -89 145 -1
229 39 200 95 -7 11 -28 28 -48 36 -45 19 -182 26 -237 13z m204 -59 c10 -6
10 -10 1 -16 -19 -12 -133 -18 -184 -11 -47 7 -60 21 -28 29 31 8 197 7 211
-2z"/>
<path d="M3818 5264 c-29 -9 -54 -24 -64 -39 l-16 -25 15 -24 c25 -37 79 -51
197 -51 86 0 114 4 152 22 57 26 69 55 38 88 -12 13 -41 28 -65 34 -61 15
-200 13 -257 -5z m249 -52 l18 -11 -30 -11 c-32 -12 -218 -10 -231 3 -21 21
52 37 148 33 42 -2 84 -9 95 -14z"/>
<path d="M3275 5149 c-113 -11 -176 -49 -161 -97 15 -46 140 -78 272 -69 105
8 170 34 180 73 17 69 -113 110 -291 93z m175 -60 c27 -6 50 -14 50 -19 0 -29
-274 -40 -302 -12 -16 16 -8 21 43 31 64 13 150 13 209 0z"/>
<path d="M4845 4994 c-112 -27 -132 -40 -112 -68 l13 -17 69 16 c39 8 94 22
123 31 46 13 53 18 50 37 -4 30 -25 30 -143 1z"/>
<path d="M4283 5048 c-26 -30 -34 -64 -22 -96 13 -34 38 -51 72 -52 40 0 62
14 77 49 14 34 7 77 -17 104 -24 25 -84 23 -110 -5z m75 -52 c4 -20 -16 -48
-29 -40 -11 6 -12 48 -2 58 11 10 28 1 31 -18z"/>
<path d="M4075 4995 c-52 -51 -16 -148 55 -148 71 0 107 97 55 148 -15 16 -36
25 -55 25 -19 0 -40 -9 -55 -25z m75 -58 c0 -29 -7 -37 -26 -30 -14 5 -19 35
-7 46 14 15 33 6 33 -16z"/>
<path d="M3641 4886 c-12 -13 -24 -39 -28 -59 -5 -31 -1 -40 25 -67 36 -35 69
-38 105 -10 34 27 44 78 23 118 -25 49 -87 58 -125 18z m77 -70 c-2 -13 -10
-21 -23 -21 -23 0 -32 30 -14 51 16 19 41 -1 37 -30z"/>
<path d="M3429 4831 c-28 -29 -31 -36 -26 -74 4 -26 14 -48 27 -59 54 -44 130
-3 130 70 0 49 -24 80 -67 88 -27 5 -37 1 -64 -25z m75 -46 c8 -21 -3 -45 -20
-45 -8 0 -17 7 -20 15 -8 21 2 45 20 45 7 0 16 -7 20 -15z"/>
<path d="M2015 4830 c-3 -6 0 -12 7 -15 47 -17 193 -65 200 -65 4 0 8 7 8 15
0 9 -33 24 -95 45 -106 33 -111 34 -120 20z"/>
<path d="M1752 4748 c5 -14 390 -156 426 -157 44 -2 20 18 -60 49 -155 60
-330 120 -350 120 -11 0 -18 -5 -16 -12z"/>
<path d="M1055 4729 c9 -14 78 -44 357 -155 374 -148 388 -153 388 -135 0 11
-93 53 -350 157 -200 81 -372 144 -392 144 -5 0 -6 -5 -3 -11z"/>
<path d="M1540 4675 c0 -10 69 -39 217 -91 85 -30 159 -54 164 -54 26 0 2 20
-52 45 -136 61 -329 120 -329 100z"/>
<path d="M1762 4318 c7 -21 553 -238 598 -238 46 0 13 21 -107 68 -256 100
-473 182 -484 182 -6 0 -9 -6 -7 -12z"/>
<path d="M4100 4261 c0 -13 91 -42 305 -97 99 -25 263 -73 364 -105 101 -33
193 -59 205 -57 l21 4 -31 16 c-57 31 -327 116 -575 183 -244 65 -289 73 -289
56z"/>
<path d="M3580 4093 c0 -11 90 -47 416 -167 256 -94 347 -121 341 -103 -3 12
-149 70 -504 201 -184 68 -253 87 -253 69z"/>
<path d="M2610 4002 c0 -5 15 -17 33 -25 62 -30 1132 -456 1161 -463 22 -5 28
-4 24 7 -6 18 -1092 460 -1191 484 -16 4 -27 3 -27 -3z"/>
<path d="M4642 4638 c-14 -14 -17 -245 -3 -266 5 -8 17 -12 27 -10 l19 3 3
129 c2 86 -1 133 -9 142 -14 17 -21 18 -37 2z"/>
<path d="M2836 4593 c-3 -3 -6 -53 -6 -110 0 -81 3 -103 14 -103 9 0 16 20 21
65 9 92 -6 171 -29 148z"/>
<path d="M1230 3920 c0 -40 4 -70 10 -70 6 0 10 30 10 70 0 40 -4 70 -10 70
-6 0 -10 -30 -10 -70z"/>
<path d="M2227 3367 c-10 -34 -31 -82 -47 -107 -16 -25 -36 -62 -45 -82 -20
-48 -37 -172 -28 -205 5 -21 10 -7 24 63 12 60 33 119 64 180 36 71 64 162 65
212 0 1 -3 2 -7 2 -5 0 -16 -28 -26 -63z"/>
<path d="M2786 3394 c-8 -20 -8 -143 0 -183 12 -61 24 -18 24 90 0 100 -9 133
-24 93z"/>
<path d="M2620 3251 c0 -38 5 -73 10 -76 6 -4 10 20 10 64 0 38 -4 73 -10 76
-6 4 -10 -20 -10 -64z"/>
<path d="M3178 3284 c-11 -10 -10 -182 1 -188 11 -7 19 101 12 155 -3 22 -9
37 -13 33z"/>
<path d="M3910 2180 c0 -7 3 -10 7 -7 3 4 3 10 0 14 -4 3 -7 0 -7 -7z"/>
<path d="M3888 2095 c-58 -174 -89 -338 -87 -470 l2 -90 14 95 c14 90 44 243
78 394 9 39 15 81 13 95 -3 22 -6 17 -20 -24z"/>
<path d="M3516 2093 c-23 -136 -12 -661 14 -687 8 -8 9 89 4 354 -4 201 -8
366 -9 368 -1 1 -5 -14 -9 -35z"/>
<path d="M4526 2692 c-9 -17 -26 -65 -38 -109 -17 -60 -22 -105 -23 -193 0
-132 13 -175 55 -175 33 0 56 47 77 157 18 96 14 268 -8 314 -19 40 -44 42
-63 6z m51 -130 c7 -120 -29 -322 -58 -322 -11 0 -19 28 -25 99 -7 74 7 180
38 280 16 52 22 62 30 48 5 -10 12 -57 15 -105z"/>
<path d="M1435 2885 c-8 -52 2 -488 14 -585 l7 -55 6 104 c8 118 0 511 -12
556 l-7 30 -8 -50z"/>
<path d="M2924 2133 c-8 -81 2 -321 15 -354 7 -16 10 45 10 193 1 216 -11 291
-25 161z"/>
</g>
</svg>
