<?xml version="1.0" standalone="no"?>
<!DOCTYPE svg PUBLIC "-//W3C//DTD SVG 20010904//EN"
 "http://www.w3.org/TR/2001/REC-SVG-20010904/DTD/svg10.dtd">
<svg version="1.0" xmlns="http://www.w3.org/2000/svg"
 width="929.000000pt" height="697.000000pt" viewBox="0 0 929.000000 697.000000"
 preserveAspectRatio="xMidYMid meet"><g transform="translate(0.000000,697.000000) scale(0.100000,-0.100000)"
fill="#000000" stroke="none">
<path d="M1166 6798 c-14 -13 -100 -158 -192 -323 -92 -165 -296 -532 -454
-816 -158 -283 -299 -538 -314 -567 l-26 -51 2 -2403 3 -2403 4449 -3 c3281
-1 4452 1 4462 9 12 10 14 404 14 2401 l0 2390 -107 192 c-607 1091 -802 1440
-830 1493 -19 34 -46 71 -60 83 l-26 20 -3448 0 -3448 0 -25 -22z m6920 -26
c6 -4 25 -34 44 -67 18 -33 61 -109 95 -170 34 -60 145 -258 246 -440 100
-181 274 -494 386 -695 l203 -364 1 -221 c1 -121 3 -233 5 -249 2 -16 -1 -25
-5 -20 -5 5 -48 81 -96 169 -48 88 -125 228 -170 310 -74 134 -239 437 -523
955 -230 421 -356 647 -379 678 l-24 32 -3228 0 -3228 0 -16 -17 c-15 -17
-177 -309 -544 -978 -290 -528 -579 -1058 -606 -1110 l-26 -50 -1 249 0 250
184 330 c101 182 259 466 351 631 92 165 226 406 298 535 72 129 136 238 141
242 6 4 1557 8 3446 8 1889 0 3440 -4 3446 -8z m-236 -137 l0 -25 -3210 0
-3210 0 0 25 0 25 3210 0 3210 0 0 -25z m78 -90 c48 -85 128 -231 507 -925
161 -294 367 -670 458 -836 90 -166 166 -316 169 -334 l5 -33 -14 19 c-8 10
-64 111 -125 224 -112 206 -191 350 -516 945 -96 176 -205 376 -242 445 -37
69 -117 218 -178 332 -62 114 -112 215 -112 224 0 23 2 21 48 -61z m-6684
-248 c-87 -161 -290 -535 -452 -832 -163 -297 -339 -621 -392 -720 -53 -99
-114 -211 -136 -248 -35 -61 -39 -66 -42 -42 -2 14 1 32 6 38 8 10 241 434
432 787 152 281 591 1079 703 1279 17 30 33 49 35 43 2 -7 -67 -144 -154 -305z
m6606 263 c0 -7 -252 -11 -732 -12 l-733 -3 733 -2 c641 -3 732 -5 732 -18 0
-13 -144 -15 -1207 -17 l-1208 -3 1205 -2 c782 -2 1208 -7 1214 -13 7 -7
-1071 -10 -3207 -10 -2138 0 -3217 3 -3217 10 0 7 281 11 818 12 l817 3 -817
2 c-718 3 -818 5 -818 18 0 13 125 15 1038 17 l1037 3 -1030 2 c-666 2 -1033
7 -1039 13 -7 7 1071 10 3202 10 2135 0 3212 -3 3212 -10z m-6551 -257 c-57
-103 -133 -244 -170 -313 -78 -146 -163 -305 -319 -595 -62 -115 -146 -273
-188 -350 -41 -77 -88 -164 -104 -192 -16 -29 -27 -53 -24 -53 9 0 58 90 571
1040 223 413 330 608 333 605 3 -2 -20 -50 -50 -107 -143 -268 -461 -863 -558
-1043 -144 -267 -293 -549 -442 -837 l-123 -238 -3 65 -3 65 157 287 c86 159
189 347 229 418 40 72 103 186 140 255 37 69 105 193 150 275 85 155 101 185
350 643 81 150 150 270 153 268 2 -3 -42 -89 -99 -193z m6642 100 c29 -54 145
-267 257 -473 113 -206 242 -442 287 -525 45 -82 193 -353 328 -601 l247 -451
0 -69 0 -69 -131 250 c-194 372 -327 623 -469 885 -70 129 -173 323 -230 430
-57 107 -133 251 -170 320 -145 269 -182 341 -178 345 2 2 39 -61 82 -141 43
-79 81 -142 84 -140 2 3 -34 77 -82 165 -47 88 -86 163 -86 166 0 16 14 -5 61
-92z m-6489 -420 l2 -458 6 250 c4 138 9 345 10 460 l3 210 6 -265 c3 -146 6
-436 6 -644 0 -290 -3 -380 -12 -383 -9 -3 -13 32 -16 144 l-3 148 -2 -152
c-1 -88 -6 -154 -12 -158 -7 -4 -10 215 -10 649 0 431 3 656 10 656 6 0 11
-160 12 -457z m178 444 c0 -7 -13 -138 -30 -290 -16 -153 -30 -303 -30 -333
l0 -54 39 -43 c75 -83 76 -111 7 -189 -25 -27 -46 -61 -48 -78 -3 -17 1 -75 8
-128 19 -143 19 -142 -16 -142 l-30 0 -2 333 c-1 182 -2 468 -3 634 l0 303 53
0 c36 0 52 -4 52 -13z m359 -99 c7 -62 23 -201 37 -309 13 -108 24 -208 24
-222 0 -18 -16 -45 -50 -82 -79 -87 -79 -116 1 -216 l51 -64 -7 -65 c-16 -164
-37 -345 -41 -349 -2 -3 -9 0 -15 6 -7 7 -3 68 12 196 l21 186 -18 29 c-11 16
-34 51 -51 77 -43 64 -44 114 -5 176 16 24 36 50 45 58 9 7 17 20 17 28 0 16
-31 -18 -74 -81 -19 -29 -26 -51 -26 -88 0 -54 12 -83 59 -142 23 -29 31 -49
31 -79 0 -41 -26 -283 -35 -323 l-5 -21 -45 15 c-37 12 -50 12 -76 2 -59 -25
-62 -40 -28 -185 16 -72 32 -138 35 -147 3 -10 1 -18 -3 -18 -5 0 -24 66 -43
148 -42 186 -54 220 -89 257 -25 26 -31 44 -45 145 -9 63 -16 127 -16 142 0
16 19 51 48 89 l47 63 -1 52 c0 52 -8 69 -76 157 l-22 27 12 108 c7 59 19 161
26 227 8 66 17 158 20 205 4 75 4 78 -4 30 -17 -100 -60 -479 -60 -528 0 -47
7 -61 65 -141 18 -24 25 -47 25 -78 0 -48 -10 -72 -48 -118 -48 -58 -53 -82
-36 -196 8 -57 17 -114 20 -127 4 -19 1 -23 -13 -20 -14 2 -20 26 -35 128 -9
69 -17 132 -18 141 0 9 22 44 50 78 76 94 78 131 11 204 -21 23 -43 51 -49 63
-8 16 -5 73 12 230 13 115 30 262 37 327 l12 117 152 0 152 0 12 -112z m257
70 c-22 -153 -66 -598 -62 -623 4 -17 26 -53 50 -80 70 -81 69 -100 -5 -182
-21 -22 -41 -56 -44 -75 -5 -27 37 -409 60 -545 l6 -33 -61 0 c-54 0 -60 2
-60 20 0 11 -19 41 -41 65 l-42 45 23 214 c25 238 23 261 -31 312 -41 39 -62
81 -55 110 4 13 29 50 58 81 l51 56 -6 71 c-4 39 -20 184 -37 321 -16 138 -30
258 -30 268 0 15 12 17 116 17 l116 0 -6 -42z m381 -243 c17 -154 34 -301 38
-328 l6 -47 -47 -50 c-54 -58 -77 -112 -62 -149 5 -14 29 -50 54 -79 l44 -54
-1 -52 c0 -28 -15 -179 -32 -336 l-32 -285 -116 -3 -117 -3 -34 23 -34 23 -12
95 c-6 52 -18 145 -26 205 -8 61 -20 156 -25 213 -12 116 -11 121 49 190 63
71 59 116 -20 206 l-42 49 7 66 c18 181 56 530 61 564 l6 38 151 -3 152 -3 32
-280z m238 258 c-11 -63 -65 -578 -65 -619 0 -39 6 -50 50 -99 67 -74 67 -100
0 -178 l-50 -59 0 -49 c0 -41 33 -338 55 -506 l6 -43 -105 0 -106 0 0 23 c0
13 13 140 30 282 l29 258 -15 35 c-8 19 -32 54 -54 78 -55 60 -54 90 6 154 27
29 49 64 54 84 5 24 -3 134 -26 328 -18 161 -35 303 -37 316 l-4 22 118 0 119
0 -5 -27z m349 -5 c12 -73 66 -566 66 -601 0 -32 -8 -48 -50 -95 -52 -59 -69
-106 -51 -140 6 -11 31 -44 56 -73 32 -37 45 -62 45 -83 0 -34 -58 -589 -66
-623 l-4 -23 -150 0 c-83 0 -150 1 -151 3 -6 27 -68 605 -69 638 0 38 5 50 31
75 85 81 89 140 15 227 -41 49 -46 59 -46 103 0 27 5 78 10 114 5 36 18 155
30 265 11 110 23 210 25 223 l5 22 150 0 149 0 5 -32z m266 0 c0 -18 -14 -148
-30 -288 -16 -140 -30 -281 -30 -312 l0 -57 50 -57 c68 -78 66 -106 -11 -189
-50 -54 -50 -63 -19 -327 16 -134 32 -260 35 -280 l5 -38 -111 0 -111 0 6 38
c14 85 56 471 56 514 0 42 -5 53 -45 98 -80 90 -81 106 -7 182 40 42 46 53 50
101 2 30 -3 112 -12 183 -9 71 -23 190 -31 264 -8 74 -18 150 -21 168 l-5 32
116 0 115 0 0 -32z m350 23 c0 -5 16 -140 35 -301 19 -161 35 -309 35 -329 0
-30 -8 -45 -45 -81 -48 -47 -71 -97 -61 -135 3 -13 29 -50 56 -81 35 -40 50
-66 50 -86 0 -30 -56 -558 -66 -616 l-5 -33 -152 3 -152 3 -3 40 c-2 22 -18
167 -37 323 -21 179 -31 292 -26 306 5 12 17 28 27 36 35 29 74 94 74 122 0
38 -14 63 -63 117 l-39 43 5 82 c5 85 56 562 63 584 2 9 42 12 154 12 82 0
150 -4 150 -9z m270 -23 c0 -18 -14 -150 -30 -293 -16 -143 -30 -284 -30 -312
l0 -53 50 -55 c39 -43 50 -63 50 -89 0 -25 -11 -46 -50 -90 l-50 -57 0 -52 c0
-47 42 -438 55 -514 l6 -33 -111 0 c-60 0 -110 4 -110 8 0 5 11 99 25 208 13
110 27 238 31 285 l6 84 -23 32 c-13 18 -36 47 -51 65 -14 18 -29 45 -33 60
-6 23 0 35 38 75 55 59 67 82 67 126 0 19 -16 164 -35 323 -19 158 -35 294
-35 301 0 10 28 13 115 13 l115 0 0 -32z m350 25 c0 -5 14 -123 31 -263 17
-140 33 -287 36 -327 l6 -72 -51 -56 c-55 -60 -72 -108 -52 -144 6 -12 31 -44
55 -71 36 -41 45 -58 45 -88 0 -38 -57 -579 -66 -620 l-5 -23 -152 3 -152 3
-3 40 c-2 22 -18 166 -37 320 -36 307 -35 314 20 365 36 34 55 72 55 114 0 28
-10 47 -50 92 l-50 57 0 51 c0 28 9 121 19 206 11 85 25 215 32 288 l13 132
153 0 c84 0 153 -3 153 -7z m280 -6 c0 -7 -13 -134 -29 -282 -30 -270 -35
-331 -32 -372 0 -12 24 -48 51 -79 65 -74 65 -96 4 -165 -25 -28 -50 -62 -55
-76 -6 -17 0 -105 21 -283 17 -143 30 -271 30 -285 l0 -25 -111 0 -111 0 5 33
c18 101 58 498 54 534 -3 31 -15 54 -47 90 -23 26 -46 58 -51 71 -11 28 6 65
46 102 37 34 55 72 55 114 0 29 -24 248 -65 589 l-6 47 121 0 c91 0 120 -3
120 -13z m359 -94 c7 -60 24 -196 37 -303 13 -107 24 -210 24 -227 0 -25 -11
-45 -50 -88 -79 -87 -79 -120 0 -212 57 -67 57 -63 35 -242 -13 -105 -55 -476
-55 -487 0 -2 -69 -4 -154 -4 l-153 0 -6 63 c-4 34 -20 180 -37 324 -16 144
-27 270 -23 280 3 10 26 39 49 66 68 76 70 138 8 198 -68 65 -68 65 -40 297
14 114 30 260 37 325 l13 117 151 0 152 0 12 -107z m261 94 c0 -7 -13 -134
-29 -282 -30 -270 -35 -331 -32 -372 0 -12 24 -48 51 -79 66 -75 66 -97 1
-168 -31 -34 -52 -68 -55 -88 -3 -18 9 -156 27 -305 l33 -273 -108 0 c-80 0
-108 3 -108 13 0 6 11 104 25 217 13 113 27 239 30 280 l7 75 -24 32 c-12 17
-38 50 -55 74 -18 23 -33 50 -33 60 0 11 22 44 50 74 27 30 53 67 56 81 6 22
-21 283 -63 627 l-6 47 117 0 c88 0 116 -3 116 -13z m358 -102 c7 -60 24 -201
37 -311 14 -111 25 -211 25 -223 0 -11 -22 -46 -50 -76 -79 -87 -79 -125 2
-214 l50 -56 -6 -60 c-3 -33 -19 -180 -36 -327 -16 -147 -30 -272 -30 -278 0
-6 -54 -10 -155 -10 -117 0 -155 3 -155 13 0 6 -16 152 -35 322 -19 171 -35
315 -35 321 0 6 25 42 55 79 33 40 55 76 55 91 0 36 -24 86 -55 114 -59 54
-59 53 -25 348 17 147 33 293 37 325 l6 58 151 -3 151 -3 13 -110z m235 -172
c-18 -159 -32 -314 -33 -345 l0 -57 50 -57 c63 -72 65 -98 11 -157 -52 -58
-61 -77 -61 -140 0 -44 34 -355 55 -499 l5 -38 -111 0 -112 0 6 43 c25 185 58
523 53 543 -4 14 -24 44 -45 67 -42 46 -61 78 -61 101 0 8 22 41 49 73 26 33
51 68 55 79 3 11 -10 159 -29 330 -19 170 -35 317 -35 327 0 15 12 17 118 17
l117 0 -32 -287z m377 270 c0 -10 16 -148 35 -308 19 -159 35 -302 35 -317 0
-19 -15 -45 -50 -83 -27 -30 -52 -66 -56 -80 -10 -41 3 -72 56 -130 37 -41 50
-63 50 -86 0 -16 -16 -168 -35 -336 -19 -168 -35 -308 -35 -310 0 -2 -69 -2
-152 -1 l-153 3 -32 275 c-17 151 -32 305 -32 341 -1 55 2 69 20 85 41 36 79
97 79 126 0 36 -20 76 -55 108 -55 50 -55 56 -18 395 19 171 36 316 38 323 3
9 43 12 155 12 l150 0 0 -17z m286 -40 c-4 -32 -17 -159 -31 -283 -24 -227
-29 -288 -26 -326 0 -12 21 -46 46 -76 25 -30 48 -69 51 -85 5 -27 -1 -38 -44
-86 -27 -30 -53 -68 -56 -84 -6 -24 39 -449 59 -555 l5 -28 -121 0 -120 0 5
43 c35 268 49 406 50 479 l1 87 -36 38 c-47 49 -69 83 -69 105 0 9 23 43 50
74 28 32 53 69 57 82 5 20 -36 423 -64 630 l-6 42 128 0 127 0 -6 -57z m356
-8 c4 -33 21 -176 38 -319 17 -142 28 -267 24 -278 -3 -11 -28 -44 -55 -74
-41 -46 -49 -60 -49 -94 0 -32 9 -49 48 -97 27 -32 51 -66 55 -75 3 -10 -7
-142 -24 -295 -41 -389 -37 -362 -62 -368 -12 -3 -80 -4 -152 -3 l-130 3 -16
135 c-42 345 -52 437 -53 485 l-1 51 41 50 c23 27 47 60 53 73 20 38 5 85 -47
142 l-47 53 1 45 c1 25 16 175 33 332 17 158 31 290 31 293 0 4 69 5 153 4
l152 -3 7 -60z m278 57 c0 -4 -16 -148 -35 -319 -23 -208 -31 -321 -26 -341 5
-16 30 -55 55 -86 26 -33 46 -67 46 -81 0 -14 -19 -46 -49 -80 -27 -30 -51
-68 -54 -83 -3 -15 6 -127 20 -250 l25 -223 -21 -23 c-11 -12 -24 -36 -27 -54
l-6 -32 -79 0 c-44 0 -79 2 -79 5 0 2 14 127 30 277 17 150 28 286 24 301 -3
15 -28 53 -55 84 -64 73 -64 95 0 165 28 30 52 65 56 79 3 13 -8 141 -24 284
-17 143 -33 288 -37 323 l-7 62 122 0 c66 0 121 -4 121 -8z m357 -107 c7 -60
24 -201 38 -312 14 -111 25 -212 25 -223 0 -11 -22 -45 -50 -75 -85 -94 -83
-116 31 -256 l21 -27 -17 -143 c-16 -135 -25 -172 -41 -156 -4 4 0 64 8 134
13 107 13 133 2 161 -16 40 -26 43 -11 2 16 -41 -15 -294 -42 -347 -11 -21
-36 -108 -56 -193 -42 -178 -44 -185 -50 -178 -3 3 9 66 26 140 20 84 29 145
25 162 -4 17 -19 32 -42 44 l-36 16 -61 -21 c-42 -15 -64 -18 -68 -11 -4 6
-10 45 -14 87 -4 42 -10 70 -12 63 -3 -7 0 -50 6 -95 11 -78 9 -90 -16 -88
-10 1 -54 390 -47 420 3 13 23 45 46 70 22 25 45 57 50 71 15 40 0 85 -46 137
-23 26 -45 56 -49 65 -3 10 9 163 28 340 19 178 35 324 35 326 0 1 69 1 153 0
l152 -3 12 -110z m160 -521 l2 -632 -41 -6 c-22 -4 -42 -5 -44 -3 -2 2 4 57
12 122 9 65 13 134 9 152 -3 19 -25 55 -50 83 -70 79 -69 109 5 182 21 20 41
50 44 66 4 15 -3 107 -14 203 -44 375 -50 425 -50 447 l0 23 63 -3 62 -3 2
-631z m62 182 c1 -226 4 -412 6 -415 3 -2 5 192 5 432 0 285 3 437 10 437 7 0
10 -224 10 -651 0 -431 -3 -648 -10 -644 -5 3 -11 34 -12 68 l-2 62 -3 -57
c-2 -32 -8 -58 -13 -58 -6 0 -10 243 -9 643 1 353 4 631 9 617 4 -14 8 -209 9
-434z m86 324 c12 -24 15 -83 17 -327 l3 -298 5 280 5 280 18 -32 c14 -27 17
-61 18 -220 1 -141 3 -178 10 -148 6 22 9 97 7 168 -2 70 0 127 3 127 4 0 12
-12 18 -27 14 -35 10 -1008 -5 -1008 -5 0 -12 82 -16 190 -12 320 -14 329 -16
68 -1 -161 -6 -253 -12 -253 -5 0 -13 0 -17 0 -5 0 -10 82 -13 182 l-6 183 -2
-191 c-1 -146 -5 -194 -15 -203 -12 -9 -15 34 -20 252 -8 302 -9 1007 -2 1007
2 0 11 -13 20 -30z m-6505 -607 l0 -626 -20 18 -20 18 -2 256 -3 256 -2 -257
-3 -258 -20 0 -20 0 0 267 c0 146 -2 264 -4 262 -2 -2 -6 -123 -9 -269 -3
-179 -9 -266 -16 -268 -17 -6 -15 1002 2 1031 10 18 13 -7 17 -158 l6 -180 2
193 c2 162 5 198 20 225 l17 32 5 -275 5 -275 3 288 c2 235 5 293 17 317 9 17
18 30 20 30 3 0 5 -282 5 -627z m-207 -649 l-38 -32 -3 430 -2 430 37 71 38
72 3 -470 2 -470 -37 -31z m6899 904 l33 -63 5 -433 c3 -237 2 -432 -2 -432
-5 0 -8 3 -8 8 0 4 -16 18 -35 31 l-35 24 0 463 c0 255 2 464 5 464 3 0 19
-28 37 -62z m-6972 -1002 c-26 -69 -30 -17 -30 394 l0 419 18 37 17 37 3 -431
c1 -265 -2 -440 -8 -456z m7055 844 c13 -25 15 -92 15 -452 0 -292 -3 -419
-10 -412 -19 19 -30 230 -30 567 0 180 2 327 5 327 2 0 11 -13 20 -30z m-7130
-899 c-13 -14 -15 26 -15 373 0 291 3 393 13 409 10 18 12 -51 15 -373 2 -341
0 -396 -13 -409z m7205 375 c0 -304 -3 -378 -12 -368 -10 10 -14 108 -16 405
-2 349 -1 389 13 367 12 -21 14 -88 15 -404z m-7244 -415 c-55 -63 -66 -179
-29 -286 12 -33 21 -81 21 -106 0 -25 7 -62 16 -83 13 -31 16 -80 16 -258 l0
-219 -32 -40 c-28 -35 -33 -49 -33 -97 0 -45 -9 -76 -40 -142 -21 -47 -41 -88
-44 -92 -3 -4 -5 136 -3 310 2 248 6 330 19 377 36 139 36 146 4 226 l-29 74
9 435 10 435 57 108 57 107 7 -367 c7 -304 5 -369 -6 -382z m7348 599 l33 -65
11 -440 11 -440 -26 -55 c-30 -65 -33 -133 -7 -200 15 -38 18 -96 24 -390 3
-190 5 -346 4 -348 -1 -1 -19 41 -41 95 -36 87 -40 105 -36 156 l6 58 -42 49
-41 49 0 200 0 200 19 33 c24 39 41 111 32 127 -4 6 3 43 16 82 38 119 29 214
-30 293 l-23 31 4 359 4 358 25 -43 c14 -24 40 -73 57 -109z m-7500 -540 l-7
-410 28 -69 27 -69 -26 -109 -26 -109 0 -347 c0 -307 -2 -347 -16 -347 -13 0
-15 39 -11 363 l3 362 27 78 c15 43 27 88 27 100 0 12 -13 47 -28 77 l-27 55
3 390 c3 352 9 445 29 445 2 0 1 -185 -3 -410z m7600 -22 l7 -387 -31 -65
c-27 -55 -31 -72 -25 -108 4 -24 17 -65 29 -93 l21 -50 3 -369 c3 -300 1 -367
-10 -364 -10 4 -14 48 -15 189 -6 499 -9 551 -32 634 l-22 80 27 74 27 74 -7
411 c-5 351 -4 407 8 386 10 -19 15 -114 20 -412z m-7654 -7 c-4 -189 -4 -360
0 -380 4 -20 17 -56 29 -81 11 -25 21 -55 21 -68 0 -13 -12 -58 -27 -100 l-27
-77 -1 -156 0 -157 -27 47 c-35 59 -36 106 -3 208 35 107 41 198 21 302 -13
66 -16 151 -16 412 0 287 2 333 17 364 9 19 18 34 19 32 1 -1 -2 -157 -6 -346z
m7695 309 c13 -24 15 -84 15 -374 0 -281 -3 -357 -16 -413 -20 -85 -13 -173
21 -280 32 -100 32 -166 1 -216 l-24 -38 -4 153 c-4 130 -9 165 -31 233 -15
44 -27 86 -27 93 0 8 14 45 30 83 l31 69 -6 253 c-3 138 -8 300 -10 360 -3 59
-3 107 0 107 2 0 11 -13 20 -30z m-6862 -84 c53 -19 80 -45 66 -62 -9 -11 -16
-10 -36 6 -30 24 -118 44 -167 38 -20 -2 -36 -3 -36 -1 0 1 12 9 28 17 34 19
95 19 145 2z m6184 -7 l20 -14 -66 0 c-49 0 -78 -6 -114 -24 -52 -25 -82 -18
-49 12 48 44 164 58 209 26z m-7058 -743 c13 -57 3 -139 -29 -231 -11 -32 -23
-82 -26 -109 -5 -45 -2 -59 30 -119 l36 -67 0 -289 0 -289 -79 -180 c-77 -174
-128 -282 -134 -282 -2 0 -4 163 -5 363 l-3 362 22 75 c43 155 42 216 -7 289
l-25 39 11 424 12 423 86 165 87 165 6 -345 c4 -200 11 -366 18 -394z m7885
557 c37 -69 69 -137 71 -151 2 -15 9 -210 16 -433 l12 -406 -31 -55 c-41 -70
-42 -128 -6 -258 l26 -95 -3 -362 c-2 -200 -6 -363 -9 -363 -3 0 -17 28 -32
63 -14 34 -60 139 -102 232 l-76 170 0 284 0 285 36 70 c32 62 36 75 30 121
-3 28 -15 78 -27 111 -25 71 -36 206 -21 266 6 25 12 178 14 366 l2 323 17
-22 c9 -12 46 -78 83 -146z m-7013 126 c22 -11 42 -25 43 -32 8 -25 156 -643
156 -648 0 -12 -195 23 -206 36 -9 12 -184 628 -184 648 0 16 48 27 98 22 30
-3 71 -14 93 -26z m6199 22 c16 -5 25 -14 24 -27 -2 -24 -172 -635 -180 -643
-10 -10 -199 -38 -202 -29 -7 18 151 644 167 660 21 21 97 47 136 47 17 -1 41
-4 55 -8z m-6500 -15 c-8 -7 -35 -16 -60 -19 l-45 -5 40 19 c22 10 49 19 60
19 17 0 17 -2 5 -14z m6710 -6 c22 -11 40 -23 40 -26 0 -2 -8 -1 -17 4 -10 5
-35 12 -55 16 -21 4 -40 11 -43 16 -11 17 34 11 75 -10z m-138 -192 c-108
-378 -128 -442 -142 -446 -9 -3 -11 1 -7 12 6 14 143 501 170 599 7 27 13 35
20 28 8 -8 -5 -66 -41 -193z m-6492 40 c23 -84 63 -228 89 -320 34 -118 44
-168 35 -168 -7 0 -15 8 -18 18 -79 269 -166 584 -166 601 0 55 21 8 60 -131z
m395 -205 c41 -172 75 -317 75 -324 0 -6 -5 -9 -11 -7 -15 5 -173 644 -164
665 l7 18 9 -20 c4 -11 42 -160 84 -332z m5790 336 c4 -5 -30 -158 -75 -340
-62 -248 -86 -329 -97 -329 -8 0 -13 6 -10 13 7 18 121 482 144 585 17 80 25
93 38 71z m-5648 -24 c28 -14 72 -44 97 -67 36 -31 44 -43 36 -54 -9 -10 -22
-5 -63 29 -48 39 -89 61 -160 87 -16 5 -25 14 -22 20 11 18 59 11 112 -15z
m5518 16 c3 -5 -12 -15 -32 -22 -64 -20 -113 -48 -160 -92 -35 -32 -46 -38
-53 -27 -17 28 19 64 124 121 50 28 109 38 121 20z m613 -19 c19 -8 40 -29 49
-46 l14 -31 -73 -230 -74 -230 -90 -22 c-49 -13 -92 -22 -95 -20 -5 2 144 539
164 590 5 13 14 15 39 11 18 -4 48 -13 66 -22z m-6743 -14 c4 -18 37 -141 75
-273 37 -132 70 -253 74 -269 l7 -29 -23 6 c-13 4 -56 14 -95 24 -57 13 -74
21 -78 37 -3 12 -36 114 -72 229 -74 231 -75 243 -14 284 22 15 49 23 77 23
l42 0 7 -32z m6090 -228 c-60 -266 -93 -402 -99 -408 -3 -2 -46 -7 -96 -10
-70 -4 -90 -2 -90 8 0 8 23 122 51 254 44 210 54 245 77 269 50 53 194 127
200 103 1 -7 -18 -104 -43 -216z m-5525 199 c58 -26 147 -93 154 -116 6 -17
106 -490 106 -499 0 -7 -143 -3 -170 5 l-25 7 -65 284 c-37 157 -69 297 -73
313 -6 22 -4 27 10 27 10 0 38 -10 63 -21z m-723 -265 c63 -194 70 -219 54
-209 -5 3 -37 90 -71 193 -34 103 -63 193 -66 200 -2 8 2 12 8 10 7 -3 41 -90
75 -194z m6963 -5 c-37 -110 -71 -203 -74 -206 -20 -20 -9 24 52 205 36 111
72 202 78 202 7 0 -17 -84 -56 -201z m-5995 -54 c26 -121 50 -237 55 -257 6
-29 5 -38 -5 -38 -7 0 -15 12 -17 28 -3 15 -26 127 -52 250 -26 123 -44 231
-41 240 4 9 9 13 11 7 2 -5 24 -109 49 -230z m5025 -31 c-29 -137 -58 -256
-66 -264 -10 -10 -14 -11 -14 -2 0 7 20 104 44 215 24 111 50 228 56 261 8 38
15 55 22 48 6 -6 -8 -94 -42 -258z m-6062 159 c77 -223 89 -263 77 -263 -7 0
-37 9 -69 20 -31 10 -63 17 -71 14 -10 -4 -19 13 -34 61 -23 74 -26 129 -10
172 10 28 57 83 70 83 3 0 20 -39 37 -87z m7150 62 c41 -34 58 -105 43 -175
-14 -67 -38 -123 -50 -116 -5 3 -35 -3 -66 -14 -32 -11 -64 -20 -70 -20 -8 0
8 62 44 175 31 96 59 175 63 175 3 0 20 -11 36 -25z m-6083 -59 c0 -30 -2 -52
-5 -49 -3 2 -10 27 -16 54 -10 43 -9 49 5 49 13 0 16 -11 16 -54z m692 12 l9
-43 184 0 184 0 9 43 8 42 109 0 109 0 8 -42 9 -43 184 0 185 0 5 40 5 40 111
3 112 3 6 -46 7 -45 190 0 189 0 0 23 c0 12 3 32 6 45 l6 22 114 0 114 0 0
-32 c0 -59 0 -59 201 -56 l184 3 5 40 5 40 113 3 112 3 0 -23 c0 -13 3 -33 6
-46 l6 -22 187 2 186 3 3 43 3 42 115 0 114 0 0 -28 c0 -16 6 -36 13 -45 11
-16 32 -17 192 -15 l180 3 5 40 5 40 121 3 120 3 10 -43 9 -43 133 -3 c83 -2
131 -6 127 -12 -8 -14 -4462 -14 -4470 0 -3 6 36 10 102 12 l108 3 9 43 10 42
107 0 108 0 8 -42z m4278 0 c-4 -24 -12 -50 -17 -58 -6 -10 -7 -3 -3 22 3 21
1 47 -5 58 -9 17 -8 20 11 20 l21 0 -7 -42z m-4829 -24 c93 -66 162 -153 148
-188 -9 -23 -18 -20 -32 14 -19 41 -120 142 -176 175 -37 22 -44 30 -35 41 13
16 13 16 95 -42z m4768 37 c3 -5 -24 -27 -60 -51 -58 -37 -154 -136 -167 -172
-3 -10 -8 -10 -17 -2 -18 17 12 67 79 135 73 73 150 115 165 90z m-4818 -69
c59 -43 151 -147 163 -184 6 -18 31 -157 56 -308 25 -151 64 -376 85 -500 22
-124 40 -228 40 -231 0 -6 -63 -3 -126 7 -25 3 -33 11 -37 32 -32 151 -117
569 -117 575 0 4 17 7 39 7 52 0 91 31 91 73 0 44 -18 103 -36 122 -10 10 -35
15 -74 15 -47 0 -60 3 -64 18 -5 16 -76 387 -76 397 0 11 20 3 56 -23z m4818
11 c-2 -10 -15 -81 -28 -158 -14 -77 -30 -164 -36 -192 l-12 -53 -64 0 c-55 0
-65 -3 -78 -22 -8 -13 -19 -47 -24 -76 l-10 -53 25 -30 c21 -24 32 -29 69 -29
l44 0 -4 -22 c-3 -13 -24 -115 -47 -228 -23 -113 -49 -241 -58 -285 l-17 -80
-74 -6 c-41 -3 -77 -5 -79 -3 -6 5 170 1028 181 1049 28 53 85 118 140 160 33
25 64 45 68 45 4 0 6 -8 4 -17z m-6564 -446 l-12 -347 36 -73 c20 -40 36 -81
36 -92 0 -11 -14 -75 -31 -143 l-30 -123 3 -374 c2 -295 0 -375 -9 -375 -10 0
-13 85 -13 393 l0 393 25 85 c36 117 35 171 -4 248 l-32 62 11 362 c11 350 19
463 28 372 2 -22 -1 -196 -8 -388z m8253 370 c-2 -4 1 -168 7 -364 l11 -356
-30 -59 c-39 -73 -40 -132 -6 -243 l25 -80 0 -397 c0 -244 -4 -398 -9 -398 -6
0 -11 160 -14 408 l-3 407 -23 65 c-12 36 -23 91 -23 122 -1 47 4 64 28 100
l29 43 0 115 c0 63 -3 246 -8 405 -7 255 -6 287 7 265 8 -14 12 -28 9 -33z
m-6913 12 c0 -6 -4 -7 -10 -4 -5 3 -10 11 -10 16 0 6 5 7 10 4 6 -3 10 -11 10
-16z m330 0 c0 -6 -4 -7 -10 -4 -5 3 -10 11 -10 16 0 6 5 7 10 4 6 -3 10 -11
10 -16z m4650 1 c0 -7 -255 -11 -742 -12 -409 -1 -696 -5 -638 -8 58 -4 386
-8 728 -9 419 -1 623 -4 620 -11 -2 -7 -339 -11 -1018 -12 -558 -1 -945 -5
-860 -8 85 -4 539 -8 1008 -9 468 0 852 -4 852 -8 -1 -35 32 -34 -2139 -34
-1167 0 -2127 3 -2132 6 -5 4 -9 13 -9 21 0 12 118 14 853 16 l852 2 -860 9
c-490 5 -864 13 -869 18 -6 5 203 9 525 9 327 0 540 4 549 10 10 6 -179 10
-542 10 -365 0 -558 3 -558 10 0 7 737 10 2190 10 1453 0 2190 -3 2190 -10z
m277 -12 c-3 -8 -6 -5 -6 6 -1 11 2 17 5 13 3 -3 4 -12 1 -19z m330 5 c-4 -3
-7 0 -7 7 0 7 3 10 7 7 3 -4 3 -10 0 -14z m-5577 -33 c0 -5 -2 -10 -4 -10 -3
0 -8 5 -11 10 -3 6 -1 10 4 10 6 0 11 -4 11 -10z m330 0 c0 -5 -4 -10 -10 -10
-5 0 -10 5 -10 10 0 6 5 10 10 10 6 0 10 -4 10 -10z m5237 -12 c-3 -8 -6 -5
-6 6 -1 11 2 17 5 13 3 -3 4 -12 1 -19z m-317 8 c0 -3 -4 -8 -10 -11 -5 -3
-10 -1 -10 4 0 6 5 11 10 11 6 0 10 -2 10 -4z m1716 -419 c-3 -188 -8 -379
-12 -424 -4 -65 -1 -96 15 -155 28 -99 27 -170 -3 -243 l-24 -59 -4 135 c-4
103 -10 148 -27 193 -30 85 -28 145 10 221 l31 63 -11 314 c-6 172 -11 327
-11 343 l1 30 20 -38 20 -39 -5 -341z m-8365 34 l-12 -305 37 -74 37 -75 -16
-71 c-9 -39 -24 -96 -32 -126 -8 -30 -15 -99 -16 -155 l-1 -100 -21 45 c-30
65 -34 154 -9 237 30 103 33 141 17 239 -11 64 -15 174 -15 392 0 272 2 307
18 334 l17 30 3 -34 c2 -18 -1 -170 -7 -337z m1409 339 c0 -11 -2 -20 -4 -20
-2 0 -6 9 -9 20 -3 11 -1 20 4 20 5 0 9 -9 9 -20z m330 -20 c0 -13 -1 -13 -10
0 -5 8 -10 22 -10 30 0 13 1 13 10 0 5 -8 10 -22 10 -30z m5220 20 c0 -11 -4
-20 -9 -20 -5 0 -7 9 -4 20 3 11 7 20 9 20 2 0 4 -9 4 -20z m-320 1 c0 -6 -4
-13 -10 -16 -5 -3 -10 1 -10 9 0 9 5 16 10 16 6 0 10 -4 10 -9z m-357 -558
c-48 -279 -88 -510 -90 -512 -2 -3 -7 0 -12 5 -6 5 24 206 74 499 45 270 86
503 90 519 6 23 10 25 16 13 6 -10 -23 -201 -78 -524z m-4264 475 c18 -84 161
-940 161 -965 0 -12 -4 -24 -8 -27 -5 -3 -28 108 -51 247 -24 139 -63 368 -88
510 -39 229 -45 287 -29 287 2 0 9 -23 15 -52z m-245 -123 c3 -22 -3 -6 -14
35 -11 41 -19 84 -18 95 0 24 25 -74 32 -130z m4831 58 c-10 -43 -21 -82 -25
-86 -5 -6 7 65 29 172 1 2 4 2 7 -2 3 -3 -2 -41 -11 -84z m319 -4 c-10 -38
-21 -69 -24 -69 -4 0 3 37 14 82 10 46 21 77 24 70 2 -8 -4 -45 -14 -83z
m-5467 -69 c-3 -18 -37 111 -36 137 0 10 9 -13 20 -52 10 -38 18 -77 16 -85z
m4843 142 c0 -12 -20 -124 -26 -145 l-5 -17 -2092 2 -2092 3 -12 70 c-6 39
-12 76 -12 83 -1 9 429 12 2119 12 1166 0 2120 -4 2120 -8z m-5622 -28 c42
-14 140 -41 217 -60 276 -67 534 -101 837 -111 160 -5 196 -9 187 -19 -6 -7
-29 -16 -52 -19 -53 -8 -370 11 -531 31 -311 39 -782 160 -761 194 9 14 18 13
103 -16z m7100 14 c-9 -27 -277 -107 -508 -152 -197 -39 -465 -66 -651 -66
-127 0 -169 3 -178 13 -9 12 22 15 182 20 105 4 237 11 292 17 240 25 611 101
775 158 66 24 93 26 88 10z m-511 -20 c-3 -8 -6 -5 -6 6 -1 11 2 17 5 13 3 -3
4 -12 1 -19z m1208 -117 l66 -119 -3 -410 -3 -409 -29 -42 c-36 -52 -44 -122
-22 -201 48 -168 46 -144 44 -595 l-3 -429 -82 192 -83 193 0 373 0 373 30 73
c45 108 47 155 15 285 l-27 110 17 133 c15 109 17 174 12 363 -3 126 -4 229
-2 229 2 0 33 -54 70 -119z m-8525 -521 l13 -85 -24 -90 c-32 -124 -30 -199 9
-301 l30 -80 7 -355 7 -354 -21 -55 c-11 -30 -51 -124 -88 -207 l-68 -153 -3
427 -2 426 30 105 c40 141 40 194 -2 258 l-33 49 -3 403 -3 403 63 118 63 119
6 -271 c3 -150 11 -310 19 -357z m682 601 c281 -104 683 -173 1096 -188 95 -3
174 -9 176 -12 3 -3 7 -24 11 -45 l8 -39 -189 6 c-337 11 -701 69 -979 155
-139 44 -185 75 -185 127 0 19 -1 19 62 -4z m6625 2 c-4 -3 -7 0 -7 7 0 7 3
10 7 7 3 -4 3 -10 0 -14z m533 8 c0 -4 -5 -22 -11 -39 -8 -22 -22 -35 -57 -50
-202 -86 -590 -165 -942 -192 -145 -11 -333 -13 -342 -5 -3 3 -1 23 4 44 l10
38 174 7 c329 12 613 51 879 121 72 18 159 45 195 58 72 27 90 31 90 18z
m-6683 -23 c-3 -8 -6 -5 -6 6 -1 11 2 17 5 13 3 -3 4 -12 1 -19z m-516 -286
c1 -106 -1 -196 -5 -199 -3 -3 -6 85 -6 197 0 112 2 201 5 199 2 -3 5 -92 6
-197z m139 150 l74 -27 92 -280 c51 -154 91 -281 90 -282 -1 -2 -27 7 -58 19
-50 20 -57 27 -68 63 -20 68 -173 485 -177 482 -3 -4 45 -148 126 -374 28 -79
47 -143 42 -143 -5 0 -14 12 -19 28 -5 15 -42 117 -82 227 -40 110 -78 218
-85 240 -7 22 -16 48 -20 58 -9 22 -5 21 85 -11z m5535 6 c-6 -26 -49 -270
-60 -336 l-7 -42 -256 2 -256 3 -47 70 c-49 75 -225 250 -266 266 -59 22 -266
-4 -294 -37 -6 -8 -12 -39 -12 -68 0 -47 5 -60 37 -99 23 -28 39 -61 45 -91
l8 -46 -37 0 c-33 0 -46 8 -102 63 -128 128 -349 199 -701 228 -229 19 -509
-10 -707 -73 -133 -42 -225 -92 -293 -160 -39 -39 -67 -58 -83 -58 -21 0 -24
5 -24 35 0 42 18 81 54 114 22 21 26 33 26 81 0 62 -11 80 -64 99 -37 15 -195
26 -231 17 -39 -10 -230 -199 -281 -278 l-44 -68 -255 0 -255 0 -5 23 c-3 12
-16 92 -30 177 -14 85 -27 165 -30 178 l-5 22 2090 0 2090 0 -5 -22z m1444 -5
c-6 -16 -49 -136 -95 -267 -47 -132 -89 -246 -93 -254 -8 -15 -142 -75 -149
-67 -5 5 178 549 189 560 10 10 121 51 146 54 10 1 10 -6 2 -26z m60 -206 c1
-90 -3 -136 -9 -132 -6 4 -10 75 -9 183 1 123 4 163 10 132 4 -25 8 -107 8
-183z m-5815 171 c9 -34 7 -78 -3 -78 -7 0 -21 54 -21 88 0 21 17 13 24 -10z
m4470 -15 c-4 -21 -9 -41 -11 -46 -7 -11 -23 2 -18 16 2 7 6 24 9 40 10 42 28
33 20 -10z m-5490 -258 c48 -145 89 -272 93 -282 4 -12 3 -15 -4 -8 -8 8 -193
546 -193 562 0 2 4 2 9 -1 5 -3 48 -125 95 -271z m6499 -11 c-52 -157 -97
-283 -100 -280 -8 7 177 566 187 566 5 0 -34 -129 -87 -286z m-6414 -21 c52
-157 97 -281 98 -276 2 6 -36 132 -85 279 -49 148 -88 270 -87 272 1 1 33 -5
72 -14 l70 -16 82 -281 c44 -155 81 -285 81 -288 0 -6 -159 36 -165 43 -2 2
-37 113 -80 248 -42 135 -82 262 -90 283 -10 27 -10 37 -2 37 7 0 54 -128 106
-287z m2111 277 c63 -10 120 -28 120 -37 0 -9 -330 -361 -376 -402 -26 -22
-101 -73 -168 -113 -66 -39 -166 -102 -222 -139 -132 -89 -142 -93 -226 -79
-37 7 -68 15 -68 19 0 3 44 40 98 82 53 41 156 120 227 176 143 110 176 143
235 237 36 58 203 224 254 253 26 15 44 16 126 3z m2228 -4 c41 -22 224 -213
270 -282 52 -78 108 -128 326 -294 231 -175 222 -168 216 -174 -3 -3 -35 -10
-72 -16 -44 -7 -75 -7 -92 0 -14 5 -65 36 -114 68 -48 32 -147 94 -220 137
-73 44 -162 104 -196 135 -61 53 -358 371 -364 391 -5 12 41 29 108 38 84 13
109 12 138 -3z m2092 7 c0 -4 -41 -132 -90 -285 -80 -246 -102 -300 -115 -286
-3 2 148 475 180 566 5 13 25 17 25 5z m-40 -9 c0 -4 -41 -133 -92 -287 -101
-305 -92 -289 -179 -303 l-40 -7 11 29 c7 16 44 143 85 282 40 140 76 256 79
259 3 3 31 11 63 18 73 16 73 16 73 9z m-6737 -164 c-3 -16 -14 -37 -24 -46
l-19 -17 1 114 0 114 24 -68 c15 -43 22 -79 18 -97z m471 113 c6 -20 145 -516
153 -548 5 -16 3 -18 -7 -8 -10 9 -170 541 -170 566 0 14 19 7 24 -10z m6092
0 c-18 -58 -149 -512 -153 -530 -3 -13 -10 -23 -15 -23 -5 0 -7 8 -4 18 3 9
37 132 76 272 85 306 77 280 90 280 6 0 9 -8 6 -17z m482 -120 l-3 -48 -19 35
c-17 31 -17 40 -6 85 7 27 15 55 19 60 7 12 13 -69 9 -132z m-6373 106 c38 -5
70 -11 71 -12 0 -1 31 -123 68 -272 37 -148 69 -279 73 -289 l5 -19 -62 7
c-105 12 -100 7 -145 166 -22 78 -41 138 -42 133 -2 -5 13 -66 32 -137 19 -70
35 -131 35 -135 -1 -22 -23 43 -55 164 -44 166 -102 376 -111 400 -6 14 -2 16
27 11 19 -3 65 -11 104 -17z m5775 -71 c-12 -46 -41 -155 -65 -243 -24 -88
-49 -179 -55 -202 -6 -24 -15 -43 -19 -43 -5 0 4 44 20 97 16 53 28 101 26
106 -1 5 -17 -39 -35 -98 -17 -59 -33 -109 -34 -111 -9 -8 -158 -30 -158 -23
0 12 140 573 144 576 4 5 190 30 195 26 2 -1 -7 -39 -19 -85z m57 75 c-4 -3
-7 0 -7 7 0 7 3 10 7 7 3 -4 3 -10 0 -14z m-7368 -801 c43 -67 44 -103 2 -241
l-31 -104 0 -453 c0 -296 -3 -454 -10 -454 -7 0 -10 158 -10 454 l0 455 31 92
c17 51 33 115 36 143 l5 51 -41 61 -41 62 0 355 c0 195 3 364 8 374 4 10 9
-153 12 -362 l5 -380 34 -53z m1390 758 c0 -9 -4 -8 -9 5 -5 11 -9 27 -9 35 0
9 4 8 9 -5 5 -11 9 -27 9 -35z m2876 25 c-27 -13 -168 -79 -313 -146 -145 -67
-265 -126 -268 -130 -5 -9 319 137 593 267 l71 34 96 0 c93 0 296 -23 337 -39
17 -6 2 -16 -85 -56 -58 -26 -104 -50 -103 -52 2 -2 55 20 118 48 l114 51 48
-11 c128 -29 293 -121 341 -189 27 -39 36 -105 16 -117 -6 -4 -8 -11 -5 -16
13 -19 -92 -107 -176 -147 -83 -40 -254 -96 -268 -88 -4 3 -25 -1 -47 -8 -42
-15 -217 -36 -287 -36 l-42 1 398 201 c219 110 396 203 393 205 -3 3 -189 -88
-415 -203 l-411 -207 -130 7 c-183 10 -188 13 -96 61 41 22 73 41 71 43 -1 2
-43 -17 -91 -41 l-89 -44 -69 13 c-85 16 -216 55 -216 63 0 4 58 36 130 71 71
35 128 66 126 68 -2 2 -64 -26 -138 -62 -73 -36 -139 -66 -147 -66 -27 0 -136
66 -182 111 -50 49 -67 94 -55 145 4 14 28 48 54 76 69 73 254 158 382 174 14
2 59 10 100 19 41 9 83 14 92 13 9 -2 -120 -68 -288 -147 -168 -79 -303 -145
-301 -148 4 -4 466 210 582 270 61 31 79 36 140 36 l70 0 -50 -24z m4515 -354
l0 -368 -37 -48 c-34 -42 -38 -54 -37 -104 0 -35 12 -93 32 -154 l32 -97 0
-455 c0 -282 -4 -455 -10 -455 -5 0 -10 183 -13 478 l-3 477 -27 78 c-16 46
-27 99 -27 130 0 44 6 61 33 97 l32 44 3 379 c2 239 6 376 12 372 6 -4 10
-148 10 -374z m-5336 342 c-9 -33 -268 -324 -357 -401 -34 -30 -116 -85 -182
-124 -66 -39 -165 -100 -220 -136 -126 -83 -158 -95 -227 -82 -78 15 -88 20
-88 40 0 16 5 17 38 9 20 -5 61 -9 90 -9 l54 0 136 88 c76 49 180 114 233 145
52 30 118 74 146 96 46 36 353 369 361 392 2 5 8 9 13 9 5 0 6 -12 3 -27z
m1995 -132 c78 -88 169 -185 202 -215 33 -31 126 -95 207 -143 81 -47 188
-114 237 -147 l90 -61 65 0 c36 0 80 3 98 7 27 6 32 5 32 -12 0 -21 -9 -25
-89 -40 -71 -13 -102 -3 -211 70 -47 31 -141 90 -210 130 -169 99 -221 141
-363 298 -172 189 -207 231 -207 253 0 10 2 19 3 19 2 0 68 -72 146 -159z
m-3712 -147 c39 -159 69 -291 67 -293 -12 -12 -27 36 -88 279 -36 146 -69 276
-72 289 -5 18 -4 23 7 19 9 -3 39 -104 86 -294z m5304 -7 c-38 -153 -72 -281
-75 -284 -3 -4 -8 -4 -11 -1 -6 6 130 562 142 581 22 35 7 -42 -56 -296z m323
269 c-3 -15 -8 -25 -11 -23 -2 3 -1 17 3 31 3 15 8 25 11 23 2 -3 1 -17 -3
-31z m-5627 -83 c13 -53 22 -98 19 -100 -2 -2 -13 36 -25 84 -12 48 -24 97
-28 108 -3 11 -2 16 3 12 4 -4 18 -51 31 -104z m177 94 c17 -2 28 -39 87 -301
l66 -298 -80 7 c-44 3 -85 9 -92 11 -9 4 -115 421 -141 559 l-6 31 74 -4 c40
-1 82 -4 92 -5z m5093 -9 c-3 -13 -34 -146 -69 -296 -45 -194 -67 -273 -78
-277 -8 -2 -50 -7 -92 -9 -59 -4 -76 -3 -73 7 2 6 32 138 65 292 34 154 65
283 68 287 4 4 39 9 77 11 39 1 78 4 89 5 14 2 17 -3 13 -20z m25 -80 c-13
-57 -28 -107 -32 -112 -5 -4 3 38 16 94 13 56 24 106 24 111 0 5 4 9 9 9 5 0
-3 -46 -17 -102z m-268 -83 c-19 -88 -47 -216 -61 -285 -14 -69 -33 -132 -40
-140 -13 -13 -14 -12 -9 10 18 78 77 361 96 455 26 133 28 141 40 129 5 -5 -5
-72 -26 -169z m-4779 143 c3 -13 30 -140 60 -283 31 -143 58 -269 61 -280 5
-16 4 -18 -6 -8 -11 10 -138 541 -140 581 0 21 19 13 25 -10z m62 -78 c11 -55
17 -100 14 -100 -4 0 -16 45 -27 100 -11 55 -17 100 -13 100 3 0 15 -45 26
-100z m4678 8 c-18 -93 -24 -113 -30 -107 -2 3 0 22 5 44 4 22 14 66 20 98 6
32 14 56 17 54 2 -3 -3 -43 -12 -89z m-5306 22 c0 -9 -4 -8 -9 5 -5 11 -9 27
-9 35 0 9 4 8 9 -5 5 -11 9 -27 9 -35z m5928 8 c-3 -8 -6 -5 -6 6 -1 11 2 17
5 13 3 -3 4 -12 1 -19z m-13 -52 c-3 -15 -8 -25 -11 -23 -2 3 -1 17 3 31 3 15
8 25 11 23 2 -3 1 -17 -3 -31z m-5907 2 c-3 -8 -6 -5 -6 6 -1 11 2 17 5 13 3
-3 4 -12 1 -19z m-497 -181 l-33 -30 -61 6 c-64 6 -96 15 -96 26 0 3 37 48 82
99 l82 93 30 -82 30 -82 -34 -30z m7004 101 c42 -45 76 -87 76 -94 0 -15 -60
-34 -109 -34 -21 0 -50 10 -72 26 l-37 25 27 80 c14 43 29 79 33 79 3 0 40
-37 82 -82z m-6497 45 c-4 -3 -7 0 -7 7 0 7 3 10 7 7 3 -4 3 -10 0 -14z m5877
-37 c-3 -15 -8 -25 -11 -23 -2 3 -1 17 3 31 3 15 8 25 11 23 2 -3 1 -17 -3
-31z m-5867 2 c-3 -8 -6 -5 -6 6 -1 11 2 17 5 13 3 -3 4 -12 1 -19z m1899 -70
c-15 -46 -30 -116 -35 -155 -10 -78 -18 -97 -55 -132 l-26 -24 0 131 c0 72 4
133 9 137 6 3 12 -17 14 -47 l3 -53 3 60 c1 49 7 66 29 92 l28 32 -23 -92
c-15 -59 -23 -113 -21 -152 l3 -60 8 70 c15 134 64 301 83 282 3 -3 -6 -43
-20 -89z m2068 65 c23 -46 56 -193 56 -249 0 -29 5 -56 10 -59 6 -3 10 -12 10
-18 -1 -7 -9 -2 -19 10 -11 13 -20 46 -24 85 -3 35 -17 99 -31 143 -34 105
-35 151 -2 88z m-3957 -30 c-4 -3 -7 0 -7 7 0 7 3 10 7 7 3 -4 3 -10 0 -14z
m4037 -88 l16 -50 -5 40 -5 40 15 -19 c12 -15 15 -48 15 -148 0 -70 -2 -128
-5 -128 -13 0 -28 52 -40 148 -8 59 -21 127 -30 151 -8 24 -15 48 -15 54 0 22
39 -42 54 -88z m-3727 68 c-4 -3 -7 0 -7 7 0 7 3 10 7 7 3 -4 3 -10 0 -14z
m5530 0 c-4 -3 -7 0 -7 7 0 7 3 10 7 7 3 -4 3 -10 0 -14z m-5830 -15 c-3 -8
-6 -5 -6 6 -1 11 2 17 5 13 3 -3 4 -12 1 -19z m1373 18 c0 -2 -35 -32 -77 -66
l-77 -61 -46 6 c-25 4 -94 16 -155 28 l-110 22 -6 38 -6 37 239 0 c131 0 238
-2 238 -4z m609 -43 c-11 -59 4 -148 31 -185 11 -15 20 -43 20 -63 l0 -35
-100 0 c-55 0 -100 3 -100 6 0 4 9 21 19 38 11 17 22 54 26 81 4 28 16 85 27
128 l20 77 33 0 32 0 -8 -47z m1932 -11 c10 -29 23 -87 29 -128 6 -46 18 -87
30 -104 11 -15 20 -31 20 -34 0 -3 -49 -6 -110 -6 l-110 0 0 31 c0 17 11 49
24 72 29 52 39 117 27 180 l-9 48 41 -3 40 -3 18 -53z m1006 22 c-3 -20 -8
-38 -10 -40 -2 -3 -70 -16 -151 -30 l-147 -26 -37 26 c-20 14 -57 44 -82 65
l-45 40 239 1 239 0 -6 -36z m288 -61 c-10 -49 -22 -95 -27 -103 -7 -12 -8
-10 -4 5 3 11 12 59 22 108 9 48 19 85 22 82 3 -3 -3 -44 -13 -92z m280 -73
c-21 -83 -39 -149 -41 -147 -2 2 13 74 34 160 20 86 38 152 40 147 2 -5 -13
-77 -33 -160z m-5156 40 c0 -8 -7 8 -15 35 -7 28 -13 57 -13 65 0 8 7 -7 15
-35 7 -27 13 -57 13 -65z m309 -50 c-1 -21 -36 121 -36 145 0 11 8 -14 19 -55
10 -41 18 -82 17 -90z m5179 138 c-3 -8 -6 -5 -6 6 -1 11 2 17 5 13 3 -3 4
-12 1 -19z m-5810 -15 c-4 -3 -7 0 -7 7 0 7 3 10 7 7 3 -4 3 -10 0 -14z m-497
-27 c0 -7 -17 -25 -37 -40 -30 -21 -39 -23 -41 -12 -2 8 12 28 30 45 33 29 48
31 48 7z m6294 -10 c-3 -15 -8 -25 -11 -23 -2 3 -1 17 3 31 3 15 8 25 11 23 2
-3 1 -17 -3 -31z m586 -38 c0 -10 -2 -18 -5 -18 -3 0 -22 12 -43 28 -23 16
-36 34 -34 44 3 15 8 13 42 -10 22 -15 39 -35 40 -44z m-6373 40 c-3 -8 -6 -5
-6 6 -1 11 2 17 5 13 3 -3 4 -12 1 -19z m-607 -50 c0 -13 -8 -18 -27 -18 -45
1 -105 17 -114 32 -20 31 -9 34 66 19 60 -12 75 -19 75 -33z m7146 36 c-3 -9
-6 -19 -6 -24 0 -10 -79 -30 -118 -30 -25 0 -29 3 -25 20 4 14 17 21 52 26 25
4 55 10 66 15 31 12 38 10 31 -7z m-6529 -21 c-4 -3 -7 0 -7 7 0 7 3 10 7 7 3
-4 3 -10 0 -14z m1023 -14 c63 -11 116 -22 118 -24 2 -2 -10 -12 -27 -23 l-31
-19 -92 18 c-51 10 -94 19 -94 19 -1 0 -4 11 -6 25 -3 15 -1 25 7 25 6 0 63
-9 125 -21z m699 -237 c7 -1 19 3 27 9 12 10 14 -61 14 -483 l0 -494 -45 -49
-44 -50 -1 651 c0 507 3 653 13 663 10 10 13 -13 17 -116 4 -97 8 -129 19
-131z m2371 -413 c0 -357 -3 -649 -7 -648 -5 0 -25 21 -45 45 l-38 45 0 496
c0 395 3 493 13 486 6 -6 20 -10 30 -10 l17 0 0 130 c0 114 2 128 15 117 13
-11 15 -97 15 -661z m780 646 c0 -27 1 -27 -119 -49 l-75 -14 -28 21 c-15 11
-26 22 -24 24 4 4 201 40 229 42 12 1 17 -6 17 -24z m887 -7 c-3 -8 -6 -5 -6
6 -1 11 2 17 5 13 3 -3 4 -12 1 -19z m-6235 -7 c18 -11 78 -36 133 -56 241
-87 572 -153 907 -180 279 -23 278 -23 278 -46 0 -24 -9 -24 -233 -4 -315 28
-554 69 -796 136 -129 36 -358 114 -371 126 -4 4 37 43 46 43 1 0 18 -9 36
-19z m485 -3 c-3 -8 -6 -5 -6 6 -1 11 2 17 5 13 3 -3 4 -12 1 -19z m6305 -20
c-17 -17 -298 -110 -448 -148 -82 -21 -204 -48 -270 -59 -130 -22 -423 -56
-576 -67 l-98 -6 0 20 c0 22 17 26 180 37 262 19 566 65 755 115 126 33 331
103 384 129 l35 19 24 -16 c13 -8 19 -19 14 -24z m-5993 -18 c0 -9 -4 -8 -9 5
-5 11 -9 27 -9 35 0 9 4 8 9 -5 5 -11 9 -27 9 -35z m1830 -74 c82 -43 219 -89
319 -106 59 -11 72 -17 72 -32 0 -22 -5 -22 -95 -3 -218 46 -394 138 -442 229
l-16 30 47 -41 c25 -22 77 -57 115 -77z m1586 77 c-40 -68 -193 -153 -355
-197 -153 -41 -280 -57 -470 -59 -214 -2 -349 9 -357 29 -3 8 -3 17 0 20 2 3
75 -1 161 -7 126 -10 186 -10 313 1 87 8 175 14 196 14 20 1 37 4 37 7 0 4 28
12 62 19 133 26 301 101 378 168 25 22 47 38 48 37 2 -2 -4 -16 -13 -32z
m-4545 -162 c-28 -68 -50 -125 -47 -127 2 -2 25 46 51 108 53 124 61 137 76
122 8 -8 -39 -127 -151 -390 -89 -208 -197 -462 -239 -564 -43 -102 -126 -297
-185 -435 -59 -137 -136 -320 -172 -405 -36 -85 -67 -157 -69 -159 -2 -2 -4
84 -4 192 l0 197 23 0 c13 0 30 6 39 13 9 6 58 107 109 222 l93 210 4 108 4
107 35 0 34 0 73 153 c40 83 96 206 125 273 l51 121 0 76 0 77 23 0 c12 0 27
4 33 8 6 4 38 67 70 140 l59 132 9 -28 c7 -24 -1 -51 -44 -151z m203 137 l5
-19 -46 7 c-56 8 -82 20 -82 38 0 10 13 11 59 3 45 -7 61 -14 64 -29z m624 25
c-4 -3 -7 0 -7 7 0 7 3 10 7 7 3 -4 3 -10 0 -14z m1632 -892 l1 -373 -16 6
c-9 3 -20 6 -25 6 -5 0 -9 251 -9 621 l0 622 18 13 17 12 6 -266 c4 -147 7
-435 8 -641z m2493 892 l18 -16 0 -619 c0 -368 -4 -618 -9 -618 -5 0 -17 -3
-26 -6 l-17 -7 3 642 c2 352 5 641 8 641 2 0 13 -7 23 -17z m1605 0 c-4 -3 -7
0 -7 7 0 7 3 10 7 7 3 -4 3 -10 0 -14z m743 8 c0 -16 -30 -41 -49 -41 -10 0
-33 -3 -50 -6 -27 -6 -31 -4 -31 14 0 17 8 22 48 27 26 4 52 8 57 10 18 6 25
5 25 -4z m144 -245 c10 -16 26 -26 40 -26 l24 0 4 -82 c4 -90 20 -132 176
-468 l67 -145 38 -3 37 -3 0 -91 c0 -81 4 -100 36 -182 58 -144 163 -369 177
-378 6 -4 22 -8 35 -8 l22 0 0 -197 c-1 -172 -2 -194 -14 -168 -7 17 -82 192
-166 390 -140 332 -484 1140 -595 1400 -26 61 -49 116 -52 123 -3 7 3 12 14
12 15 0 30 -26 67 -115 27 -64 51 -113 53 -111 3 2 -18 58 -45 123 -31 72 -47
122 -41 128 5 5 9 18 9 30 0 11 22 -30 49 -92 26 -62 56 -123 65 -137z m-6909
128 c77 -24 190 -55 250 -69 232 -52 629 -105 784 -105 71 0 101 -14 101 -46
0 -19 -77 -19 -268 1 -423 45 -755 117 -1033 225 -115 45 -137 56 -127 66 4 4
31 -4 60 -16 70 -30 250 -91 255 -86 3 2 -26 14 -64 26 -98 33 -246 91 -258
102 -5 5 28 -5 75 -23 47 -17 148 -52 225 -75z m1270 91 l60 -15 -65 6 c-35 3
-71 10 -80 14 -23 14 14 12 85 -5z m3846 4 c-14 -5 -52 -12 -85 -14 l-61 -5
60 14 c33 7 71 14 85 14 l25 1 -24 -10z m1486 -11 c-3 -17 -20 -31 -61 -50
-136 -66 -443 -153 -696 -198 -262 -46 -670 -85 -670 -64 0 5 3 18 6 30 l6 21
131 6 c248 12 624 69 842 127 112 30 396 123 424 140 22 13 21 13 18 -12z
m-590 -5 c-4 -3 -7 0 -7 7 0 7 3 10 7 7 3 -4 3 -10 0 -14z m-5710 -10 c-4 -3
-7 0 -7 7 0 7 3 10 7 7 3 -4 3 -10 0 -14z m4819 -49 c-4 -18 -10 -34 -14 -34
-5 0 -28 15 -52 32 l-44 33 54 10 c30 6 57 7 59 2 1 -4 0 -24 -3 -43z m-4502
-14 c4 -24 3 -28 -2 -15 -14 31 -24 83 -13 65 5 -8 11 -31 15 -50z m654 52
l23 -7 -48 -37 c-26 -20 -49 -35 -52 -33 -2 2 -7 22 -11 45 l-7 40 36 -1 c20
-1 46 -4 59 -7z m560 -27 c-2 -2 -14 -1 -27 2 l-23 6 23 13 c20 11 25 10 27
-2 2 -9 2 -17 0 -19z m2664 21 c20 -15 14 -26 -14 -26 -11 0 -18 7 -18 20 0
23 8 25 32 6z m915 -18 c-3 -7 -5 -2 -5 12 0 14 2 19 5 13 2 -7 2 -19 0 -25z
m-4510 0 c-3 -8 -6 -5 -6 6 -1 11 2 17 5 13 3 -3 4 -12 1 -19z m-590 -5 c-4
-3 -7 0 -7 7 0 7 3 10 7 7 3 -4 3 -10 0 -14z m-747 -90 c-21 -54 -48 -120 -59
-147 -12 -27 -20 -50 -18 -52 2 -2 32 62 67 144 71 163 68 158 76 150 5 -5
-82 -222 -208 -518 -23 -52 -67 -158 -98 -235 -87 -211 -167 -403 -285 -685
-59 -140 -142 -340 -185 -445 -43 -104 -89 -215 -103 -245 -21 -46 -26 -50
-26 -28 -1 14 9 48 20 75 42 94 173 403 334 788 90 215 173 412 184 439 12 27
20 51 18 53 -2 2 -13 -18 -24 -44 -12 -27 -57 -131 -101 -233 -44 -102 -101
-237 -127 -300 -55 -133 -241 -569 -279 -650 -19 -42 -25 -49 -25 -30 -1 14
40 122 90 240 50 118 119 283 154 365 311 739 619 1455 626 1455 4 0 -10 -44
-31 -97z m7175 -61 c32 -72 60 -131 62 -129 2 2 -22 63 -52 136 -31 73 -54
138 -52 144 3 9 229 -515 578 -1338 56 -132 142 -334 191 -449 49 -116 93
-228 98 -250 21 -96 -1 -50 -157 319 -182 433 -365 859 -379 885 -34 64 -3
-15 141 -355 85 -201 155 -367 155 -369 0 -2 54 -131 120 -287 75 -174 120
-292 118 -308 -2 -18 -43 70 -127 274 -68 165 -152 368 -186 450 -404 963
-595 1423 -595 1434 0 21 36 -45 85 -157z m-7029 138 c5 -5 27 -16 49 -24 l40
-15 -69 0 c-58 -1 -67 1 -62 15 3 9 6 20 6 25 0 12 23 12 36 -1z m6919 -28 l6
-22 -60 2 c-34 2 -61 5 -61 8 1 9 95 47 101 41 4 -3 10 -16 14 -29z m-5718 -4
c-3 -7 -5 -2 -5 12 0 14 2 19 5 13 2 -7 2 -19 0 -25z m903 22 l25 -8 -30 -1
c-16 0 -37 4 -45 9 -12 8 -11 10 5 9 11 -1 31 -5 45 -9z m2151 -103 c-8 -8
-11 5 -11 44 0 72 14 86 18 18 2 -28 -2 -57 -7 -62z m579 104 c-24 -13 -80
-21 -80 -11 0 8 30 15 75 18 16 1 17 0 5 -7z m857 -13 c-3 -8 -6 -5 -6 6 -1
11 2 17 5 13 3 -3 4 -12 1 -19z m-3067 -27 c0 -22 3 -48 6 -58 l6 -18 -16 19
c-18 22 -22 96 -6 96 6 0 10 -18 10 -39z m-516 3 c11 -4 16 -19 16 -51 l0 -45
-22 5 c-13 3 -66 13 -118 22 -52 9 -96 18 -98 20 -2 1 21 17 50 34 47 28 59
31 105 26 28 -3 58 -8 67 -11z m2845 -16 l56 -33 -86 -16 c-47 -9 -104 -19
-127 -23 l-42 -6 0 45 c0 47 -4 44 65 58 50 11 81 5 134 -25z m728 5 c-4 -3
-7 0 -7 7 0 7 3 10 7 7 3 -4 3 -10 0 -14z m-2989 -5 c7 -7 13 -35 14 -62 l1
-51 7 50 7 50 1 -57 c2 -52 0 -58 -18 -58 -25 0 -40 35 -40 96 0 45 7 53 28
32z m1512 -47 c0 -61 -16 -89 -45 -77 -11 4 -15 21 -15 61 0 70 19 73 22 3 l2
-53 3 50 c4 60 9 75 23 75 6 0 10 -25 10 -59z m-4039 -16 c10 -27 44 -123 77
-212 33 -89 57 -165 54 -168 -7 -7 -527 -7 -534 0 -3 3 23 74 58 158 35 84 76
180 90 215 l27 63 105 -3 105 -3 18 -50z m87 -74 c59 -166 124 -333 128 -329
2 2 -32 100 -75 218 -43 118 -77 217 -76 219 2 1 26 -4 53 -13 l49 -17 83
-252 c45 -139 85 -258 88 -265 6 -16 -81 25 -115 54 -14 12 -50 97 -102 239
-43 121 -84 232 -90 247 -8 20 -7 26 2 22 7 -2 31 -58 55 -123z m2316 96 c7
-18 25 -41 40 -50 14 -10 26 -23 26 -29 0 -20 32 -48 55 -48 13 0 30 -11 40
-26 9 -14 31 -32 49 -39 l32 -14 -3 -88 c-3 -48 -6 -94 -8 -100 -3 -10 -56
-13 -220 -13 l-215 0 0 220 0 220 95 0 95 0 14 -33z m1956 -187 l0 -220 -225
0 -224 0 -5 33 c-3 17 -7 63 -10 100 -5 58 -3 69 12 73 38 13 62 28 67 45 3
10 19 21 36 24 16 4 37 18 47 32 9 14 32 39 50 56 17 17 32 38 32 47 0 9 3 20
7 23 3 4 53 7 110 7 l103 0 0 -220z m2501 1 c49 -118 89 -216 89 -218 0 -2
-119 -3 -265 -3 -165 0 -265 4 -265 10 0 5 13 42 28 82 16 40 51 135 78 211
l49 138 98 -3 99 -3 89 -214z m-367 112 c-19 -54 -60 -168 -91 -253 l-55 -155
-64 -32 c-35 -18 -64 -29 -64 -25 0 4 39 123 86 264 l85 257 46 15 c26 9 48
14 50 12 2 -1 -28 -92 -67 -200 -68 -190 -76 -215 -65 -204 3 3 103 273 150
406 2 6 9 12 15 12 5 0 -6 -44 -26 -97z m-2558 -70 c-3 -7 -19 -13 -36 -13
l-30 0 0 70 c0 39 4 70 10 70 5 0 11 -28 13 -62 l3 -63 2 67 c2 52 6 69 20 77
l17 10 3 -71 c2 -39 1 -77 -2 -85z m-1302 141 c12 -5 16 -22 17 -73 l2 -66 6
52 c9 76 23 78 19 3 l-3 -65 -23 -3 c-40 -6 -52 14 -52 89 0 68 3 75 34 63z
m-810 -34 c107 -18 153 -30 116 -30 -17 0 -252 40 -265 45 -26 10 41 3 149
-15z m2971 -1 c-87 -17 -220 -34 -180 -22 42 12 211 41 240 41 17 0 -10 -9
-60 -19z m-4496 -261 c45 -135 81 -250 81 -254 0 -4 -4 -4 -9 2 -9 9 -171 505
-171 521 1 22 24 -42 99 -269z m5974 3 c-48 -146 -89 -259 -91 -253 -3 9 152
492 165 515 20 33 1 -33 -74 -262z m-3513 249 c5 0 10 -30 12 -67 l3 -68 9 65
c7 47 11 59 17 45 4 -11 8 -43 8 -72 l1 -51 -30 -7 c-49 -11 -60 6 -60 92 0
64 2 74 16 69 9 -3 20 -6 24 -6z m1070 -63 c0 -77 -9 -97 -45 -97 -34 0 -45
20 -45 86 0 46 4 63 15 68 12 4 15 -6 15 -60 0 -41 4 -63 10 -59 6 3 10 32 10
64 0 60 4 71 27 71 10 0 13 -19 13 -73z m-3470 -178 c42 -129 79 -241 83 -249
17 -40 -12 66 -74 260 -37 118 -66 216 -64 218 1 2 27 -3 56 -10 l54 -13 33
-115 c18 -63 54 -184 79 -268 25 -84 43 -155 41 -158 -7 -6 -101 24 -120 38
-13 11 -52 123 -178 511 -7 21 -6 27 2 25 7 -3 46 -110 88 -239z m1425 220
c77 -12 141 -23 143 -24 1 -1 -12 -25 -30 -54 l-33 -52 -40 6 c-163 23 -285
49 -285 61 0 14 78 84 94 84 6 0 74 -9 151 -21z m3184 -6 c40 -30 51 -42 51
-59 0 -9 -112 -33 -285 -60 l-41 -6 -32 52 c-18 29 -31 54 -30 55 5 3 250 42
277 44 13 0 40 -11 60 -26z m1321 20 c0 -5 -38 -125 -84 -268 l-83 -260 -54
-22 c-73 -30 -83 -29 -75 5 13 50 137 477 146 498 5 14 24 25 55 33 26 7 50
10 52 7 3 -3 -24 -101 -61 -218 -36 -117 -68 -226 -71 -243 -6 -32 59 160 120
358 20 64 41 117 46 117 5 0 9 -3 9 -7z m-3394 -23 c11 0 14 -18 16 -77 l2
-78 3 78 c2 42 8 77 13 77 6 0 10 -36 10 -80 l0 -80 -24 -6 c-13 -3 -34 -1
-45 6 -19 9 -21 20 -21 91 0 70 2 80 16 75 9 -3 22 -6 30 -6z m804 -70 c0 -68
-3 -81 -19 -90 -54 -28 -81 0 -81 85 0 35 5 67 10 70 6 4 10 -20 10 -64 0 -41
4 -71 10 -71 6 0 10 30 10 69 0 58 3 70 18 74 41 11 42 9 42 -73z m-3166 -211
c43 -149 75 -273 73 -276 -3 -2 -13 22 -22 54 -9 32 -36 123 -60 203 -23 80
-50 171 -59 202 -9 32 -19 64 -22 73 -3 8 -2 15 3 15 5 0 44 -122 87 -271z
m2512 261 l25 0 -7 -70 c-4 -48 -3 -70 4 -70 7 0 13 29 15 73 l3 72 0 -85 -1
-85 -24 -3 c-12 -2 -34 -1 -47 2 l-24 6 0 86 c0 74 2 85 16 80 9 -3 27 -6 40
-6z m514 -68 c0 -85 -8 -102 -51 -102 -55 0 -59 6 -59 91 0 103 19 105 22 2
l2 -78 3 77 4 77 27 4 c15 2 33 5 40 6 9 1 12 -20 12 -77z m2477 -197 c-44
-151 -84 -275 -87 -275 -4 0 28 123 71 273 43 149 79 273 79 275 0 1 4 2 8 2
5 0 -27 -124 -71 -275z m-2845 176 l2 -76 3 78 4 77 24 0 25 0 0 -73 c0 -80
-9 -97 -51 -97 -56 0 -59 6 -59 95 l0 82 25 -5 25 -4 2 -77z m-2587 -176 c37
-132 72 -249 77 -260 17 -39 -2 37 -68 273 -36 128 -64 235 -62 237 3 3 159
-22 164 -27 1 -2 34 -126 73 -277 l70 -273 -52 6 c-29 4 -71 12 -94 18 l-42
10 -20 67 c-11 36 -43 152 -71 256 -28 105 -53 199 -57 210 -3 13 -2 17 5 10
5 -5 40 -118 77 -250z m2715 185 c0 -40 4 -70 10 -70 6 0 10 30 10 70 l0 70
35 0 35 0 0 -75 c0 -67 -2 -76 -23 -89 -16 -11 -32 -13 -52 -8 l-30 8 -3 82
c-2 52 1 82 8 82 6 0 10 -28 10 -70z m1316 18 c14 -22 24 -49 22 -61 -2 -18
-8 -13 -33 28 -50 86 -41 116 11 33z m1370 36 c-17 -44 -137 -496 -133 -500 2
-3 32 96 66 218 86 306 83 298 92 298 4 0 2 -21 -6 -47 -8 -27 -41 -149 -75
-272 -33 -124 -62 -226 -64 -228 -7 -7 -176 -37 -180 -32 -5 4 131 539 138
546 3 3 132 30 155 32 8 1 11 -5 7 -15z m-4072 -69 c-18 -32 -29 -43 -35 -34
-8 14 1 36 35 84 33 47 33 6 0 -50z m-3050 21 c21 -45 20 -77 -9 -161 l-23
-70 -1 138 c-1 77 3 136 8 133 5 -3 16 -21 25 -40z m2487 29 c29 -4 38 -11 42
-30 l4 -25 -51 6 c-58 8 -76 18 -76 45 0 15 5 18 23 15 12 -3 38 -7 58 -11z
m106 -21 c-33 -29 -47 -30 -47 -6 0 11 12 21 33 28 17 5 34 8 37 6 3 -2 -8
-15 -23 -28z m3653 -12 c0 -25 -9 -23 -47 11 -32 29 -28 36 12 23 27 -8 35
-16 35 -34z m134 21 c-4 -16 -7 -28 -8 -29 -1 -1 -25 -4 -53 -7 l-53 -6 0 23
c0 20 7 25 48 34 73 15 73 15 66 -15z m2425 -115 l0 -143 -25 80 c-27 87 -27
139 0 180 9 14 19 25 21 25 3 0 5 -64 4 -142z m-6859 -143 c37 -149 64 -273
61 -277 -4 -4 -39 118 -78 273 -39 154 -66 278 -61 277 6 -2 41 -125 78 -273z
m4915 -6 c-37 -145 -71 -268 -77 -274 -11 -12 -14 -25 62 285 66 266 70 281
77 264 2 -7 -26 -130 -62 -275z m-4938 249 c-3 -8 -6 -5 -6 6 -1 11 2 17 5 13
3 -3 4 -12 1 -19z m141 6 l61 -7 10 -46 c56 -254 101 -465 101 -477 0 -11 -16
-14 -67 -14 -38 0 -73 4 -79 8 -9 6 -134 502 -134 533 0 11 25 11 108 3z
m4769 -16 c-50 -224 -123 -515 -131 -520 -6 -4 -44 -8 -84 -8 -65 0 -73 2 -68
18 14 49 38 155 71 312 20 96 38 183 41 192 5 17 28 21 138 26 l38 2 -5 -22z
m40 5 c-4 -3 -7 0 -7 7 0 7 3 10 7 7 3 -4 3 -10 0 -14z m-4688 -95 c69 -312
92 -421 88 -431 -6 -16 -20 39 -56 208 -16 77 -38 179 -49 228 -11 48 -16 87
-12 87 5 0 18 -42 29 -92z m29 32 c0 -9 -3 -7 -8 5 -5 11 -8 29 -8 40 0 16 2
15 8 -5 4 -14 8 -32 8 -40z m169 46 c3 -3 25 -115 58 -296 37 -202 39 -220 27
-220 -5 0 -17 44 -27 98 -22 127 -33 172 -34 146 -1 -11 8 -69 19 -129 11 -60
19 -109 17 -110 -5 -4 -97 -14 -97 -11 0 4 -98 482 -105 514 l-6 23 73 -7 c40
-3 74 -7 75 -8z m4168 -4 c-3 -11 -25 -120 -50 -243 -25 -123 -47 -234 -50
-246 -5 -20 -12 -23 -55 -23 -28 0 -50 2 -50 5 0 2 12 70 26 150 14 81 24 151
22 157 -2 5 -16 -59 -31 -143 -15 -85 -32 -158 -37 -163 -7 -7 -10 -5 -10 5 0
22 79 474 86 492 4 11 21 17 52 20 106 8 104 8 97 -11z m35 -22 c-5 -22 -8
-27 -9 -13 -1 21 9 56 14 51 2 -2 0 -19 -5 -38z m55 28 c-3 -7 -28 -119 -55
-248 -58 -270 -58 -270 -71 -270 -6 0 -8 3 -6 8 3 4 28 115 57 247 60 279 59
275 70 275 5 0 7 -6 5 -12z m-3838 -24 c81 -14 150 -27 151 -29 2 -2 -11 -29
-30 -60 l-33 -56 -35 6 c-67 11 -365 67 -366 69 -1 0 -4 13 -8 29 l-6 27 37
-6 c31 -4 45 -1 73 19 19 14 43 26 52 26 9 1 84 -11 165 -25z m3400 0 c31 -21
45 -24 76 -20 l37 6 -6 -27 c-4 -16 -7 -29 -8 -30 -2 -2 -381 -73 -393 -73
-12 0 -78 108 -71 115 5 5 274 52 305 54 12 1 39 -11 60 -25z m660 4 c-3 -8
-6 -5 -6 6 -1 11 2 17 5 13 3 -3 4 -12 1 -19z m-1099 -78 c150 -259 191 -319
279 -409 53 -54 83 -92 83 -106 0 -12 23 -60 51 -106 64 -107 331 -685 371
-804 32 -96 57 -215 58 -278 l0 -38 -71 83 c-77 90 -75 85 -174 328 -133 325
-249 542 -514 969 -74 117 -136 223 -139 235 l-5 21 20 -25 c35 -43 327 -521
399 -651 37 -68 93 -178 125 -244 32 -66 58 -117 58 -114 1 3 -17 46 -38 95
-51 117 -171 341 -256 479 -139 225 -249 401 -277 443 -16 23 -28 50 -26 60 2
11 16 -4 42 -45 21 -35 41 -63 43 -63 5 0 -13 34 -54 102 -46 75 -41 113 6 40
18 -29 35 -52 38 -52 5 0 -38 77 -64 115 -11 17 -20 65 -9 54 2 -2 26 -42 54
-89z m-2683 53 c-3 -15 -14 -38 -24 -52 -32 -48 -63 -101 -57 -101 3 0 21 25
41 55 19 30 37 55 40 55 13 0 -11 -59 -42 -105 -18 -27 -33 -54 -33 -60 0 -5
16 14 35 43 39 57 50 65 35 28 -5 -13 -6 -33 -3 -45 4 -15 -18 -56 -74 -143
-139 -213 -294 -477 -384 -653 -86 -167 -124 -250 -230 -509 -45 -112 -63
-142 -127 -219 -40 -49 -76 -87 -78 -84 -6 6 14 142 33 217 21 85 75 222 164
412 39 84 95 205 124 269 29 64 78 158 109 209 38 64 56 104 56 127 0 18 5 33
10 33 19 0 102 84 155 155 29 39 96 143 149 233 54 89 100 162 103 162 3 0 2
-12 -2 -27z m-640 -5 c8 -35 75 -431 75 -445 0 -7 -4 -13 -8 -13 -4 0 -25 100
-46 223 -20 122 -40 230 -42 240 -3 9 -1 17 5 17 6 0 13 -10 16 -22z m1371
-167 c-9 -95 -15 -200 -15 -234 l2 -62 7 80 c4 44 14 148 21 232 10 118 15
150 26 146 13 -5 12 -84 -2 -223 -3 -29 -2 -40 4 -31 5 8 12 67 16 132 7 121
24 161 27 67 l2 -53 3 53 c4 57 23 72 23 18 0 -19 -9 -160 -20 -313 -11 -153
-22 -319 -26 -369 l-6 -91 -54 -42 c-56 -43 -71 -73 -60 -116 7 -28 57 -58 80
-49 20 8 20 1 2 -226 -8 -96 -18 -226 -22 -288 -6 -95 -9 -114 -25 -123 -25
-13 -25 -16 6 260 14 124 25 236 24 250 -2 40 -47 -302 -54 -409 -8 -115 -10
-121 -31 -113 -13 5 -15 15 -10 57 10 81 35 460 31 464 -7 8 -15 -65 -31 -283
-8 -121 -17 -221 -19 -224 -18 -18 -14 113 24 654 23 341 49 708 57 815 7 107
14 199 14 205 0 5 5 4 11 -2 7 -7 6 -61 -5 -182z m2523 -38 c-40 -234 -48
-267 -56 -246 -4 12 65 451 74 466 20 33 15 -25 -18 -220z m-1355 2 c9 -116
23 -291 31 -390 8 -99 24 -315 35 -480 11 -165 24 -356 29 -425 6 -90 6 -131
-2 -145 -10 -17 -13 -5 -20 70 -27 308 -35 384 -36 335 0 -30 6 -136 14 -235
8 -99 15 -183 15 -187 0 -5 -9 -8 -19 -8 -22 0 -21 -8 -56 405 -12 143 -23
230 -24 193 -1 -59 9 -196 37 -512 l8 -88 -17 20 c-12 15 -18 50 -23 124 -4
57 -13 186 -21 288 -8 102 -24 318 -35 480 -11 162 -24 351 -30 420 -22 286
-23 333 -9 328 10 -3 16 -39 22 -139 4 -74 12 -152 17 -174 10 -42 9 -11 -6
218 l-6 97 21 0 c15 0 21 -6 21 -22 0 -46 42 -505 50 -553 12 -67 4 68 -20
360 -14 165 -16 221 -7 227 6 4 12 6 14 5 1 -1 9 -97 17 -212z m1873 178 c-4
-3 -7 0 -7 7 0 7 3 10 7 7 3 -4 3 -10 0 -14z m-3857 -16 c0 -7 -17 -39 -37
-72 -31 -49 -39 -56 -41 -38 -2 12 12 44 30 72 33 50 48 62 48 38z m2849 -41
c32 -54 38 -76 22 -76 -8 0 -71 110 -71 124 0 3 4 6 9 6 5 0 23 -24 40 -54z
m-1741 25 c12 -7 51 -12 85 -11 34 0 88 -2 120 -6 l58 -6 -3 -41 -3 -42 -197
-3 -198 -2 0 62 0 63 58 -1 c31 0 68 -6 80 -13z m668 9 l34 0 0 -60 0 -61
-127 3 -128 3 -3 52 -3 52 54 -6 c39 -4 62 -1 83 10 16 9 35 14 42 12 8 -3 29
-5 48 -5z m2071 -12 c-3 -8 -6 -5 -6 6 -1 11 2 17 5 13 3 -3 4 -12 1 -19z
m-280 -20 c-3 -8 -6 -5 -6 6 -1 11 2 17 5 13 3 -3 4 -12 1 -19z m-2139 -125
c1 76 6 127 12 127 6 0 10 -35 11 -82 0 -46 4 -105 9 -133 6 -39 8 -23 9 78 1
87 5 127 12 127 9 0 10 -27 5 -95 -5 -63 -4 -95 3 -95 6 0 12 41 14 103 l3
102 2 -132 2 -131 -42 -33 c-24 -18 -48 -37 -54 -41 -9 -6 -11 36 -9 164 1 95
4 175 6 178 2 3 6 -56 9 -130 l6 -135 2 128z m-2191 110 c-4 -3 -7 0 -7 7 0 7
3 10 7 7 3 -4 3 -10 0 -14z m452 -13 c170 -31 197 -38 190 -44 -2 -2 -89 13
-194 34 -104 21 -184 38 -176 39 8 0 89 -13 180 -29z m3610 26 c-2 -3 -81 -19
-174 -36 -94 -17 -179 -33 -190 -35 l-20 -5 20 10 c11 6 88 24 170 39 145 28
203 36 194 27z m258 -43 c-4 -3 -7 0 -7 7 0 7 3 10 7 7 3 -4 3 -10 0 -14z
m-3862 -23 c88 -16 161 -30 163 -30 1 0 -14 -25 -35 -55 -20 -31 -41 -54 -47
-52 -6 2 -66 15 -132 27 l-122 24 -9 58 c-8 50 -7 58 6 58 9 0 88 -14 176 -30z
m3591 -27 l-12 -58 -104 -21 c-58 -12 -117 -24 -131 -28 -24 -4 -31 1 -62 48
l-36 54 57 11 c152 32 249 49 273 50 l26 1 -11 -57z m541 30 c-4 -3 -7 0 -7 7
0 7 3 10 7 7 3 -4 3 -10 0 -14z m-280 -30 c-4 -3 -7 0 -7 7 0 7 3 10 7 7 3 -4
3 -10 0 -14z m270 0 c-4 -3 -7 0 -7 7 0 7 3 10 7 7 3 -4 3 -10 0 -14z m-5582
-32 c-36 -5 -45 -13 -88 -76 l-48 -70 6 -42 6 -43 -56 -95 -55 -94 -238 -3
c-130 -2 -239 -2 -241 -1 -2 1 4 21 14 45 28 71 147 352 157 371 l9 17 287 -1
c158 -1 269 -5 247 -8z m1618 -79 c-32 -47 -38 -53 -41 -34 -4 29 71 135 76
108 2 -10 -13 -43 -35 -74z m897 62 c0 -38 -20 -312 -26 -361 l-5 -43 -200 0
-199 0 0 215 0 215 215 0 215 0 0 -26z m608 -101 l-3 -128 -115 -87 -115 -88
-97 0 c-54 0 -98 3 -98 8 0 4 7 88 15 187 8 99 15 192 15 208 l0 27 200 0 201
0 -3 -127z m463 95 c0 -18 6 -107 13 -198 8 -91 12 -167 10 -169 -2 -2 -18 8
-36 23 -18 14 -66 52 -105 83 l-73 57 20 21 c24 26 26 72 4 104 -14 20 -23 23
-60 18 l-44 -5 0 49 0 49 135 0 135 0 1 -32z m659 -183 l0 -215 -209 0 -209 0
-6 63 c-7 65 -26 333 -26 355 0 9 52 12 225 12 l225 0 0 -215z m474 158 c37
-60 42 -73 27 -73 -10 0 -81 108 -81 122 0 22 22 2 54 -49z m2219 -152 c48
-115 87 -211 87 -215 0 -3 -105 -6 -232 -6 l-233 0 -56 96 -56 96 8 39 9 40
-51 74 c-45 66 -55 74 -87 78 -21 2 89 4 244 5 l280 2 87 -209z m-1366 172
c-4 -3 -7 0 -7 7 0 7 3 10 7 7 3 -4 3 -10 0 -14z m-5458 -54 c88 -51 270 -124
357 -143 38 -8 98 -22 134 -30 142 -33 337 -49 530 -43 102 3 197 3 211 0 l27
-5 -40 -69 -40 -70 -27 5 c-14 3 -186 40 -381 81 -195 42 -492 105 -659 141
-168 35 -307 66 -309 69 -5 4 31 58 60 91 24 27 53 22 137 -27z m6249 14 c16
-21 34 -47 40 -59 l11 -20 -122 -27 c-362 -78 -1249 -267 -1252 -267 -2 0 -22
30 -44 67 -30 51 -37 69 -28 75 17 9 55 9 247 2 355 -14 772 76 1000 215 48
29 88 47 112 50 3 1 20 -16 36 -36z m-5591 5 c-3 -8 -6 -5 -6 6 -1 11 2 17 5
13 3 -3 4 -12 1 -19z m4790 5 c-4 -3 -7 0 -7 7 0 7 3 10 7 7 3 -4 3 -10 0 -14z
m-4250 0 c-4 -3 -10 -3 -14 0 -3 4 0 7 7 7 7 0 10 -3 7 -7z m3720 0 c-4 -3
-10 -3 -14 0 -3 4 0 7 7 7 7 0 10 -3 7 -7z m260 -15 c-3 -8 -6 -5 -6 6 -1 11
2 17 5 13 3 -3 4 -12 1 -19z m-3934 5 c-7 -2 -19 -2 -25 0 -7 3 -2 5 12 5 14
0 19 -2 13 -5z m3191 -96 c72 -115 156 -254 156 -258 0 -2 -52 -3 -115 -1
l-115 3 0 182 c0 113 4 177 9 172 6 -6 35 -49 65 -98z m449 96 c-7 -2 -19 -2
-25 0 -7 3 -2 5 12 5 14 0 19 -2 13 -5z m-3590 -10 c-7 -2 -19 -2 -25 0 -7 3
-2 5 12 5 14 0 19 -2 13 -5z m437 -168 l0 -175 -110 0 -111 0 12 23 c23 42
201 327 205 327 2 0 4 -79 4 -175z m3103 168 c-7 -2 -19 -2 -25 0 -7 3 -2 5
12 5 14 0 19 -2 13 -5z m-3496 -9 c-3 -3 -12 -4 -19 -1 -8 3 -5 6 6 6 11 1 17
-2 13 -5z m3446 -1 c-7 -2 -19 -2 -25 0 -7 3 -2 5 12 5 14 0 19 -2 13 -5z
m-3502 -18 c120 -22 117 -20 78 -61 l-34 -36 -59 6 c-33 3 -61 8 -63 9 -8 8
-20 97 -13 97 4 0 45 -7 91 -15z m102 8 c-7 -2 -19 -2 -25 0 -7 3 -2 5 12 5
14 0 19 -2 13 -5z m3354 1 c-3 -3 -12 -4 -19 -1 -8 3 -5 6 6 6 11 1 17 -2 13
-5z m172 -41 c-5 -25 -10 -47 -12 -48 -1 -1 -27 -7 -57 -13 l-55 -10 -42 38
-41 39 76 16 c42 9 82 18 87 20 6 2 20 4 31 4 l21 1 -8 -47z m-3492 30 c-4 -3
-10 -3 -14 0 -3 4 0 7 7 7 7 0 10 -3 7 -7z m3750 -10 c-4 -3 -7 0 -7 7 0 7 3
10 7 7 3 -4 3 -10 0 -14z m-1889 -28 c3 -25 -82 -100 -101 -89 -6 4 -9 4 -5
-1 9 -9 -9 -35 -24 -35 -6 0 -4 8 3 18 l14 17 -18 -14 c-9 -8 -15 -16 -12 -19
7 -7 -15 -32 -27 -32 -6 0 -5 7 2 15 20 24 5 18 -16 -7 -10 -12 -13 -18 -6
-14 6 4 12 5 12 2 0 -8 -546 -429 -563 -435 -16 -5 -7 3 86 78 42 34 77 65 77
68 0 6 -47 -28 -117 -84 -55 -44 -79 -42 -29 2 46 41 40 46 -10 9 -19 -15 -37
-24 -41 -20 -8 7 -25 -7 147 121 80 59 171 127 203 152 33 24 61 43 63 41 2
-3 -29 -29 -69 -58 -39 -30 -95 -71 -122 -91 -28 -21 -62 -51 -75 -66 -18 -20
-12 -17 20 10 25 20 70 55 100 76 81 57 155 120 155 132 0 6 70 64 155 130
155 119 192 136 198 94z m-2601 -12 c-4 -3 -7 0 -7 7 0 7 3 10 7 7 3 -4 3 -10
0 -14z m4480 -15 c-3 -7 -5 -2 -5 12 0 14 2 19 5 13 2 -7 2 -19 0 -25z m-3775
-51 c-36 -36 -48 -44 -50 -31 -5 22 79 108 90 91 4 -7 -10 -30 -40 -60z m3341
32 c26 -21 37 -38 37 -57 l0 -27 -45 50 c-24 28 -44 53 -45 58 0 14 16 7 53
-24z m-4563 -59 c320 -69 882 -189 954 -203 52 -10 78 -28 63 -43 -6 -6 -226
40 -847 176 -223 48 -434 94 -470 102 -45 9 -66 18 -68 30 l-3 16 68 -13 c37
-8 174 -37 303 -65z m527 63 c-4 -3 -7 0 -7 7 0 7 3 10 7 7 3 -4 3 -10 0 -14z
m4730 0 c-4 -3 -7 0 -7 7 0 7 3 10 7 7 3 -4 3 -10 0 -14z m883 -2 c0 -15 -17
-22 -112 -40 -62 -13 -214 -45 -338 -72 -349 -78 -912 -199 -922 -199 -5 0 -8
8 -6 17 3 18 40 27 518 128 218 46 849 182 858 184 1 1 2 -7 2 -18z m-4997
-48 c4 -2 7 -11 7 -20 0 -12 -7 -14 -37 -9 -21 3 -44 6 -50 6 -7 0 -13 9 -13
21 l0 21 43 -7 c23 -4 45 -9 50 -12z m3588 -1 c-6 -10 -30 -23 -56 -29 l-46
-10 3 20 c3 22 31 34 81 36 24 1 26 -2 18 -17z m246 -9 c-4 -3 -7 0 -7 7 0 7
3 10 7 7 3 -4 3 -10 0 -14z m-4170 -10 c-4 -3 -7 0 -7 7 0 7 3 10 7 7 3 -4 3
-10 0 -14z m-1127 3 c0 -4 -118 -208 -255 -441 -115 -196 -163 -318 -185 -473
-10 -68 -15 -82 -29 -80 -52 10 3 272 90 427 17 31 99 172 181 314 130 224
153 257 174 257 13 0 24 -2 24 -4z m867 -3 c-4 -3 -10 -3 -14 0 -3 4 0 7 7 7
7 0 10 -3 7 -7z m2666 -94 c117 -98 173 -155 91 -95 l-39 29 45 -46 c29 -31
39 -47 28 -47 -8 0 -21 6 -27 14 -6 8 -46 42 -89 76 l-77 62 80 -76 c44 -42
77 -76 73 -76 -10 0 -252 210 -257 222 -5 15 31 -6 53 -31 11 -12 24 -21 29
-21 6 0 -7 15 -29 34 -21 19 -36 37 -32 41 3 4 26 -10 50 -32 72 -64 88 -72
24 -11 -34 32 -57 58 -53 58 5 0 63 -46 130 -101z m3012 -37 c43 -75 115 -197
158 -271 135 -227 186 -356 202 -506 6 -52 4 -69 -6 -76 -28 -18 -39 -9 -39
30 0 99 -58 286 -127 406 -67 118 -275 478 -295 510 -23 39 -23 45 5 45 18 0
37 -26 102 -138z m-6485 121 c0 -3 -6 -14 -13 -22 -17 -20 -189 -295 -211
-338 -37 -73 -3 -23 110 158 66 105 125 193 132 196 25 10 24 -6 -5 -49 -41
-61 -125 -209 -121 -213 2 -2 39 54 82 126 43 71 84 129 92 129 8 0 14 -3 14
-6 0 -3 -24 -45 -53 -92 -30 -48 -62 -102 -71 -119 -34 -66 -7 -30 65 87 41
66 80 120 88 120 17 0 10 -18 -37 -88 -107 -158 -300 -508 -370 -668 -16 -36
-44 -70 -102 -123 -90 -82 -91 -82 -64 47 19 91 47 178 81 247 55 112 358 615
370 615 7 0 13 -3 13 -7z m6361 -59 c147 -241 324 -555 349 -617 31 -77 53
-166 64 -250 l6 -49 -48 40 c-92 78 -119 115 -171 231 -55 121 -203 384 -319
566 -38 61 -68 112 -66 114 11 12 39 -19 94 -111 35 -56 68 -107 73 -113 16
-17 -32 74 -79 149 -24 39 -44 74 -44 78 0 5 6 8 14 8 7 0 46 -54 85 -120 40
-66 74 -120 77 -120 6 0 -57 115 -103 188 -18 29 -33 55 -33 57 0 3 6 5 14 5
7 0 63 -80 124 -177 61 -98 118 -187 127 -198 25 -30 -16 40 -127 218 -54 87
-98 160 -98 163 0 3 6 4 13 2 6 -3 28 -31 48 -64z m-6062 -4 c52 -12 98 -23
103 -26 4 -3 8 -18 8 -35 l0 -29 -160 0 -160 0 37 60 c30 47 42 58 58 55 11
-3 62 -14 114 -25z m5871 -30 l41 -60 -161 0 -160 0 0 33 0 33 113 26 c61 14
115 26 119 27 4 0 26 -26 48 -59z m-2910 -70 c0 -67 -4 -110 -10 -110 -6 0
-10 41 -10 103 0 91 4 117 17 117 2 0 3 -49 3 -110z m-1870 85 c0 -9 -17 -45
-37 -81 -33 -58 -38 -63 -41 -40 -2 16 10 47 30 81 33 56 48 68 48 40z m3568
-45 c19 -33 32 -70 30 -83 -3 -18 -11 -9 -41 44 -35 63 -46 99 -29 99 4 0 22
-27 40 -60z m-1728 -55 l0 -105 -25 0 -25 0 0 89 0 89 23 15 c12 9 23 16 25
16 1 1 2 -46 2 -104z m-2766 79 c10 -4 16 -18 16 -41 0 -27 -4 -34 -17 -31
-13 2 -19 14 -21 41 -3 39 -3 40 22 31z m2886 -24 l34 -30 -42 0 -42 0 0 30
c0 17 3 30 8 30 4 -1 23 -14 42 -30z m2500 -10 c0 -32 -4 -40 -18 -40 -15 0
-18 6 -14 33 4 26 16 46 30 47 1 0 2 -18 2 -40z m-5307 13 c8 -7 -21 -43 -35
-43 -4 0 -8 11 -8 25 0 18 5 25 18 25 10 0 22 -3 25 -7z m5247 -18 l0 -26 -24
18 c-16 12 -20 20 -12 25 22 15 36 8 36 -17z m-2620 -65 c0 -47 -4 -80 -10
-80 -6 0 -10 31 -10 73 0 65 4 87 17 87 2 0 3 -36 3 -80z m-2476 50 c12 -4 -6
-7 -42 -7 -48 -1 -62 2 -62 14 0 12 8 13 43 8 23 -4 51 -11 61 -15z m5010 11
c5 -8 -113 -25 -122 -17 -4 5 70 23 100 25 9 1 19 -3 22 -8z m-2594 -90 l0
-58 -81 -7 c-44 -4 -83 -5 -85 -3 -5 4 152 127 162 127 2 0 4 -26 4 -59z
m-3390 38 c0 -5 -38 -74 -84 -152 -46 -78 -92 -159 -102 -179 l-18 -38 -208 0
c-114 0 -208 2 -208 4 0 2 13 35 29 72 16 38 50 120 76 181 l47 113 216 3
c120 1 225 3 235 5 9 1 17 -3 17 -9z m1320 -31 c80 -17 147 -32 149 -34 2 -2
-27 -71 -65 -154 l-69 -150 -603 0 -603 0 10 18 c18 33 148 257 177 305 l29
47 165 0 c106 -1 183 -6 215 -14 42 -12 53 -12 72 0 13 8 59 14 125 16 169 5
245 -2 398 -34z m790 -42 c0 -50 5 -88 13 -98 6 -9 33 -20 58 -23 l46 -7 62
73 c43 51 61 81 61 101 0 15 1 28 3 28 1 0 92 3 201 7 l199 6 -7 -84 c-4 -46
-13 -86 -19 -88 -6 -2 -22 -15 -35 -28 -20 -20 -23 -31 -19 -61 4 -23 16 -45
33 -58 19 -16 24 -27 19 -43 l-6 -21 -531 0 c-291 0 -528 3 -526 8 25 56 180
333 200 358 6 8 50 12 128 12 l120 0 0 -82z m962 55 c-18 -16 -53 -43 -78 -60
-48 -35 -50 -34 -38 41 l6 37 67 4 c36 2 68 4 71 5 3 0 -10 -12 -28 -27z
m1439 -12 c4 -26 23 -57 63 -103 32 -36 66 -66 75 -66 9 0 33 5 53 10 l37 11
3 92 3 92 124 0 123 0 49 -82 c27 -46 74 -130 105 -188 l56 -105 -476 0 c-262
0 -476 2 -476 4 0 3 4 16 10 30 14 38 -1 67 -58 111 l-51 38 22 17 c16 13 22
29 22 58 0 52 -26 82 -72 82 -22 0 -33 5 -33 15 0 12 22 15 118 18 64 2 157 3
207 3 l90 -1 6 -36z m1623 19 c39 12 90 15 211 14 l160 -1 20 -26 c11 -14 61
-98 112 -186 l92 -159 -605 2 -606 3 -64 143 c-35 78 -64 146 -64 151 0 4 60
21 133 37 110 24 163 30 317 34 160 4 189 3 214 -11 l29 -17 51 16z m1182 -10
c22 -42 144 -330 144 -339 0 -5 -89 -9 -197 -9 l-198 0 -29 53 c-16 28 -65
111 -108 184 -43 72 -78 133 -78 135 0 2 102 3 226 3 l226 0 14 -27z m-3572
-7 l28 -30 -33 -5 c-19 -3 -62 -8 -96 -11 l-63 -6 0 41 0 40 68 0 68 0 28 -29z
m-2178 -55 c1 -1 -61 -134 -137 -296 -176 -378 -214 -490 -244 -721 l-6 -46
-24 5 c-30 5 -31 20 -10 147 30 181 44 220 250 667 l119 257 25 -6 c14 -3 27
-6 27 -7z m2582 -22 c2 -22 -2 -33 -13 -38 -25 -9 -35 2 -35 40 0 31 3 35 23
32 17 -2 23 -11 25 -34z m1222 -16 c12 -29 73 -163 135 -298 166 -363 199
-460 219 -658 l5 -53 -25 -9 c-14 -6 -27 -10 -30 -10 -2 0 -4 20 -4 45 0 63
-34 228 -66 321 -26 78 -46 121 -222 504 l-90 195 22 7 c11 3 24 6 27 7 4 1
17 -23 29 -51z m-1480 23 c0 -4 -37 -13 -82 -19 l-83 -11 83 4 c144 7 88 -11
-75 -24 -87 -7 -165 -17 -173 -22 -11 -7 -5 -9 20 -5 78 12 301 28 307 22 4
-3 4 -8 2 -10 -2 -2 -58 -9 -124 -14 -66 -6 -241 -23 -389 -37 -149 -14 -286
-25 -305 -24 -73 1 3 17 159 34 85 9 157 18 159 21 7 7 -58 3 -176 -10 -62 -7
-113 -10 -113 -7 0 3 11 14 24 23 18 13 77 22 247 38 181 18 438 42 507 49 6
0 12 -3 12 -8z m-1158 -142 c-4 -26 -6 -29 -14 -15 -10 18 -4 46 10 46 5 0 6
-14 4 -31z m1168 -11 c0 -24 3 -60 6 -80 l7 -38 -167 0 -166 0 0 65 c0 36 1
65 3 66 9 4 231 27 270 28 l47 1 0 -42z m270 -4 c0 -3 -6 -12 -14 -20 -8 -7
-16 -19 -18 -26 -6 -16 -28 -1 -28 19 0 13 3 13 18 2 l17 -14 -16 20 c-8 11
-16 30 -17 43 l-1 23 30 -21 c16 -12 29 -24 29 -26z m-633 -111 c-9 -178 -27
-185 -27 -10 0 121 2 137 17 137 14 0 15 -13 10 -127z m-664 95 c6 -8 7 -23 4
-32 -5 -14 -11 -15 -27 -6 -11 6 -20 19 -20 29 0 34 24 39 43 9z m577 -109 c0
-84 -4 -128 -10 -124 -6 4 -10 58 -10 131 0 76 4 124 10 124 6 0 10 -50 10
-131z m50 1 l0 -130 -20 0 -20 0 0 130 0 130 20 0 20 0 0 -130z m-110 65 l0
-55 -225 0 -225 0 0 30 c0 22 6 33 23 39 22 9 293 37 380 40 l47 1 0 -55z
m830 0 c0 -27 -26 -40 -47 -24 -11 10 -10 16 8 35 25 27 39 23 39 -11z m-85
-55 c3 -5 1 -10 -4 -10 -6 0 -11 5 -11 10 0 6 2 10 4 10 3 0 8 -4 11 -10z
m-4385 -102 c-36 -92 -62 -221 -58 -284 2 -41 7 -51 28 -61 66 -31 69 -30 173
68 l98 92 61 128 61 129 603 0 604 0 -26 -57 c-77 -168 -133 -304 -148 -355
l-17 -58 -979 0 c-539 0 -980 2 -980 4 0 3 40 98 89 213 48 114 91 218 95 231
l7 22 209 0 208 0 -28 -72z m2970 40 c0 -18 -7 -118 -15 -223 -8 -104 -15
-196 -15 -202 0 -10 -132 -13 -625 -13 -344 0 -625 2 -625 4 0 10 116 283 157
369 l46 97 539 0 538 0 0 -32z m670 -23 c0 -74 20 -95 93 -95 69 0 89 20 95
95 l4 55 164 0 c124 0 164 -3 165 -12 0 -7 8 -113 17 -235 l17 -223 -522 0
-523 0 0 33 c0 17 7 113 15 212 8 99 15 190 15 203 l0 22 230 0 230 0 0 -55z
m1863 -22 c20 -43 65 -148 101 -233 l64 -155 -622 -3 c-341 -1 -626 0 -632 2
-6 2 -15 78 -23 187 -7 101 -15 205 -18 232 l-6 47 550 0 550 0 36 -77z m1548
-44 l54 -121 104 -99 c83 -80 108 -98 125 -94 55 16 77 29 82 51 13 53 -31
256 -80 367 l-8 17 200 0 200 0 20 -47 c55 -129 172 -413 172 -418 0 -3 -437
-4 -971 -3 l-971 3 -28 85 c-15 47 -58 149 -94 228 -36 78 -66 145 -66 147 0
3 272 5 604 5 l604 0 53 -121z m-5686 -416 c-14 -74 -22 -198 -13 -215 9 -19
82 -43 103 -34 21 8 188 213 205 252 l15 34 633 0 632 0 -6 -25 c-10 -40 4
-74 39 -95 38 -24 87 -26 126 -5 33 17 41 33 41 86 l0 39 530 0 530 0 0 -41
c0 -32 6 -47 30 -71 l31 -30 51 4 c65 7 98 39 98 99 l0 39 636 0 635 0 14 -32
c14 -34 178 -234 206 -251 11 -7 30 -5 60 4 l44 14 0 75 c0 41 -4 101 -8 133
l-8 57 974 0 974 0 77 -185 c63 -154 76 -195 76 -240 l0 -55 -4420 0 -4420 0
0 53 c0 42 15 87 77 240 l78 187 983 0 984 0 -7 -37z m6725 -693 l0 -220
-4420 0 -4420 0 0 220 0 220 4420 0 4420 0 0 -220z m0 -465 l0 -215 -4420 0
-4420 0 0 215 0 215 4420 0 4420 0 0 -215z"/>
<path d="M5138 6543 c226 -2 598 -2 825 0 226 1 41 2 -413 2 -454 0 -639 -1
-412 -2z"/>
<path d="M8050 6155 c0 -8 122 -236 403 -755 88 -162 193 -357 234 -432 41
-76 77 -138 80 -138 3 0 -21 48 -53 108 -31 59 -107 202 -169 317 -216 406
-478 890 -486 900 -5 5 -9 5 -9 0z"/>
<path d="M1936 6363 c2 -15 18 -140 35 -278 28 -228 39 -292 39 -239 1 41 -63
529 -70 537 -3 4 -5 -5 -4 -20z"/>
<path d="M2316 6369 c-8 -49 -44 -348 -56 -461 -11 -111 -7 -130 45 -191 61
-71 57 -142 -12 -232 l-38 -48 3 -66 c2 -70 39 -323 41 -281 0 14 -6 72 -14
130 -8 58 -15 130 -15 160 0 46 5 61 29 90 50 61 64 98 59 156 -4 45 -11 62
-46 103 -35 42 -42 57 -42 93 0 24 14 162 30 307 17 145 28 266 26 269 -3 2
-7 -11 -10 -29z"/>
<path d="M2556 6355 c2 -27 18 -163 34 -301 17 -139 27 -260 23 -270 -3 -11
-21 -36 -40 -57 -18 -20 -33 -42 -33 -48 0 -18 80 81 86 107 4 14 4 47 1 72
-3 26 -17 148 -32 272 -14 124 -30 236 -35 250 -7 19 -8 12 -4 -25z"/>
<path d="M2555 5520 c4 -8 18 -29 31 -46 13 -17 26 -43 29 -57 4 -14 0 -74 -9
-134 -8 -59 -22 -173 -31 -253 -8 -80 -18 -165 -21 -190 -3 -25 -3 -42 0 -39
8 7 76 546 76 595 0 19 -12 48 -31 75 -35 49 -57 73 -44 49z"/>
<path d="M2302 5035 c0 -16 3 -50 7 -75 6 -33 9 -37 9 -15 0 17 -3 50 -7 75
-6 33 -9 37 -9 15z"/>
<path d="M2322 4880 c0 -19 2 -27 5 -17 2 9 2 25 0 35 -3 9 -5 1 -5 -18z"/>
<path d="M2902 6118 c-18 -156 -32 -295 -32 -309 0 -16 18 -50 45 -85 43 -55
50 -74 45 -139 -2 -37 -10 -51 -55 -104 -26 -32 -35 -52 -35 -79 0 -58 65
-570 68 -539 2 16 -11 148 -29 293 l-32 265 21 27 c70 90 77 104 77 161 l0 57
-47 63 c-27 35 -48 66 -48 71 0 4 11 99 24 211 26 216 41 389 35 389 -2 0 -19
-127 -37 -282z"/>
<path d="M3174 6335 c6 -65 50 -417 59 -475 4 -20 5 -19 6 7 1 42 -58 525 -66
533 -3 3 -2 -26 1 -65z"/>
<path d="M3231 5788 c0 -9 -19 -38 -41 -63 -22 -25 -40 -54 -40 -63 1 -14 2
-14 12 3 6 11 27 39 45 62 21 25 33 49 30 60 -4 16 -5 16 -6 1z"/>
<path d="M3160 5530 c7 -14 26 -41 42 -60 23 -29 28 -44 28 -92 0 -31 -7 -106
-15 -165 -21 -157 -46 -395 -42 -400 6 -5 10 22 47 327 l33 265 -17 35 c-9 19
-33 53 -53 75 -24 27 -31 32 -23 15z"/>
<path d="M2941 4814 c0 -11 3 -14 6 -6 3 7 2 16 -1 19 -3 4 -6 -2 -5 -13z"/>
<path d="M3551 6385 c-1 -11 -14 -132 -31 -270 -16 -137 -30 -268 -30 -291 0
-31 8 -52 33 -85 48 -63 57 -83 57 -129 0 -46 -14 -77 -59 -134 -24 -30 -31
-49 -31 -83 0 -44 56 -514 65 -543 9 -30 -6 131 -32 348 l-27 222 33 43 c17
23 41 61 52 85 27 57 18 109 -27 165 -60 74 -59 69 -36 259 30 239 45 405 39
420 -3 7 -6 4 -6 -7z"/>
<path d="M3794 6325 c4 -44 18 -167 32 -274 33 -262 33 -262 -16 -323 -22 -28
-40 -58 -39 -67 0 -13 1 -14 6 -1 3 8 23 37 44 64 34 43 39 55 39 102 0 62
-59 567 -67 574 -3 3 -3 -31 1 -75z"/>
<path d="M3780 5532 c0 -5 16 -30 36 -55 l37 -47 -6 -77 c-3 -43 -17 -177 -31
-298 -28 -233 -29 -251 -21 -243 3 3 12 61 20 129 8 68 24 199 35 290 15 118
18 173 11 191 -11 30 -81 125 -81 110z"/>
<path d="M4166 6335 c-4 -38 -19 -162 -32 -274 -32 -273 -32 -269 16 -327 75
-91 75 -163 0 -249 -31 -36 -40 -55 -40 -83 -1 -58 65 -571 68 -536 2 17 -9
125 -24 240 -14 115 -29 234 -31 265 l-5 56 35 39 c85 96 89 164 14 265 -26
35 -47 72 -47 83 0 12 5 50 10 86 20 135 51 450 48 477 -2 16 -7 -2 -12 -42z"/>
<path d="M4416 6335 c6 -86 53 -466 58 -480 12 -28 3 72 -24 289 -31 243 -45
321 -34 191z"/>
<path d="M4471 5788 c0 -10 -14 -32 -30 -50 -29 -34 -51 -70 -51 -85 0 -4 8 4
18 19 9 14 30 42 45 62 17 20 27 43 24 53 -4 16 -5 16 -6 1z"/>
<path d="M4396 5535 c4 -11 23 -38 42 -59 l35 -39 -6 -91 c-3 -50 -17 -189
-31 -310 -28 -236 -29 -242 -21 -234 6 5 75 548 75 588 0 14 -8 39 -17 56 -24
43 -86 114 -77 89z"/>
<path d="M4801 6390 c0 -8 -15 -127 -31 -264 -40 -329 -40 -329 10 -397 47
-62 54 -84 47 -145 -3 -30 -15 -57 -39 -86 -64 -79 -63 -58 -21 -391 21 -166
39 -287 41 -270 2 18 -11 141 -27 273 -17 132 -31 258 -31 280 0 33 8 50 44
94 73 90 72 161 -5 253 l-40 48 4 55 c3 30 17 160 31 288 15 128 25 243 23
255 -2 12 -5 15 -6 7z"/>
<path d="M5045 6310 c7 -102 58 -467 62 -453 5 13 -55 501 -63 518 -2 6 -2
-24 1 -65z"/>
<path d="M5101 5781 c-1 -8 -19 -33 -41 -57 -22 -24 -40 -49 -40 -56 0 -7 7
-1 17 12 9 14 29 39 46 57 16 17 27 37 24 45 -4 10 -6 10 -6 -1z"/>
<path d="M5036 5518 c4 -7 20 -29 36 -49 35 -45 36 -79 9 -274 -27 -192 -44
-360 -39 -375 6 -19 69 496 68 561 0 49 -5 62 -36 102 -35 45 -54 62 -38 35z"/>
<path d="M5421 6404 c0 -6 -12 -100 -26 -210 -14 -109 -28 -248 -31 -309 l-7
-110 42 -50 c68 -82 68 -151 2 -235 l-41 -52 0 -67 c0 -58 53 -512 65 -551 8
-28 -6 134 -26 290 -10 85 -22 191 -25 235 l-6 80 26 35 c14 19 33 45 42 58
43 58 33 140 -26 215 -25 31 -40 60 -40 77 0 15 14 148 30 296 17 148 29 278
27 289 -2 11 -5 15 -6 9z"/>
<path d="M5654 6360 c3 -25 15 -121 27 -215 30 -242 46 -355 48 -320 1 44 -66
565 -74 573 -4 4 -4 -13 -1 -38z"/>
<path d="M5676 5728 c-20 -23 -36 -46 -36 -52 0 -11 53 47 70 77 18 29 3 19
-34 -25z"/>
<path d="M5655 5520 c5 -8 22 -34 38 -57 l30 -42 -6 -68 c-3 -37 -17 -158 -31
-268 -14 -110 -25 -218 -25 -240 2 -45 0 -57 48 317 16 125 27 238 24 250 -4
13 -20 41 -36 63 -37 48 -53 66 -42 45z"/>
<path d="M6041 6400 c-1 -8 -15 -134 -31 -280 -17 -146 -30 -283 -30 -306 0
-31 7 -49 33 -80 47 -55 57 -76 57 -127 0 -35 -9 -57 -45 -113 -39 -58 -45
-75 -45 -119 1 -66 68 -582 69 -529 1 23 -12 150 -29 282 -16 133 -30 254 -30
270 0 18 15 49 40 82 76 102 76 167 0 255 -43 50 -45 60 -30 165 19 133 51
471 47 493 -2 12 -5 15 -6 7z"/>
<path d="M6281 6364 c0 -18 12 -139 29 -270 37 -298 38 -313 4 -345 -14 -13
-33 -37 -41 -54 -12 -24 -5 -19 31 20 l45 50 1 58 c0 48 -53 512 -64 557 -2 8
-4 1 -5 -16z"/>
<path d="M6286 5508 c5 -7 19 -29 32 -48 l24 -35 -6 -80 c-3 -44 -14 -147 -25
-228 -19 -142 -35 -328 -26 -297 13 42 74 568 68 590 -6 23 -61 110 -70 110
-2 0 -1 -6 3 -12z"/>
<path d="M6676 6379 c-9 -46 -56 -515 -56 -561 0 -37 6 -54 28 -80 51 -59 62
-82 62 -126 0 -48 -8 -67 -57 -131 -27 -36 -33 -53 -33 -95 0 -65 64 -589 68
-555 2 14 -11 139 -28 278 -16 139 -30 268 -30 286 0 21 11 47 33 76 50 66 59
87 59 141 0 49 -12 73 -74 151 l-22 27 12 108 c30 264 52 495 48 499 -3 3 -7
-5 -10 -18z"/>
<path d="M6915 6365 c28 -244 70 -556 73 -547 6 18 -58 544 -69 567 -7 15 -8
10 -4 -20z"/>
<path d="M6936 5729 c-20 -24 -36 -47 -36 -53 0 -6 3 -6 8 0 4 5 22 26 41 46
19 21 32 40 29 43 -3 3 -22 -13 -42 -36z"/>
<path d="M6929 5500 c12 -19 29 -51 38 -70 l15 -35 -26 -220 c-26 -221 -40
-379 -32 -360 7 14 66 519 66 561 0 41 -20 86 -57 129 l-26 30 22 -35z"/>
<path d="M7306 6379 c-3 -13 -18 -145 -34 -294 -17 -167 -25 -281 -20 -299 4
-16 18 -41 32 -55 68 -74 75 -159 16 -226 -10 -11 -25 -33 -35 -50 -15 -25
-12 -23 18 10 20 22 46 59 58 82 27 56 19 109 -27 166 -60 75 -60 72 -40 245
30 268 46 435 42 440 -3 2 -7 -6 -10 -19z"/>
<path d="M7544 6365 c34 -249 66 -553 61 -574 -4 -14 -17 -37 -29 -51 -25 -27
-67 -92 -49 -75 6 6 29 32 52 58 34 40 41 55 41 90 -1 57 -67 577 -75 585 -3
3 -4 -12 -1 -33z"/>
<path d="M906 5268 c-9 -193 -12 -641 -5 -588 9 59 24 720 16 720 -3 0 -8 -60
-11 -132z"/>
<path d="M898 4130 c-12 -129 -9 -479 2 -458 6 10 9 120 8 280 -2 200 -5 243
-10 178z"/>
<path d="M8366 5078 c3 -180 9 -351 13 -380 3 -29 5 111 3 312 -3 203 -8 372
-14 380 -5 9 -6 -107 -2 -312z"/>
<path d="M8368 3957 c2 -176 7 -275 14 -282 13 -13 6 513 -8 538 -5 9 -8 -91
-6 -256z"/>
<path d="M702 5000 c-2 -19 -2 -151 -2 -292 0 -195 4 -268 15 -305 21 -70 18
-138 -10 -233 -34 -113 -33 -194 2 -291 l26 -74 7 -265 6 -265 2 251 2 251
-30 91 c-38 115 -39 183 -5 289 27 86 33 193 13 240 -9 19 -14 125 -18 333 -3
168 -7 289 -8 270z"/>
<path d="M576 4603 c-11 -341 -15 -591 -6 -513 9 91 25 690 18 690 -3 0 -8
-80 -12 -177z"/>
<path d="M572 3183 c-1 -190 2 -293 8 -293 11 0 11 184 0 430 l-6 155 -2 -292z"/>
<path d="M8570 4744 c0 -220 -4 -299 -16 -360 -18 -88 -14 -146 16 -242 29
-92 26 -171 -10 -275 l-30 -87 1 -237 c0 -131 2 -233 4 -228 2 6 6 118 9 250
l4 240 26 68 c35 91 35 178 0 306 l-27 96 13 65 c6 36 16 101 20 145 12 114
12 507 0 525 -6 10 -10 -81 -10 -266z"/>
<path d="M8697 4520 c3 -146 9 -319 13 -385 5 -76 6 -20 3 150 -3 149 -9 322
-13 385 -5 72 -6 15 -3 -150z"/>
<path d="M8704 3180 c0 -162 2 -229 3 -147 2 81 2 213 0 295 -1 81 -3 14 -3
-148z"/>
<path d="M8042 4707 c-68 -215 -78 -249 -64 -227 13 22 135 411 130 416 -3 2
-32 -83 -66 -189z"/>
<path d="M1191 4880 c0 -8 4 -24 9 -35 5 -13 9 -14 9 -5 0 8 -4 24 -9 35 -5
13 -9 14 -9 5z"/>
<path d="M1213 4805 c29 -102 101 -322 109 -330 6 -7 7 -5 4 5 -3 8 -28 87
-56 175 -29 88 -54 162 -57 165 -3 3 -3 -4 0 -15z"/>
<path d="M4518 4613 c17 -2 47 -2 65 0 17 2 3 4 -33 4 -36 0 -50 -2 -32 -4z"/>
<path d="M8898 4130 c-3 -157 -10 -281 -18 -323 l-14 -67 24 -97 c14 -53 26
-89 28 -80 2 9 -4 41 -12 71 -20 67 -20 147 -1 251 9 52 14 144 14 265 -1 282
-16 268 -21 -20z"/>
<path d="M8987 3778 c-3 -40 -2 -111 2 -158 l8 -85 1 158 c1 86 0 157 -2 157
-2 0 -6 -33 -9 -72z"/>
<path d="M8864 3283 c-5 -10 -9 -180 -10 -378 l-1 -360 8 335 c4 184 9 354 12
378 2 23 3 42 2 42 -2 0 -7 -8 -11 -17z"/>
<path d="M8966 2829 c-9 -90 -6 -531 4 -554 5 -12 9 111 9 298 1 174 -1 317
-3 317 -2 0 -6 -28 -10 -61z"/>
<path d="M372 4330 c-8 -169 -1 -413 15 -501 l16 -96 -22 -70 c-11 -39 -20
-82 -20 -95 1 -20 2 -20 6 -3 3 11 13 49 24 84 22 72 24 131 7 181 -7 21 -14
141 -18 295 -3 143 -7 235 -8 205z"/>
<path d="M284 3710 c0 -74 1 -105 3 -67 2 37 2 97 0 135 -2 37 -3 6 -3 -68z"/>
<path d="M418 2958 c1 -183 4 -346 6 -363 1 -16 3 123 3 310 1 187 -2 350 -5
363 -4 13 -6 -127 -4 -310z"/>
<path d="M302 2680 c0 -135 3 -283 7 -330 6 -59 8 2 9 205 0 160 -3 308 -7
330 -6 25 -9 -50 -9 -205z"/>
<path d="M1105 4400 c-10 -16 16 -43 28 -31 11 11 2 41 -12 41 -5 0 -13 -5
-16 -10z"/>
<path d="M1372 4303 c2 -10 10 -18 18 -18 8 0 16 8 18 18 2 12 -3 17 -18 17
-15 0 -20 -5 -18 -17z"/>
<path d="M1720 4240 c0 -15 5 -20 18 -18 9 2 17 10 17 18 0 8 -8 16 -17 18
-13 2 -18 -3 -18 -18z m17 -7 c-4 -3 -7 0 -7 7 0 7 3 10 7 7 3 -4 3 -10 0 -14z"/>
<path d="M2062 4203 c2 -10 10 -18 18 -18 8 0 16 8 18 18 2 12 -3 17 -18 17
-15 0 -20 -5 -18 -17z m25 0 c-4 -3 -10 -3 -14 0 -3 4 0 7 7 7 7 0 10 -3 7 -7z"/>
<path d="M2307 4214 c-14 -15 -6 -34 14 -34 14 0 19 5 17 17 -3 18 -20 27 -31
17z m20 -21 c-4 -3 -10 -3 -14 0 -3 4 0 7 7 7 7 0 10 -3 7 -7z"/>
<path d="M8160 4395 c-10 -12 -10 -19 -2 -27 9 -9 16 -8 28 4 9 9 13 21 10 27
-10 15 -21 14 -36 -4z"/>
<path d="M7884 4309 c-8 -14 11 -33 25 -25 6 4 11 14 11 22 0 16 -26 19 -36 3z"/>
<path d="M7543 4245 c-3 -9 -3 -18 0 -22 10 -10 37 6 37 22 0 20 -29 20 -37 0z"/>
<path d="M7201 4216 c-8 -10 -8 -16 2 -24 17 -14 42 2 34 22 -8 20 -21 20 -36
2z m26 -13 c-4 -3 -10 -3 -14 0 -3 4 0 7 7 7 7 0 10 -3 7 -7z"/>
<path d="M6955 4210 c-4 -7 -3 -16 3 -22 14 -14 45 -2 40 15 -6 16 -34 21 -43
7z m22 -17 c-4 -3 -7 0 -7 7 0 7 3 10 7 7 3 -4 3 -10 0 -14z"/>
<path d="M8053 4023 c-88 -249 -99 -281 -89 -272 10 9 177 482 173 492 -1 5
-39 -94 -84 -220z"/>
<path d="M2835 3501 c-3 -5 -1 -12 5 -16 12 -7 30 2 30 16 0 12 -27 12 -35 0z"/>
<path d="M6435 3501 c-7 -12 12 -24 25 -16 11 7 4 25 -10 25 -5 0 -11 -4 -15
-9z"/>
<path d="M1771 3894 c0 -11 3 -14 6 -6 3 7 2 16 -1 19 -3 4 -6 -2 -5 -13z"/>
<path d="M7516 3884 c-4 -14 -5 -28 -3 -31 3 -2 8 8 11 23 4 14 5 28 3 31 -3
2 -8 -8 -11 -23z"/>
<path d="M7501 3824 c0 -11 3 -14 6 -6 3 7 2 16 -1 19 -3 4 -6 -2 -5 -13z"/>
<path d="M4003 4020 c-101 -49 -183 -91 -183 -94 0 -8 326 143 362 168 44 31
0 13 -179 -74z"/>
<path d="M5272 3669 c-118 -61 -212 -113 -209 -115 3 -4 423 210 436 222 19
18 -45 -12 -227 -107z"/>
<path d="M5148 3676 c-177 -92 -247 -133 -133 -79 90 44 298 151 315 162 44
31 -25 -1 -182 -83z"/>
<path d="M2280 3650 c0 -7 3 -10 7 -7 3 4 3 10 0 14 -4 3 -7 0 -7 -7z"/>
<path d="M2290 3600 c0 -7 3 -10 7 -7 3 4 3 10 0 14 -4 3 -7 0 -7 -7z"/>
<path d="M2301 3554 c0 -11 3 -14 6 -6 3 7 2 16 -1 19 -3 4 -6 -2 -5 -13z"/>
<path d="M7010 3650 c0 -7 3 -10 7 -7 3 4 3 10 0 14 -4 3 -7 0 -7 -7z"/>
<path d="M7001 3604 c0 -11 3 -14 6 -6 3 7 2 16 -1 19 -3 4 -6 -2 -5 -13z"/>
<path d="M6992 3560 c0 -14 2 -19 5 -12 2 6 2 18 0 25 -3 6 -5 1 -5 -13z"/>
<path d="M3470 3305 c-14 -16 -5 -35 16 -35 15 0 20 35 5 44 -5 3 -14 -1 -21
-9z m17 -22 c-4 -3 -7 0 -7 7 0 7 3 10 7 7 3 -4 3 -10 0 -14z"/>
<path d="M5794 3306 c-7 -19 3 -36 22 -36 10 0 14 8 12 22 -4 26 -26 36 -34
14z m23 -23 c-4 -3 -7 0 -7 7 0 7 3 10 7 7 3 -4 3 -10 0 -14z"/>
<path d="M900 3370 c0 -7 3 -10 7 -7 3 4 3 10 0 14 -4 3 -7 0 -7 -7z"/>
<path d="M8370 3375 c0 -5 5 -17 10 -25 5 -8 10 -10 10 -5 0 6 -5 17 -10 25
-5 8 -10 11 -10 5z"/>
<path d="M8047 3644 c-3 -4 -75 -30 -159 -60 -84 -29 -148 -53 -143 -53 14 -1
258 82 305 103 19 8 28 15 19 16 -9 0 -18 -3 -22 -6z"/>
<path d="M790 2850 c0 -7 3 -10 7 -7 3 4 3 10 0 14 -4 3 -7 0 -7 -7z"/>
<path d="M8480 2855 c0 -5 5 -17 10 -25 5 -8 10 -10 10 -5 0 6 -5 17 -10 25
-5 8 -10 11 -10 5z"/>
<path d="M7710 3070 c0 -7 3 -10 7 -7 3 4 3 10 0 14 -4 3 -7 0 -7 -7z"/>
<path d="M3215 3350 c-3 -5 1 -10 9 -10 9 0 16 5 16 10 0 6 -4 10 -9 10 -6 0
-13 -4 -16 -10z"/>
<path d="M6060 3356 c0 -9 7 -16 16 -16 9 0 14 5 12 12 -6 18 -28 21 -28 4z"/>
<path d="M2371 3234 c0 -11 3 -14 6 -6 3 7 2 16 -1 19 -3 4 -6 -2 -5 -13z"/>
<path d="M2381 3202 c-1 -16 59 -346 65 -351 2 -2 4 4 4 15 -1 26 -67 352 -69
336z"/>
<path d="M6881 3034 c-18 -97 -30 -178 -28 -180 3 -3 16 57 31 133 32 174 40
223 34 223 -3 0 -19 -79 -37 -176z"/>
<path d="M2641 3134 c0 -11 3 -14 6 -6 3 7 2 16 -1 19 -3 4 -6 -2 -5 -13z"/>
<path d="M2652 3070 c0 -14 2 -19 5 -12 2 6 2 18 0 25 -3 6 -5 1 -5 -13z"/>
<path d="M6651 3134 c0 -11 3 -14 6 -6 3 7 2 16 -1 19 -3 4 -6 -2 -5 -13z"/>
<path d="M3125 3210 c-11 -17 5 -32 21 -19 7 6 11 15 8 20 -7 12 -21 11 -29
-1z"/>
<path d="M6147 3205 c-8 -18 11 -31 25 -17 11 11 3 32 -12 32 -4 0 -10 -7 -13
-15z"/>
<path d="M6451 2497 c-1 -4 34 -83 78 -175 160 -339 247 -546 266 -632 5 -19
10 -30 12 -23 8 21 -65 217 -146 395 -94 206 -210 446 -210 435z"/>
<path d="M6811 1634 c0 -11 3 -14 6 -6 3 7 2 16 -1 19 -3 4 -6 -2 -5 -13z"/>
<path d="M3288 3043 c-36 -53 -289 -459 -320 -513 -102 -178 -219 -414 -218
-438 1 -4 22 38 49 93 26 55 76 152 111 215 68 124 283 479 362 599 27 40 47
75 45 77 -2 3 -15 -13 -29 -33z"/>
<path d="M2783 2372 c-98 -186 -252 -542 -287 -664 -26 -91 -18 -90 13 2 61
181 151 390 275 639 32 62 56 115 54 117 -2 2 -27 -40 -55 -94z"/>
<path d="M4127 2893 c-13 -103 -29 -330 -25 -363 1 -19 11 63 21 184 10 120
16 220 14 222 -2 3 -7 -17 -10 -43z"/>
<path d="M4040 2581 c0 -15 -3 -50 -6 -77 -4 -27 -4 -47 -1 -44 10 9 24 150
15 150 -4 0 -8 -13 -8 -29z"/>
<path d="M4090 2480 c0 -7 3 -10 7 -7 3 4 3 10 0 14 -4 3 -7 0 -7 -7z"/>
<path d="M4082 2170 c0 -14 2 -19 5 -12 2 6 2 18 0 25 -3 6 -5 1 -5 -13z"/>
<path d="M5160 2718 c0 -39 31 -343 36 -347 6 -7 4 33 -11 203 -8 87 -16 161
-19 164 -4 3 -6 -6 -6 -20z"/>
<path d="M5253 2410 c-1 -36 3 -78 7 -95 7 -27 8 -25 8 15 0 25 -3 68 -8 95
l-7 50 0 -65z"/>
<path d="M3015 3031 c-3 -5 -1 -12 5 -16 12 -7 30 2 30 16 0 12 -27 12 -35 0z"/>
<path d="M6252 3028 c6 -18 28 -21 28 -4 0 9 -7 16 -16 16 -9 0 -14 -5 -12
-12z"/>
<path d="M2906 2891 c-4 -5 -2 -12 3 -15 5 -4 12 -2 15 3 4 5 2 12 -3 15 -5 4
-12 2 -15 -3z"/>
<path d="M6372 2888 c3 -7 13 -15 22 -16 12 -3 17 1 14 10 -3 7 -13 15 -22 16
-12 3 -17 -1 -14 -10z"/>
<path d="M4782 2850 c-40 -28 -72 -53 -72 -56 0 -7 14 2 80 49 61 45 77 57 69
57 -3 0 -38 -23 -77 -50z"/>
<path d="M4613 2693 c-27 -21 -84 -64 -126 -97 -76 -58 -103 -85 -49 -50 35
23 232 176 232 180 0 8 -10 2 -57 -33z"/>
<path d="M1163 2223 c-37 -66 -95 -225 -107 -292 -10 -57 2 -30 29 65 15 49
48 135 75 192 27 56 47 102 45 102 -2 0 -21 -30 -42 -67z"/>
<path d="M8090 2287 c0 -5 11 -27 24 -50 34 -59 72 -153 100 -249 14 -46 25
-72 25 -59 1 34 -53 190 -93 268 -39 75 -56 102 -56 90z"/>
<path d="M4493 2413 c9 -2 23 -2 30 0 6 3 -1 5 -18 5 -16 0 -22 -2 -12 -5z"/>
</g>
</svg>
