<?xml version="1.0" standalone="no"?>
<!DOCTYPE svg PUBLIC "-//W3C//DTD SVG 20010904//EN"
 "http://www.w3.org/TR/2001/REC-SVG-20010904/DTD/svg10.dtd">
<svg version="1.0" xmlns="http://www.w3.org/2000/svg"
 width="144.000000pt" height="144.000000pt" viewBox="0 0 144.000000 144.000000"
 preserveAspectRatio="xMidYMid meet"><g transform="translate(0.000000,144.000000) scale(0.100000,-0.100000)"
fill="#000000" stroke="none">
<path d="M270 1238 c-33 -17 -51 -35 -67 -68 l-23 -44 0 -406 0 -406 22 -44
c17 -33 35 -51 68 -68 l44 -22 406 0 406 0 44 23 c33 16 51 34 67 67 l23 44 0
406 0 406 -22 44 c-17 33 -35 51 -68 68 l-44 22 -406 0 -406 0 -44 -22z m875
-93 l25 -24 0 -246 0 -245 -450 0 -450 0 0 245 0 246 25 24 24 25 401 0 401 0
24 -25z m25 -715 l0 -111 -25 -24 -24 -25 -401 0 -401 0 -24 25 -25 24 0 111
0 110 450 0 450 0 0 -110z"/>
<path d="M376 1034 c-9 -8 -16 -21 -16 -29 0 -7 20 -40 45 -74 l45 -61 0 -63
c0 -67 10 -87 45 -87 35 0 45 20 45 87 l0 63 45 61 c25 34 45 67 45 74 0 8 -7
21 -16 29 -12 13 -38 16 -119 16 -81 0 -107 -3 -119 -16z"/>
<path d="M972 978 c-17 -17 -17 -229 0 -246 7 -7 21 -12 33 -12 39 0 45 18 45
135 0 117 -6 135 -45 135 -12 0 -26 -5 -33 -12z"/>
<path d="M822 918 c-16 -16 -16 -170 0 -186 7 -7 21 -12 33 -12 37 0 45 20 45
105 0 85 -8 105 -45 105 -12 0 -26 -5 -33 -12z"/>
<path d="M672 858 c-16 -16 -16 -110 0 -126 15 -15 51 -15 66 0 16 16 16 110
0 126 -7 7 -21 12 -33 12 -12 0 -26 -5 -33 -12z"/>
<path d="M372 438 c-15 -15 -15 -51 0 -66 16 -16 200 -16 216 0 7 7 12 21 12
33 0 12 -5 26 -12 33 -16 16 -200 16 -216 0z"/>
</g>
</svg>
