<?xml version="1.0" standalone="no"?>
<!DOCTYPE svg PUBLIC "-//W3C//DTD SVG 20010904//EN"
 "http://www.w3.org/TR/2001/REC-SVG-20010904/DTD/svg10.dtd">
<svg id="copper_clawfoot__soaking_tub" version="1.0" xmlns="http://www.w3.org/2000/svg"
 width="1635.000000pt" height="677.000000pt" viewBox="0 0 1635.000000 677.000000"
 preserveAspectRatio="xMidYMid meet">
<g transform="translate(0.000000,677.000000) scale(0.100000,-0.100000)"
fill="currentColor" stroke="none">
<path d="M3085 6289 c-104 -4 -341 -21 -525 -38 -377 -34 -553 -47 -750 -56
-560 -25 -783 -51 -1137 -135 -189 -45 -248 -84 -248 -164 0 -62 11 -73 605
-666 373 -372 548 -554 600 -623 74 -99 74 -99 45 -150 -139 -249 -468 -786
-622 -1018 -386 -578 -617 -935 -630 -973 -16 -45 -6 -85 29 -123 88 -94 876
-232 1418 -248 107 -4 197 -8 199 -11 7 -7 2 -164 -10 -301 -11 -133 -5 -160
34 -167 87 -16 141 -31 282 -80 274 -94 724 -198 1300 -302 110 -20 284 -51
387 -70 300 -54 857 -116 1096 -121 241 -6 322 1 737 67 569 90 901 166 1505
345 179 53 417 120 530 150 184 48 404 114 1009 305 300 94 718 156 1641 244
470 45 643 53 838 40 111 -8 97 61 117 -589 23 -733 31 -803 116 -966 73 -139
195 -230 355 -264 199 -42 840 -5 2099 121 954 95 1267 136 1640 215 249 52
299 77 297 149 -1 45 -14 62 -189 243 -268 278 -346 369 -429 499 -42 68 -103
161 -134 208 -31 47 -91 150 -134 229 -43 79 -115 207 -161 283 -88 147 -103
191 -86 255 16 57 149 255 292 433 147 183 219 284 317 441 115 187 218 316
445 559 222 237 190 264 -463 384 -332 62 -376 66 -705 72 -170 3 -325 7 -342
10 -33 5 -33 5 -34 352 -1 408 -4 444 -45 478 -98 82 -254 135 -709 240 -485
112 -442 109 -1165 95 -1870 -36 -2227 -62 -2860 -211 -477 -112 -853 -200
-1290 -300 -589 -135 -875 -206 -1063 -264 -443 -137 -778 -217 -1058 -250
-282 -34 -932 -81 -952 -69 -18 11 0 319 29 498 47 299 31 625 -39 778 -56
122 -197 232 -382 295 -453 155 -972 204 -1800 171z m890 -239 c372 -14 738
-76 958 -162 198 -78 275 -256 164 -377 -40 -44 -165 -87 -362 -125 -187 -37
-247 -39 -1235 -46 -985 -6 -985 -6 -1155 -48 -312 -78 -339 -105 -298 -297
16 -70 18 -133 16 -505 -2 -436 -11 -579 -44 -755 -20 -106 -25 -268 -9 -345
24 -123 71 -1072 53 -1083 -16 -9 -333 12 -468 32 -458 66 -752 116 -832 142
-32 10 -32 11 -19 38 19 35 266 424 481 756 170 263 346 572 545 960 129 251
130 254 70 372 -75 145 -159 241 -662 750 -369 374 -487 498 -476 504 27 15
279 57 438 73 85 9 306 21 490 26 362 11 531 20 910 50 264 21 502 38 590 43
130 7 624 6 845 -3z m9230 -569 c51 -8 255 -46 749 -141 98 -19 253 -86 299
-129 22 -21 23 -62 10 -266 -10 -155 -2 -587 16 -810 5 -66 10 -192 10 -280 1
-88 8 -295 17 -460 11 -217 14 -363 8 -530 -4 -126 -8 -356 -8 -510 -2 -312
-3 -317 -49 -304 -18 5 -151 29 -297 53 -146 25 -409 76 -585 115 -680 148
-677 148 -1440 182 -639 28 -808 24 -1470 -36 -524 -48 -1203 -145 -1391 -200
-66 -18 -324 -100 -574 -180 -250 -80 -493 -155 -540 -166 -126 -29 -370 -99
-680 -195 -585 -181 -971 -264 -1682 -363 -336 -47 -1013 4 -1653 124 -99 18
-259 46 -355 60 -408 62 -1164 224 -1345 288 -47 17 -48 25 -26 208 10 82 10
170 2 400 -18 498 -40 940 -51 1034 -20 162 -15 306 14 479 27 160 27 160 24
673 -3 513 -3 513 18 513 37 0 186 -56 437 -164 136 -58 296 -120 355 -136 90
-25 519 -111 752 -150 36 -6 146 -26 245 -45 333 -63 479 -84 680 -100 110 -8
263 -22 340 -30 316 -32 371 -32 990 16 420 31 687 85 1182 238 386 120 688
195 1508 376 214 47 527 119 695 160 739 179 1039 215 2000 245 184 6 353 13
375 17 38 6 663 17 1140 21 121 1 247 -2 280 -7z m-8059 -293 c-3 -90 -16
-219 -27 -288 -16 -94 -20 -152 -16 -232 5 -108 5 -108 -71 -108 l-75 0 9 168
c5 92 9 254 9 360 l0 193 80 34 c44 18 84 34 89 34 5 1 6 -66 2 -161z m-289
-283 c-2 -257 -5 -345 -14 -345 -18 0 -168 21 -171 25 -3 2 58 628 61 632 2 2
108 31 119 32 3 1 6 -154 5 -344z m-1697 140 c0 -169 2 -165 -59 -144 -31 11
-31 11 -31 149 0 139 0 139 33 143 17 2 38 5 45 5 9 2 12 -35 12 -153z m214
103 c-3 -24 -11 -103 -18 -176 -8 -73 -15 -135 -17 -137 -2 -2 -26 2 -53 8
-49 11 -49 11 -42 122 3 60 6 136 6 168 0 57 0 57 65 57 65 0 65 0 59 -42z
m154 32 c22 0 22 0 22 -195 0 -195 0 -195 -29 -195 -58 0 -61 13 -61 217 0
185 0 185 23 179 12 -3 32 -6 45 -6z m1085 -95 c-1 -55 -11 -166 -22 -247 -12
-82 -21 -169 -21 -194 0 -46 0 -46 -37 -40 -76 14 -74 11 -68 79 3 34 10 157
16 272 5 116 13 213 17 217 9 8 58 16 92 14 25 -1 25 -1 23 -101z m-1663 -15
c0 -109 0 -110 -24 -110 -41 0 -50 22 -43 108 8 97 13 112 43 112 24 0 24 -1
24 -110z m-159 20 c-16 -85 -16 -85 -55 -70 -25 9 -26 14 -26 80 0 70 0 70 48
70 49 0 49 0 33 -80z m1016 66 c3 -2 7 -98 11 -211 l5 -207 -64 7 c-75 8 -83
14 -82 57 0 18 1 104 2 192 1 87 4 163 7 168 7 10 110 5 121 -6z m253 -8 c0
-29 -21 -348 -26 -395 -6 -58 -10 -61 -76 -42 -38 10 -38 10 -38 229 l0 220
70 0 c49 0 70 -4 70 -12z m318 -248 c1 -143 1 -260 0 -260 -16 0 -213 42 -221
47 -10 6 -5 153 15 356 l11 117 97 0 96 0 2 -260z m-1788 205 c0 -42 2 -42
-63 -9 -58 30 -50 42 26 43 36 1 37 0 37 -34z m12235 -810 c303 -25 317 -27
635 -96 179 -39 329 -75 334 -79 5 -5 -12 -35 -40 -69 -239 -291 -325 -408
-472 -638 -34 -54 -107 -156 -162 -228 -212 -277 -351 -510 -365 -613 -10 -74
16 -160 89 -292 35 -63 94 -173 132 -245 97 -186 333 -579 403 -671 33 -44
138 -164 234 -269 159 -173 173 -191 153 -198 -40 -16 -1340 -138 -2416 -227
-333 -28 -663 -57 -735 -65 -424 -50 -512 -53 -645 -24 -76 16 -120 60 -120
121 1 153 118 227 788 500 342 138 390 155 612 213 678 178 768 209 987 336
216 126 224 141 234 454 4 127 5 250 2 274 -4 24 0 156 7 292 11 202 11 302 1
531 -7 156 -17 407 -21 558 -5 151 -14 313 -20 360 -5 47 -10 88 -10 93 0 12
66 9 395 -18z m-3040 -2127 c11 -33 25 -274 35 -588 6 -190 15 -390 21 -445
11 -100 11 -100 -48 -152 -58 -52 -58 -52 -66 -25 -4 15 -12 243 -17 507 -6
264 -15 514 -20 555 -18 155 -17 160 40 160 32 0 52 -5 55 -12z m264 -17 c12
-19 22 -201 30 -578 9 -416 12 -394 -49 -427 -49 -26 -49 -26 -54 26 -7 57
-76 959 -76 985 0 20 136 15 149 -6z m308 -25 c2 -2 -1 -73 -8 -157 -6 -85
-14 -277 -18 -428 l-6 -274 -69 -24 c-38 -12 -72 -21 -74 -18 -3 2 0 123 6
267 5 145 9 281 9 303 -1 22 0 110 1 196 l2 155 77 -8 c42 -5 78 -10 80 -12z
m219 -14 c8 -5 14 -121 19 -370 l7 -362 -66 -30 c-36 -17 -68 -30 -71 -30 -3
0 -5 180 -5 400 0 400 0 400 53 400 28 0 57 -4 63 -8z m250 -219 c0 -196 4
-246 29 -368 6 -29 4 -31 -67 -63 -40 -17 -76 -32 -80 -32 -5 0 -8 153 -8 340
l0 340 63 0 c64 0 64 0 63 -217z m176 186 c55 -11 55 -11 61 -173 4 -117 11
-183 26 -240 11 -43 19 -82 16 -85 -8 -14 -117 -33 -127 -23 -6 6 -12 41 -14
79 -10 157 -25 371 -30 411 -6 47 -8 46 68 31z m312 -64 c58 -17 58 -17 52
-74 -3 -31 -8 -111 -12 -177 -7 -121 -7 -121 -67 -138 -33 -9 -63 -13 -67 -9
-4 4 -13 89 -19 188 -7 99 -15 193 -18 209 -5 29 -5 29 33 24 22 -3 65 -13 98
-23z m278 -56 c36 -9 36 -10 48 -82 6 -39 13 -83 16 -97 4 -24 0 -27 -91 -57
l-95 -31 0 144 c0 159 -5 154 122 123z m308 -59 c25 -5 56 -13 69 -18 25 -9
25 -9 -1 -26 -31 -20 -155 -65 -180 -66 -15 0 -18 9 -18 58 0 80 -5 78 130 52z"/>
<path d="M11533 5019 c-35 -28 -63 -54 -63 -58 0 -3 4 -21 9 -38 9 -30 7 -35
-24 -61 -31 -25 -34 -31 -28 -66 6 -38 7 -38 44 -33 45 6 38 23 80 -187 34
-169 34 -169 99 -212 66 -42 66 -42 133 -30 82 16 75 8 83 95 7 72 7 72 -29
51 -43 -26 -90 -20 -112 14 -12 18 -77 296 -71 303 1 1 33 9 70 17 37 7 69 16
72 18 10 10 -18 109 -30 105 -27 -10 -128 -28 -133 -24 -9 9 -23 81 -23 120 0
47 -2 47 -77 -14z"/>
<path d="M11064 4792 c-121 -26 -121 -26 -168 -98 -47 -72 -47 -72 -16 -220
16 -82 32 -159 35 -172 3 -13 32 -40 75 -68 70 -47 70 -47 187 -24 146 28 141
26 193 105 42 65 42 65 9 236 -34 172 -34 172 -106 220 -40 27 -76 48 -80 48
-4 -1 -62 -13 -129 -27z m128 -140 c17 -17 58 -187 58 -241 0 -74 -130 -113
-182 -55 -20 24 -61 223 -52 258 14 59 130 84 176 38z"/>
<path d="M10003 4773 c-72 -15 -72 -15 -123 -95 -50 -79 -51 -81 -41 -127 9
-45 9 -47 -24 -74 -19 -15 -32 -33 -30 -40 2 -7 6 -24 9 -39 5 -24 9 -26 43
-21 38 5 38 5 71 -159 18 -89 32 -184 32 -210 0 -55 -3 -55 101 -33 88 19 84
16 63 57 -17 32 -83 321 -84 364 0 18 9 23 61 33 61 12 61 12 54 54 -10 58
-15 62 -81 48 -32 -6 -59 -9 -62 -6 -13 13 -5 85 12 103 22 26 105 46 147 37
32 -7 32 -7 -4 56 -40 73 -42 73 -144 52z"/>
<path d="M10410 4656 c-105 -22 -105 -22 -153 -95 -48 -73 -48 -73 -12 -244
19 -94 37 -172 38 -173 1 -1 34 -21 72 -46 70 -44 70 -44 195 -18 125 26 125
26 174 97 49 72 49 72 16 236 -38 191 -28 172 -107 225 -71 48 -76 49 -223 18z
m146 -141 c21 -32 59 -225 51 -257 -15 -59 -141 -86 -177 -39 -22 30 -63 229
-55 264 15 59 148 82 181 32z"/>
<path d="M9650 4502 c-91 -18 -85 -12 -70 -66 12 -43 -2 -251 -19 -283 -13
-24 -141 211 -141 258 0 38 -2 41 -22 36 -13 -3 -51 -11 -85 -18 -67 -12 -71
-18 -52 -66 10 -27 -4 -232 -20 -275 -11 -30 -141 205 -141 254 0 32 -3 38
-21 38 -21 0 -161 -30 -168 -36 -2 -2 12 -25 31 -51 19 -26 88 -140 153 -253
145 -251 130 -234 188 -219 26 6 47 12 48 13 0 0 11 81 22 179 l22 178 90
-156 c90 -156 90 -156 135 -150 25 4 48 10 52 13 4 4 23 131 42 282 19 151 40
290 45 308 11 37 17 36 -89 14z"/>
<path d="M8071 4374 c-79 -17 -75 -12 -52 -65 28 -64 144 -645 138 -686 -7
-39 -8 -39 95 -16 84 18 86 19 63 63 -11 21 -155 685 -155 715 0 7 -15 5 -89
-11z"/>
<path d="M7687 4275 c-60 -12 -112 -26 -116 -31 -5 -5 -33 -46 -63 -91 l-54
-82 46 -227 c26 -124 52 -229 57 -233 6 -3 46 -30 90 -59 80 -53 80 -53 219
-24 139 28 139 28 151 118 6 49 10 90 8 93 -2 2 -26 -9 -52 -24 -53 -32 -154
-56 -196 -48 -53 11 -71 48 -105 216 -20 103 -28 165 -23 184 16 59 119 94
232 79 59 -8 59 -11 7 80 -49 86 -38 83 -201 49z"/>
<path d="M8585 4281 c-44 -10 -99 -29 -121 -44 -40 -25 -42 -29 -49 -87 -4
-34 -5 -63 -3 -66 3 -2 39 16 81 40 114 64 176 67 214 9 14 -21 12 -23 -59
-59 -109 -55 -229 -151 -223 -178 3 -11 11 -50 18 -86 12 -63 15 -66 67 -102
55 -37 55 -37 124 -23 48 11 84 26 118 52 50 36 50 36 67 14 16 -20 20 -21 66
-11 108 22 100 14 64 67 -27 38 -38 74 -66 207 -18 89 -35 171 -38 183 -7 31
-116 103 -152 102 -15 -1 -64 -9 -108 -18z m173 -391 c1 -36 -49 -72 -107 -78
-51 -5 -65 4 -76 51 -9 34 48 94 118 125 42 19 42 19 54 -27 6 -25 11 -57 11
-71z"/>
<path d="M6982 3953 c-27 -4 -39 -13 -60 -48 -32 -53 -36 -54 -52 -15 -7 17
-17 30 -22 30 -8 0 -126 -65 -137 -76 -2 -2 8 -18 22 -37 28 -37 97 -349 97
-439 0 -55 -3 -55 101 -33 88 19 84 16 63 57 -29 54 -82 327 -71 364 17 57 79
78 127 44 29 -20 29 -20 60 25 38 55 35 92 -9 118 -28 16 -50 18 -119 10z"/>
<path d="M10546 3834 c-75 -18 -72 -13 -47 -76 11 -29 51 -199 87 -378 36
-179 67 -326 68 -327 8 -9 104 24 115 39 11 17 21 19 61 13 43 -6 158 9 187
24 7 3 32 37 56 75 44 68 44 68 11 228 -19 88 -34 164 -34 169 0 5 -32 30 -71
56 -70 47 -70 47 -147 34 -58 -10 -86 -20 -114 -43 -44 -34 -40 -39 -63 82
-26 138 -15 127 -109 104z m347 -293 c21 -21 67 -217 60 -255 -14 -70 -136
-94 -181 -36 -25 33 -57 194 -48 242 13 70 117 100 169 49z"/>
<path d="M6326 3817 c-98 -20 -98 -20 -142 -89 -52 -81 -52 -73 -11 -265 32
-153 32 -153 102 -200 70 -47 70 -47 215 -17 145 29 145 29 154 102 4 40 6 75
4 78 -3 2 -25 -6 -49 -20 -52 -28 -158 -50 -200 -41 -32 7 -64 46 -71 88 -3
15 -4 27 -2 27 7 0 299 61 310 65 8 2 5 33 -9 104 -20 100 -20 100 -88 145
-77 52 -77 52 -213 23z m128 -126 c9 -10 18 -31 22 -47 6 -30 6 -30 -80 -49
-96 -20 -100 -19 -100 30 0 76 108 121 158 66z"/>
<path d="M5744 3696 c-28 -6 -68 -24 -89 -40 -36 -28 -54 -25 -55 7 0 8 -124
-56 -144 -74 -6 -5 -2 -18 11 -31 11 -13 23 -28 27 -35 15 -27 116 -548 116
-598 0 -63 -4 -62 101 -40 88 19 83 14 63 61 -17 39 -43 137 -44 162 0 11 10
12 41 7 37 -6 158 9 186 24 7 3 32 37 56 75 44 68 44 68 11 228 -19 88 -34
164 -34 169 0 5 -30 29 -67 54 -73 48 -90 51 -179 31z m89 -145 c21 -21 67
-217 60 -255 -14 -70 -136 -94 -180 -36 -21 27 -53 163 -53 223 0 80 115 125
173 68z"/>
<path d="M9481 3591 c-253 -53 -234 -40 -246 -158 -8 -84 -11 -82 58 -43 47
26 147 52 147 38 0 -3 23 -115 51 -249 39 -190 50 -257 46 -302 -5 -56 -4 -59
16 -54 12 3 61 13 110 23 97 19 96 18 65 70 -25 43 -131 534 -118 547 15 17
86 26 148 20 34 -3 62 -2 61 3 -1 21 -86 149 -99 151 -8 1 -116 -20 -239 -46z"/>
<path d="M10262 3556 c-92 -54 -88 -49 -59 -88 38 -49 85 -293 66 -334 -28
-57 -122 -70 -153 -21 -8 12 -32 109 -54 215 -22 106 -43 196 -46 199 -7 7
-156 -79 -156 -91 0 -4 10 -20 23 -36 18 -20 31 -67 56 -191 42 -203 31 -180
106 -229 64 -42 64 -42 130 -27 37 9 81 27 101 42 33 25 36 26 54 10 16 -14
25 -15 82 -4 77 15 73 11 52 50 -9 18 -40 147 -70 287 -29 139 -54 255 -56
257 -2 2 -36 -15 -76 -39z"/>
<path d="M5100 3564 c-41 -9 -78 -25 -101 -44 -37 -29 -37 -29 -51 -8 -14 22
-14 22 -74 -12 -89 -50 -87 -47 -58 -86 34 -44 149 -584 138 -648 -6 -37 -5
-38 17 -33 13 3 54 11 92 18 75 14 73 12 51 65 -17 39 -47 164 -41 170 1 2 20
-1 41 -6 27 -6 63 -4 115 7 77 15 77 15 124 87 47 73 47 73 23 187 -13 63 -29
139 -36 170 -11 55 -13 58 -80 103 -39 25 -75 46 -82 45 -7 -1 -42 -7 -78 -15z
m74 -147 c28 -29 72 -230 57 -268 -22 -59 -136 -75 -175 -26 -30 37 -63 210
-49 253 19 59 123 84 167 41z"/>
<path d="M3820 3481 c-125 -27 -125 -27 -187 -117 l-61 -90 46 -227 c46 -227
46 -227 137 -286 91 -59 91 -59 210 -35 168 33 161 28 169 116 4 40 10 81 13
92 4 16 -3 14 -49 -12 -112 -64 -212 -70 -260 -16 -20 24 -81 322 -73 357 16
62 118 101 226 87 30 -4 55 -6 57 -5 6 5 -89 165 -96 164 -4 0 -63 -13 -132
-28z"/>
<path d="M4400 3420 c-125 -26 -125 -26 -174 -98 -49 -71 -49 -71 -15 -237 39
-194 28 -171 106 -223 71 -48 72 -48 218 -19 110 23 110 23 158 95 49 73 49
73 13 245 -20 94 -42 175 -49 179 -6 4 -39 25 -72 46 -60 38 -60 38 -185 12z
m87 -120 c39 -14 49 -35 73 -155 29 -140 16 -171 -78 -188 -75 -15 -97 15
-127 168 -25 126 -13 156 70 176 17 4 30 7 31 8 1 1 15 -4 31 -9z"/>
<path d="M8808 3278 c-36 -8 -48 -15 -52 -33 -6 -22 -7 -23 -53 -11 -40 10
-60 9 -118 -4 -70 -15 -70 -15 -122 -91 -53 -77 -53 -77 -21 -227 31 -151 31
-151 102 -198 70 -47 70 -47 139 -33 44 8 83 23 107 40 38 28 38 28 44 -3 12
-58 7 -97 -15 -117 -26 -24 -134 -45 -199 -39 -28 3 -50 3 -50 1 0 -10 41 -83
55 -97 24 -24 86 -19 251 19 13 3 42 37 73 83 l51 79 -55 267 c-30 147 -55
292 -55 322 0 60 2 59 -82 42z m-68 -177 c47 -51 72 -225 38 -268 -33 -42
-134 -39 -159 5 -27 47 -55 207 -41 237 26 57 119 71 162 26z"/>
<path d="M7456 3211 c-68 -14 -86 -109 -28 -144 62 -36 141 17 128 85 -5 28
-50 73 -68 67 -1 -1 -16 -4 -32 -8z"/>
<path d="M8040 3118 c-25 -5 -62 -23 -82 -39 -44 -34 -54 -36 -63 -9 -6 20 -9
19 -73 -16 -89 -49 -89 -48 -59 -83 15 -18 30 -54 37 -88 7 -32 23 -110 37
-173 13 -63 24 -141 24 -172 -1 -32 2 -58 6 -58 30 0 173 35 173 42 0 5 -7 23
-17 41 -19 38 -73 286 -73 340 0 92 135 124 168 40 22 -56 70 -319 65 -355 -5
-34 -3 -38 16 -38 28 0 161 30 161 36 0 3 -9 26 -19 52 -15 36 -91 373 -91
404 0 12 -127 88 -146 87 -10 -1 -39 -6 -64 -11z"/>
<path d="M6853 3072 c-79 -16 -81 -18 -57 -63 21 -42 134 -598 134 -664 0 -64
0 -64 107 -39 82 19 77 13 57 60 -9 21 -23 68 -31 103 -13 62 -13 65 13 108
14 24 31 42 37 40 16 -5 124 -194 132 -229 8 -36 15 -39 56 -28 19 5 60 14 92
20 58 12 58 12 20 53 -21 23 -78 106 -126 184 l-88 142 65 98 c36 53 62 101
58 105 -6 6 -35 1 -159 -27 -16 -4 -24 -15 -29 -43 -6 -32 -101 -191 -114
-192 -3 0 -23 86 -44 190 -22 105 -42 192 -45 194 -3 1 -39 -4 -78 -12z"/>
<path d="M7491 2990 c-88 -53 -89 -55 -61 -85 28 -30 99 -341 100 -437 0 -32
2 -58 4 -58 9 0 151 30 163 35 10 3 8 15 -6 47 -10 24 -40 147 -65 273 -54
260 -55 265 -64 264 -4 0 -36 -18 -71 -39z"/>
<path d="M6435 2786 c-81 -17 -138 -39 -183 -72 -5 -3 -21 -128 -17 -132 2 -2
34 14 72 36 115 67 185 76 217 26 24 -35 21 -39 -46 -69 -57 -25 -191 -118
-218 -151 -8 -9 -7 -36 6 -98 17 -85 17 -85 69 -119 52 -35 52 -35 126 -20 55
12 84 24 115 49 48 40 51 40 73 13 16 -20 19 -20 79 -6 80 19 80 17 43 71 -26
38 -37 74 -68 225 -37 181 -37 181 -102 224 -66 44 -66 44 -166 23z m139 -328
c4 -24 9 -53 12 -65 14 -53 -123 -107 -168 -66 -48 43 -12 102 96 160 50 26
52 25 60 -29z"/>
<path d="M5159 2703 c-115 -26 -115 -26 -168 -107 -57 -87 -59 -102 -31 -207
17 -63 108 -119 192 -119 72 0 130 -14 148 -35 20 -25 18 -102 -5 -124 -29
-29 -155 -54 -229 -45 -38 4 -57 3 -55 -4 14 -37 86 -152 96 -152 14 0 285 59
288 62 101 137 108 158 90 261 -19 99 -19 99 -84 143 -64 43 -67 44 -148 44
-104 0 -140 23 -129 82 3 19 14 42 24 51 24 21 125 41 199 38 62 -2 62 -2 22
69 -48 82 -38 80 -210 43z"/>
<path d="M5830 2665 c-30 -7 -80 -18 -110 -24 -54 -11 -56 -13 -99 -83 -45
-72 -45 -72 -10 -242 34 -171 34 -171 105 -217 70 -47 70 -47 198 -21 128 25
128 25 176 97 48 71 48 71 24 191 -51 253 -37 220 -115 270 -74 47 -84 49
-169 29z m80 -143 c26 -21 73 -219 63 -262 -16 -66 -148 -92 -183 -37 -22 35
-58 228 -48 259 18 52 123 77 168 40z"/>
</g>
</svg>
